%TF.GenerationSoftware,KiCad,Pcbnew,(6.0.10-0)*%
%TF.CreationDate,2023-11-17T22:44:03+01:00*%
%TF.ProjectId,test sensor panelized,74657374-2073-4656-9e73-6f722070616e,rev?*%
%TF.SameCoordinates,Original*%
%TF.FileFunction,Copper,L1,Top*%
%TF.FilePolarity,Positive*%
%FSLAX46Y46*%
G04 Gerber Fmt 4.6, Leading zero omitted, Abs format (unit mm)*
G04 Created by KiCad (PCBNEW (6.0.10-0)) date 2023-11-17 22:44:03*
%MOMM*%
%LPD*%
G01*
G04 APERTURE LIST*
%TA.AperFunction,ComponentPad*%
%ADD10R,1.600000X1.600000*%
%TD*%
%TA.AperFunction,ComponentPad*%
%ADD11O,1.600000X1.600000*%
%TD*%
%TA.AperFunction,Conductor*%
%ADD12C,0.250000*%
%TD*%
G04 APERTURE END LIST*
D10*
%TO.P,SW1,1*%
%TO.N,N/C*%
X150130000Y-59385000D03*
D11*
%TO.P,SW1,2*%
X150130000Y-61290000D03*
%TO.P,SW1,3*%
X150130000Y-63195000D03*
%TO.P,SW1,4*%
X152035000Y-63195000D03*
%TO.P,SW1,5*%
X152035000Y-61290000D03*
%TO.P,SW1,6*%
X152035000Y-59385000D03*
%TD*%
D10*
%TO.P,SW1,1*%
%TO.N,N/C*%
X127270000Y-112725000D03*
D11*
%TO.P,SW1,2*%
X127270000Y-114630000D03*
%TO.P,SW1,3*%
X127270000Y-116535000D03*
%TO.P,SW1,4*%
X129175000Y-116535000D03*
%TO.P,SW1,5*%
X129175000Y-114630000D03*
%TO.P,SW1,6*%
X129175000Y-112725000D03*
%TD*%
D10*
%TO.P,SW1,1*%
%TO.N,N/C*%
X138700000Y-28905000D03*
D11*
%TO.P,SW1,2*%
X138700000Y-30810000D03*
%TO.P,SW1,3*%
X138700000Y-32715000D03*
%TO.P,SW1,4*%
X140605000Y-32715000D03*
%TO.P,SW1,5*%
X140605000Y-30810000D03*
%TO.P,SW1,6*%
X140605000Y-28905000D03*
%TD*%
D10*
%TO.P,SW1,1*%
%TO.N,N/C*%
X144415000Y-97485000D03*
D11*
%TO.P,SW1,2*%
X144415000Y-99390000D03*
%TO.P,SW1,3*%
X144415000Y-101295000D03*
%TO.P,SW1,4*%
X146320000Y-101295000D03*
%TO.P,SW1,5*%
X146320000Y-99390000D03*
%TO.P,SW1,6*%
X146320000Y-97485000D03*
%TD*%
D10*
%TO.P,SW1,1*%
%TO.N,N/C*%
X155845000Y-36525000D03*
D11*
%TO.P,SW1,2*%
X155845000Y-38430000D03*
%TO.P,SW1,3*%
X155845000Y-40335000D03*
%TO.P,SW1,4*%
X157750000Y-40335000D03*
%TO.P,SW1,5*%
X157750000Y-38430000D03*
%TO.P,SW1,6*%
X157750000Y-36525000D03*
%TD*%
D10*
%TO.P,SW1,1*%
%TO.N,N/C*%
X150130000Y-67005000D03*
D11*
%TO.P,SW1,2*%
X150130000Y-68910000D03*
%TO.P,SW1,3*%
X150130000Y-70815000D03*
%TO.P,SW1,4*%
X152035000Y-70815000D03*
%TO.P,SW1,5*%
X152035000Y-68910000D03*
%TO.P,SW1,6*%
X152035000Y-67005000D03*
%TD*%
D10*
%TO.P,SW1,1*%
%TO.N,N/C*%
X155845000Y-74625000D03*
D11*
%TO.P,SW1,2*%
X155845000Y-76530000D03*
%TO.P,SW1,3*%
X155845000Y-78435000D03*
%TO.P,SW1,4*%
X157750000Y-78435000D03*
%TO.P,SW1,5*%
X157750000Y-76530000D03*
%TO.P,SW1,6*%
X157750000Y-74625000D03*
%TD*%
D10*
%TO.P,SW1,1*%
%TO.N,N/C*%
X172990000Y-89865000D03*
D11*
%TO.P,SW1,2*%
X172990000Y-91770000D03*
%TO.P,SW1,3*%
X172990000Y-93675000D03*
%TO.P,SW1,4*%
X174895000Y-93675000D03*
%TO.P,SW1,5*%
X174895000Y-91770000D03*
%TO.P,SW1,6*%
X174895000Y-89865000D03*
%TD*%
D10*
%TO.P,SW1,1*%
%TO.N,N/C*%
X144415000Y-44145000D03*
D11*
%TO.P,SW1,2*%
X144415000Y-46050000D03*
%TO.P,SW1,3*%
X144415000Y-47955000D03*
%TO.P,SW1,4*%
X146320000Y-47955000D03*
%TO.P,SW1,5*%
X146320000Y-46050000D03*
%TO.P,SW1,6*%
X146320000Y-44145000D03*
%TD*%
D10*
%TO.P,SW1,1*%
%TO.N,N/C*%
X178705000Y-82245000D03*
D11*
%TO.P,SW1,2*%
X178705000Y-84150000D03*
%TO.P,SW1,3*%
X178705000Y-86055000D03*
%TO.P,SW1,4*%
X180610000Y-86055000D03*
%TO.P,SW1,5*%
X180610000Y-84150000D03*
%TO.P,SW1,6*%
X180610000Y-82245000D03*
%TD*%
D10*
%TO.P,SW1,1*%
%TO.N,N/C*%
X132985000Y-97485000D03*
D11*
%TO.P,SW1,2*%
X132985000Y-99390000D03*
%TO.P,SW1,3*%
X132985000Y-101295000D03*
%TO.P,SW1,4*%
X134890000Y-101295000D03*
%TO.P,SW1,5*%
X134890000Y-99390000D03*
%TO.P,SW1,6*%
X134890000Y-97485000D03*
%TD*%
D10*
%TO.P,SW1,1*%
%TO.N,N/C*%
X155845000Y-51765000D03*
D11*
%TO.P,SW1,2*%
X155845000Y-53670000D03*
%TO.P,SW1,3*%
X155845000Y-55575000D03*
%TO.P,SW1,4*%
X157750000Y-55575000D03*
%TO.P,SW1,5*%
X157750000Y-53670000D03*
%TO.P,SW1,6*%
X157750000Y-51765000D03*
%TD*%
D10*
%TO.P,SW1,1*%
%TO.N,N/C*%
X155845000Y-82245000D03*
D11*
%TO.P,SW1,2*%
X155845000Y-84150000D03*
%TO.P,SW1,3*%
X155845000Y-86055000D03*
%TO.P,SW1,4*%
X157750000Y-86055000D03*
%TO.P,SW1,5*%
X157750000Y-84150000D03*
%TO.P,SW1,6*%
X157750000Y-82245000D03*
%TD*%
D10*
%TO.P,SW1,1*%
%TO.N,N/C*%
X115840000Y-36525000D03*
D11*
%TO.P,SW1,2*%
X115840000Y-38430000D03*
%TO.P,SW1,3*%
X115840000Y-40335000D03*
%TO.P,SW1,4*%
X117745000Y-40335000D03*
%TO.P,SW1,5*%
X117745000Y-38430000D03*
%TO.P,SW1,6*%
X117745000Y-36525000D03*
%TD*%
D10*
%TO.P,SW1,1*%
%TO.N,N/C*%
X155845000Y-59385000D03*
D11*
%TO.P,SW1,2*%
X155845000Y-61290000D03*
%TO.P,SW1,3*%
X155845000Y-63195000D03*
%TO.P,SW1,4*%
X157750000Y-63195000D03*
%TO.P,SW1,5*%
X157750000Y-61290000D03*
%TO.P,SW1,6*%
X157750000Y-59385000D03*
%TD*%
D10*
%TO.P,SW1,1*%
%TO.N,N/C*%
X172990000Y-82245000D03*
D11*
%TO.P,SW1,2*%
X172990000Y-84150000D03*
%TO.P,SW1,3*%
X172990000Y-86055000D03*
%TO.P,SW1,4*%
X174895000Y-86055000D03*
%TO.P,SW1,5*%
X174895000Y-84150000D03*
%TO.P,SW1,6*%
X174895000Y-82245000D03*
%TD*%
D10*
%TO.P,SW1,1*%
%TO.N,N/C*%
X167275000Y-74625000D03*
D11*
%TO.P,SW1,2*%
X167275000Y-76530000D03*
%TO.P,SW1,3*%
X167275000Y-78435000D03*
%TO.P,SW1,4*%
X169180000Y-78435000D03*
%TO.P,SW1,5*%
X169180000Y-76530000D03*
%TO.P,SW1,6*%
X169180000Y-74625000D03*
%TD*%
D10*
%TO.P,SW1,1*%
%TO.N,N/C*%
X167275000Y-105105000D03*
D11*
%TO.P,SW1,2*%
X167275000Y-107010000D03*
%TO.P,SW1,3*%
X167275000Y-108915000D03*
%TO.P,SW1,4*%
X169180000Y-108915000D03*
%TO.P,SW1,5*%
X169180000Y-107010000D03*
%TO.P,SW1,6*%
X169180000Y-105105000D03*
%TD*%
D10*
%TO.P,SW1,1*%
%TO.N,N/C*%
X127270000Y-89865000D03*
D11*
%TO.P,SW1,2*%
X127270000Y-91770000D03*
%TO.P,SW1,3*%
X127270000Y-93675000D03*
%TO.P,SW1,4*%
X129175000Y-93675000D03*
%TO.P,SW1,5*%
X129175000Y-91770000D03*
%TO.P,SW1,6*%
X129175000Y-89865000D03*
%TD*%
D10*
%TO.P,SW1,1*%
%TO.N,N/C*%
X115840000Y-89865000D03*
D11*
%TO.P,SW1,2*%
X115840000Y-91770000D03*
%TO.P,SW1,3*%
X115840000Y-93675000D03*
%TO.P,SW1,4*%
X117745000Y-93675000D03*
%TO.P,SW1,5*%
X117745000Y-91770000D03*
%TO.P,SW1,6*%
X117745000Y-89865000D03*
%TD*%
D10*
%TO.P,SW1,1*%
%TO.N,N/C*%
X138700000Y-36525000D03*
D11*
%TO.P,SW1,2*%
X138700000Y-38430000D03*
%TO.P,SW1,3*%
X138700000Y-40335000D03*
%TO.P,SW1,4*%
X140605000Y-40335000D03*
%TO.P,SW1,5*%
X140605000Y-38430000D03*
%TO.P,SW1,6*%
X140605000Y-36525000D03*
%TD*%
D10*
%TO.P,SW1,1*%
%TO.N,N/C*%
X150130000Y-28905000D03*
D11*
%TO.P,SW1,2*%
X150130000Y-30810000D03*
%TO.P,SW1,3*%
X150130000Y-32715000D03*
%TO.P,SW1,4*%
X152035000Y-32715000D03*
%TO.P,SW1,5*%
X152035000Y-30810000D03*
%TO.P,SW1,6*%
X152035000Y-28905000D03*
%TD*%
D10*
%TO.P,SW1,1*%
%TO.N,N/C*%
X144415000Y-82245000D03*
D11*
%TO.P,SW1,2*%
X144415000Y-84150000D03*
%TO.P,SW1,3*%
X144415000Y-86055000D03*
%TO.P,SW1,4*%
X146320000Y-86055000D03*
%TO.P,SW1,5*%
X146320000Y-84150000D03*
%TO.P,SW1,6*%
X146320000Y-82245000D03*
%TD*%
D10*
%TO.P,SW1,1*%
%TO.N,N/C*%
X127270000Y-105105000D03*
D11*
%TO.P,SW1,2*%
X127270000Y-107010000D03*
%TO.P,SW1,3*%
X127270000Y-108915000D03*
%TO.P,SW1,4*%
X129175000Y-108915000D03*
%TO.P,SW1,5*%
X129175000Y-107010000D03*
%TO.P,SW1,6*%
X129175000Y-105105000D03*
%TD*%
D10*
%TO.P,SW1,1*%
%TO.N,N/C*%
X172990000Y-28905000D03*
D11*
%TO.P,SW1,2*%
X172990000Y-30810000D03*
%TO.P,SW1,3*%
X172990000Y-32715000D03*
%TO.P,SW1,4*%
X174895000Y-32715000D03*
%TO.P,SW1,5*%
X174895000Y-30810000D03*
%TO.P,SW1,6*%
X174895000Y-28905000D03*
%TD*%
D10*
%TO.P,SW1,1*%
%TO.N,N/C*%
X121555000Y-51765000D03*
D11*
%TO.P,SW1,2*%
X121555000Y-53670000D03*
%TO.P,SW1,3*%
X121555000Y-55575000D03*
%TO.P,SW1,4*%
X123460000Y-55575000D03*
%TO.P,SW1,5*%
X123460000Y-53670000D03*
%TO.P,SW1,6*%
X123460000Y-51765000D03*
%TD*%
D10*
%TO.P,SW1,1*%
%TO.N,N/C*%
X167275000Y-67005000D03*
D11*
%TO.P,SW1,2*%
X167275000Y-68910000D03*
%TO.P,SW1,3*%
X167275000Y-70815000D03*
%TO.P,SW1,4*%
X169180000Y-70815000D03*
%TO.P,SW1,5*%
X169180000Y-68910000D03*
%TO.P,SW1,6*%
X169180000Y-67005000D03*
%TD*%
D10*
%TO.P,SW1,1*%
%TO.N,N/C*%
X127270000Y-67005000D03*
D11*
%TO.P,SW1,2*%
X127270000Y-68910000D03*
%TO.P,SW1,3*%
X127270000Y-70815000D03*
%TO.P,SW1,4*%
X129175000Y-70815000D03*
%TO.P,SW1,5*%
X129175000Y-68910000D03*
%TO.P,SW1,6*%
X129175000Y-67005000D03*
%TD*%
D10*
%TO.P,SW1,1*%
%TO.N,N/C*%
X172990000Y-67005000D03*
D11*
%TO.P,SW1,2*%
X172990000Y-68910000D03*
%TO.P,SW1,3*%
X172990000Y-70815000D03*
%TO.P,SW1,4*%
X174895000Y-70815000D03*
%TO.P,SW1,5*%
X174895000Y-68910000D03*
%TO.P,SW1,6*%
X174895000Y-67005000D03*
%TD*%
D10*
%TO.P,SW1,1*%
%TO.N,N/C*%
X144415000Y-36525000D03*
D11*
%TO.P,SW1,2*%
X144415000Y-38430000D03*
%TO.P,SW1,3*%
X144415000Y-40335000D03*
%TO.P,SW1,4*%
X146320000Y-40335000D03*
%TO.P,SW1,5*%
X146320000Y-38430000D03*
%TO.P,SW1,6*%
X146320000Y-36525000D03*
%TD*%
D10*
%TO.P,SW1,1*%
%TO.N,N/C*%
X132985000Y-67005000D03*
D11*
%TO.P,SW1,2*%
X132985000Y-68910000D03*
%TO.P,SW1,3*%
X132985000Y-70815000D03*
%TO.P,SW1,4*%
X134890000Y-70815000D03*
%TO.P,SW1,5*%
X134890000Y-68910000D03*
%TO.P,SW1,6*%
X134890000Y-67005000D03*
%TD*%
D10*
%TO.P,SW1,1*%
%TO.N,N/C*%
X144415000Y-67005000D03*
D11*
%TO.P,SW1,2*%
X144415000Y-68910000D03*
%TO.P,SW1,3*%
X144415000Y-70815000D03*
%TO.P,SW1,4*%
X146320000Y-70815000D03*
%TO.P,SW1,5*%
X146320000Y-68910000D03*
%TO.P,SW1,6*%
X146320000Y-67005000D03*
%TD*%
D10*
%TO.P,SW1,1*%
%TO.N,N/C*%
X115840000Y-112725000D03*
D11*
%TO.P,SW1,2*%
X115840000Y-114630000D03*
%TO.P,SW1,3*%
X115840000Y-116535000D03*
%TO.P,SW1,4*%
X117745000Y-116535000D03*
%TO.P,SW1,5*%
X117745000Y-114630000D03*
%TO.P,SW1,6*%
X117745000Y-112725000D03*
%TD*%
D10*
%TO.P,SW1,1*%
%TO.N,N/C*%
X132985000Y-112725000D03*
D11*
%TO.P,SW1,2*%
X132985000Y-114630000D03*
%TO.P,SW1,3*%
X132985000Y-116535000D03*
%TO.P,SW1,4*%
X134890000Y-116535000D03*
%TO.P,SW1,5*%
X134890000Y-114630000D03*
%TO.P,SW1,6*%
X134890000Y-112725000D03*
%TD*%
D10*
%TO.P,SW1,1*%
%TO.N,N/C*%
X161560000Y-67005000D03*
D11*
%TO.P,SW1,2*%
X161560000Y-68910000D03*
%TO.P,SW1,3*%
X161560000Y-70815000D03*
%TO.P,SW1,4*%
X163465000Y-70815000D03*
%TO.P,SW1,5*%
X163465000Y-68910000D03*
%TO.P,SW1,6*%
X163465000Y-67005000D03*
%TD*%
D10*
%TO.P,SW1,1*%
%TO.N,N/C*%
X150130000Y-44145000D03*
D11*
%TO.P,SW1,2*%
X150130000Y-46050000D03*
%TO.P,SW1,3*%
X150130000Y-47955000D03*
%TO.P,SW1,4*%
X152035000Y-47955000D03*
%TO.P,SW1,5*%
X152035000Y-46050000D03*
%TO.P,SW1,6*%
X152035000Y-44145000D03*
%TD*%
D10*
%TO.P,SW1,1*%
%TO.N,N/C*%
X167275000Y-59385000D03*
D11*
%TO.P,SW1,2*%
X167275000Y-61290000D03*
%TO.P,SW1,3*%
X167275000Y-63195000D03*
%TO.P,SW1,4*%
X169180000Y-63195000D03*
%TO.P,SW1,5*%
X169180000Y-61290000D03*
%TO.P,SW1,6*%
X169180000Y-59385000D03*
%TD*%
D10*
%TO.P,SW1,1*%
%TO.N,N/C*%
X138700000Y-51765000D03*
D11*
%TO.P,SW1,2*%
X138700000Y-53670000D03*
%TO.P,SW1,3*%
X138700000Y-55575000D03*
%TO.P,SW1,4*%
X140605000Y-55575000D03*
%TO.P,SW1,5*%
X140605000Y-53670000D03*
%TO.P,SW1,6*%
X140605000Y-51765000D03*
%TD*%
D10*
%TO.P,SW1,1*%
%TO.N,N/C*%
X144415000Y-112725000D03*
D11*
%TO.P,SW1,2*%
X144415000Y-114630000D03*
%TO.P,SW1,3*%
X144415000Y-116535000D03*
%TO.P,SW1,4*%
X146320000Y-116535000D03*
%TO.P,SW1,5*%
X146320000Y-114630000D03*
%TO.P,SW1,6*%
X146320000Y-112725000D03*
%TD*%
D10*
%TO.P,SW1,1*%
%TO.N,N/C*%
X172990000Y-51765000D03*
D11*
%TO.P,SW1,2*%
X172990000Y-53670000D03*
%TO.P,SW1,3*%
X172990000Y-55575000D03*
%TO.P,SW1,4*%
X174895000Y-55575000D03*
%TO.P,SW1,5*%
X174895000Y-53670000D03*
%TO.P,SW1,6*%
X174895000Y-51765000D03*
%TD*%
D10*
%TO.P,SW1,1*%
%TO.N,N/C*%
X150130000Y-97485000D03*
D11*
%TO.P,SW1,2*%
X150130000Y-99390000D03*
%TO.P,SW1,3*%
X150130000Y-101295000D03*
%TO.P,SW1,4*%
X152035000Y-101295000D03*
%TO.P,SW1,5*%
X152035000Y-99390000D03*
%TO.P,SW1,6*%
X152035000Y-97485000D03*
%TD*%
D10*
%TO.P,SW1,1*%
%TO.N,N/C*%
X127270000Y-36525000D03*
D11*
%TO.P,SW1,2*%
X127270000Y-38430000D03*
%TO.P,SW1,3*%
X127270000Y-40335000D03*
%TO.P,SW1,4*%
X129175000Y-40335000D03*
%TO.P,SW1,5*%
X129175000Y-38430000D03*
%TO.P,SW1,6*%
X129175000Y-36525000D03*
%TD*%
D10*
%TO.P,SW1,1*%
%TO.N,N/C*%
X144415000Y-74625000D03*
D11*
%TO.P,SW1,2*%
X144415000Y-76530000D03*
%TO.P,SW1,3*%
X144415000Y-78435000D03*
%TO.P,SW1,4*%
X146320000Y-78435000D03*
%TO.P,SW1,5*%
X146320000Y-76530000D03*
%TO.P,SW1,6*%
X146320000Y-74625000D03*
%TD*%
D10*
%TO.P,SW1,1*%
%TO.N,N/C*%
X155845000Y-28905000D03*
D11*
%TO.P,SW1,2*%
X155845000Y-30810000D03*
%TO.P,SW1,3*%
X155845000Y-32715000D03*
%TO.P,SW1,4*%
X157750000Y-32715000D03*
%TO.P,SW1,5*%
X157750000Y-30810000D03*
%TO.P,SW1,6*%
X157750000Y-28905000D03*
%TD*%
D10*
%TO.P,SW1,1*%
%TO.N,N/C*%
X167275000Y-28905000D03*
D11*
%TO.P,SW1,2*%
X167275000Y-30810000D03*
%TO.P,SW1,3*%
X167275000Y-32715000D03*
%TO.P,SW1,4*%
X169180000Y-32715000D03*
%TO.P,SW1,5*%
X169180000Y-30810000D03*
%TO.P,SW1,6*%
X169180000Y-28905000D03*
%TD*%
D10*
%TO.P,SW1,1*%
%TO.N,N/C*%
X172990000Y-112725000D03*
D11*
%TO.P,SW1,2*%
X172990000Y-114630000D03*
%TO.P,SW1,3*%
X172990000Y-116535000D03*
%TO.P,SW1,4*%
X174895000Y-116535000D03*
%TO.P,SW1,5*%
X174895000Y-114630000D03*
%TO.P,SW1,6*%
X174895000Y-112725000D03*
%TD*%
D10*
%TO.P,SW1,1*%
%TO.N,N/C*%
X115840000Y-74625000D03*
D11*
%TO.P,SW1,2*%
X115840000Y-76530000D03*
%TO.P,SW1,3*%
X115840000Y-78435000D03*
%TO.P,SW1,4*%
X117745000Y-78435000D03*
%TO.P,SW1,5*%
X117745000Y-76530000D03*
%TO.P,SW1,6*%
X117745000Y-74625000D03*
%TD*%
D10*
%TO.P,SW1,1*%
%TO.N,N/C*%
X121555000Y-97485000D03*
D11*
%TO.P,SW1,2*%
X121555000Y-99390000D03*
%TO.P,SW1,3*%
X121555000Y-101295000D03*
%TO.P,SW1,4*%
X123460000Y-101295000D03*
%TO.P,SW1,5*%
X123460000Y-99390000D03*
%TO.P,SW1,6*%
X123460000Y-97485000D03*
%TD*%
D10*
%TO.P,SW1,1*%
%TO.N,N/C*%
X132985000Y-74625000D03*
D11*
%TO.P,SW1,2*%
X132985000Y-76530000D03*
%TO.P,SW1,3*%
X132985000Y-78435000D03*
%TO.P,SW1,4*%
X134890000Y-78435000D03*
%TO.P,SW1,5*%
X134890000Y-76530000D03*
%TO.P,SW1,6*%
X134890000Y-74625000D03*
%TD*%
D10*
%TO.P,SW1,1*%
%TO.N,N/C*%
X132985000Y-51765000D03*
D11*
%TO.P,SW1,2*%
X132985000Y-53670000D03*
%TO.P,SW1,3*%
X132985000Y-55575000D03*
%TO.P,SW1,4*%
X134890000Y-55575000D03*
%TO.P,SW1,5*%
X134890000Y-53670000D03*
%TO.P,SW1,6*%
X134890000Y-51765000D03*
%TD*%
D10*
%TO.P,SW1,1*%
%TO.N,N/C*%
X132985000Y-89865000D03*
D11*
%TO.P,SW1,2*%
X132985000Y-91770000D03*
%TO.P,SW1,3*%
X132985000Y-93675000D03*
%TO.P,SW1,4*%
X134890000Y-93675000D03*
%TO.P,SW1,5*%
X134890000Y-91770000D03*
%TO.P,SW1,6*%
X134890000Y-89865000D03*
%TD*%
D10*
%TO.P,SW1,1*%
%TO.N,N/C*%
X167275000Y-97485000D03*
D11*
%TO.P,SW1,2*%
X167275000Y-99390000D03*
%TO.P,SW1,3*%
X167275000Y-101295000D03*
%TO.P,SW1,4*%
X169180000Y-101295000D03*
%TO.P,SW1,5*%
X169180000Y-99390000D03*
%TO.P,SW1,6*%
X169180000Y-97485000D03*
%TD*%
D10*
%TO.P,SW1,1*%
%TO.N,N/C*%
X167275000Y-82245000D03*
D11*
%TO.P,SW1,2*%
X167275000Y-84150000D03*
%TO.P,SW1,3*%
X167275000Y-86055000D03*
%TO.P,SW1,4*%
X169180000Y-86055000D03*
%TO.P,SW1,5*%
X169180000Y-84150000D03*
%TO.P,SW1,6*%
X169180000Y-82245000D03*
%TD*%
D10*
%TO.P,SW1,1*%
%TO.N,N/C*%
X144415000Y-51765000D03*
D11*
%TO.P,SW1,2*%
X144415000Y-53670000D03*
%TO.P,SW1,3*%
X144415000Y-55575000D03*
%TO.P,SW1,4*%
X146320000Y-55575000D03*
%TO.P,SW1,5*%
X146320000Y-53670000D03*
%TO.P,SW1,6*%
X146320000Y-51765000D03*
%TD*%
D10*
%TO.P,SW1,1*%
%TO.N,N/C*%
X115840000Y-51765000D03*
D11*
%TO.P,SW1,2*%
X115840000Y-53670000D03*
%TO.P,SW1,3*%
X115840000Y-55575000D03*
%TO.P,SW1,4*%
X117745000Y-55575000D03*
%TO.P,SW1,5*%
X117745000Y-53670000D03*
%TO.P,SW1,6*%
X117745000Y-51765000D03*
%TD*%
D10*
%TO.P,SW1,1*%
%TO.N,N/C*%
X121555000Y-36525000D03*
D11*
%TO.P,SW1,2*%
X121555000Y-38430000D03*
%TO.P,SW1,3*%
X121555000Y-40335000D03*
%TO.P,SW1,4*%
X123460000Y-40335000D03*
%TO.P,SW1,5*%
X123460000Y-38430000D03*
%TO.P,SW1,6*%
X123460000Y-36525000D03*
%TD*%
D10*
%TO.P,SW1,1*%
%TO.N,N/C*%
X178705000Y-89865000D03*
D11*
%TO.P,SW1,2*%
X178705000Y-91770000D03*
%TO.P,SW1,3*%
X178705000Y-93675000D03*
%TO.P,SW1,4*%
X180610000Y-93675000D03*
%TO.P,SW1,5*%
X180610000Y-91770000D03*
%TO.P,SW1,6*%
X180610000Y-89865000D03*
%TD*%
D10*
%TO.P,SW1,1*%
%TO.N,N/C*%
X132985000Y-44145000D03*
D11*
%TO.P,SW1,2*%
X132985000Y-46050000D03*
%TO.P,SW1,3*%
X132985000Y-47955000D03*
%TO.P,SW1,4*%
X134890000Y-47955000D03*
%TO.P,SW1,5*%
X134890000Y-46050000D03*
%TO.P,SW1,6*%
X134890000Y-44145000D03*
%TD*%
D10*
%TO.P,SW1,1*%
%TO.N,N/C*%
X178705000Y-74625000D03*
D11*
%TO.P,SW1,2*%
X178705000Y-76530000D03*
%TO.P,SW1,3*%
X178705000Y-78435000D03*
%TO.P,SW1,4*%
X180610000Y-78435000D03*
%TO.P,SW1,5*%
X180610000Y-76530000D03*
%TO.P,SW1,6*%
X180610000Y-74625000D03*
%TD*%
D10*
%TO.P,SW1,1*%
%TO.N,N/C*%
X115840000Y-97485000D03*
D11*
%TO.P,SW1,2*%
X115840000Y-99390000D03*
%TO.P,SW1,3*%
X115840000Y-101295000D03*
%TO.P,SW1,4*%
X117745000Y-101295000D03*
%TO.P,SW1,5*%
X117745000Y-99390000D03*
%TO.P,SW1,6*%
X117745000Y-97485000D03*
%TD*%
D10*
%TO.P,SW1,1*%
%TO.N,N/C*%
X115840000Y-105105000D03*
D11*
%TO.P,SW1,2*%
X115840000Y-107010000D03*
%TO.P,SW1,3*%
X115840000Y-108915000D03*
%TO.P,SW1,4*%
X117745000Y-108915000D03*
%TO.P,SW1,5*%
X117745000Y-107010000D03*
%TO.P,SW1,6*%
X117745000Y-105105000D03*
%TD*%
D10*
%TO.P,SW1,1*%
%TO.N,N/C*%
X161560000Y-105105000D03*
D11*
%TO.P,SW1,2*%
X161560000Y-107010000D03*
%TO.P,SW1,3*%
X161560000Y-108915000D03*
%TO.P,SW1,4*%
X163465000Y-108915000D03*
%TO.P,SW1,5*%
X163465000Y-107010000D03*
%TO.P,SW1,6*%
X163465000Y-105105000D03*
%TD*%
D10*
%TO.P,SW1,1*%
%TO.N,N/C*%
X161560000Y-97485000D03*
D11*
%TO.P,SW1,2*%
X161560000Y-99390000D03*
%TO.P,SW1,3*%
X161560000Y-101295000D03*
%TO.P,SW1,4*%
X163465000Y-101295000D03*
%TO.P,SW1,5*%
X163465000Y-99390000D03*
%TO.P,SW1,6*%
X163465000Y-97485000D03*
%TD*%
D10*
%TO.P,SW1,1*%
%TO.N,N/C*%
X161560000Y-112725000D03*
D11*
%TO.P,SW1,2*%
X161560000Y-114630000D03*
%TO.P,SW1,3*%
X161560000Y-116535000D03*
%TO.P,SW1,4*%
X163465000Y-116535000D03*
%TO.P,SW1,5*%
X163465000Y-114630000D03*
%TO.P,SW1,6*%
X163465000Y-112725000D03*
%TD*%
D10*
%TO.P,SW1,1*%
%TO.N,N/C*%
X138700000Y-59385000D03*
D11*
%TO.P,SW1,2*%
X138700000Y-61290000D03*
%TO.P,SW1,3*%
X138700000Y-63195000D03*
%TO.P,SW1,4*%
X140605000Y-63195000D03*
%TO.P,SW1,5*%
X140605000Y-61290000D03*
%TO.P,SW1,6*%
X140605000Y-59385000D03*
%TD*%
D10*
%TO.P,SW1,1*%
%TO.N,N/C*%
X138700000Y-44145000D03*
D11*
%TO.P,SW1,2*%
X138700000Y-46050000D03*
%TO.P,SW1,3*%
X138700000Y-47955000D03*
%TO.P,SW1,4*%
X140605000Y-47955000D03*
%TO.P,SW1,5*%
X140605000Y-46050000D03*
%TO.P,SW1,6*%
X140605000Y-44145000D03*
%TD*%
D10*
%TO.P,SW1,1*%
%TO.N,N/C*%
X161560000Y-51765000D03*
D11*
%TO.P,SW1,2*%
X161560000Y-53670000D03*
%TO.P,SW1,3*%
X161560000Y-55575000D03*
%TO.P,SW1,4*%
X163465000Y-55575000D03*
%TO.P,SW1,5*%
X163465000Y-53670000D03*
%TO.P,SW1,6*%
X163465000Y-51765000D03*
%TD*%
D10*
%TO.P,SW1,1*%
%TO.N,N/C*%
X138700000Y-97485000D03*
D11*
%TO.P,SW1,2*%
X138700000Y-99390000D03*
%TO.P,SW1,3*%
X138700000Y-101295000D03*
%TO.P,SW1,4*%
X140605000Y-101295000D03*
%TO.P,SW1,5*%
X140605000Y-99390000D03*
%TO.P,SW1,6*%
X140605000Y-97485000D03*
%TD*%
D10*
%TO.P,SW1,1*%
%TO.N,N/C*%
X138700000Y-67005000D03*
D11*
%TO.P,SW1,2*%
X138700000Y-68910000D03*
%TO.P,SW1,3*%
X138700000Y-70815000D03*
%TO.P,SW1,4*%
X140605000Y-70815000D03*
%TO.P,SW1,5*%
X140605000Y-68910000D03*
%TO.P,SW1,6*%
X140605000Y-67005000D03*
%TD*%
D10*
%TO.P,SW1,1*%
%TO.N,N/C*%
X161560000Y-36525000D03*
D11*
%TO.P,SW1,2*%
X161560000Y-38430000D03*
%TO.P,SW1,3*%
X161560000Y-40335000D03*
%TO.P,SW1,4*%
X163465000Y-40335000D03*
%TO.P,SW1,5*%
X163465000Y-38430000D03*
%TO.P,SW1,6*%
X163465000Y-36525000D03*
%TD*%
D10*
%TO.P,SW1,1*%
%TO.N,N/C*%
X161560000Y-89865000D03*
D11*
%TO.P,SW1,2*%
X161560000Y-91770000D03*
%TO.P,SW1,3*%
X161560000Y-93675000D03*
%TO.P,SW1,4*%
X163465000Y-93675000D03*
%TO.P,SW1,5*%
X163465000Y-91770000D03*
%TO.P,SW1,6*%
X163465000Y-89865000D03*
%TD*%
D10*
%TO.P,SW1,1*%
%TO.N,N/C*%
X161560000Y-82245000D03*
D11*
%TO.P,SW1,2*%
X161560000Y-84150000D03*
%TO.P,SW1,3*%
X161560000Y-86055000D03*
%TO.P,SW1,4*%
X163465000Y-86055000D03*
%TO.P,SW1,5*%
X163465000Y-84150000D03*
%TO.P,SW1,6*%
X163465000Y-82245000D03*
%TD*%
D10*
%TO.P,SW1,1*%
%TO.N,N/C*%
X127270000Y-44145000D03*
D11*
%TO.P,SW1,2*%
X127270000Y-46050000D03*
%TO.P,SW1,3*%
X127270000Y-47955000D03*
%TO.P,SW1,4*%
X129175000Y-47955000D03*
%TO.P,SW1,5*%
X129175000Y-46050000D03*
%TO.P,SW1,6*%
X129175000Y-44145000D03*
%TD*%
D10*
%TO.P,SW1,1*%
%TO.N,N/C*%
X132985000Y-105105000D03*
D11*
%TO.P,SW1,2*%
X132985000Y-107010000D03*
%TO.P,SW1,3*%
X132985000Y-108915000D03*
%TO.P,SW1,4*%
X134890000Y-108915000D03*
%TO.P,SW1,5*%
X134890000Y-107010000D03*
%TO.P,SW1,6*%
X134890000Y-105105000D03*
%TD*%
D10*
%TO.P,SW1,1*%
%TO.N,N/C*%
X127270000Y-28905000D03*
D11*
%TO.P,SW1,2*%
X127270000Y-30810000D03*
%TO.P,SW1,3*%
X127270000Y-32715000D03*
%TO.P,SW1,4*%
X129175000Y-32715000D03*
%TO.P,SW1,5*%
X129175000Y-30810000D03*
%TO.P,SW1,6*%
X129175000Y-28905000D03*
%TD*%
D10*
%TO.P,SW1,1*%
%TO.N,N/C*%
X132985000Y-82245000D03*
D11*
%TO.P,SW1,2*%
X132985000Y-84150000D03*
%TO.P,SW1,3*%
X132985000Y-86055000D03*
%TO.P,SW1,4*%
X134890000Y-86055000D03*
%TO.P,SW1,5*%
X134890000Y-84150000D03*
%TO.P,SW1,6*%
X134890000Y-82245000D03*
%TD*%
D10*
%TO.P,SW1,1*%
%TO.N,N/C*%
X138700000Y-74625000D03*
D11*
%TO.P,SW1,2*%
X138700000Y-76530000D03*
%TO.P,SW1,3*%
X138700000Y-78435000D03*
%TO.P,SW1,4*%
X140605000Y-78435000D03*
%TO.P,SW1,5*%
X140605000Y-76530000D03*
%TO.P,SW1,6*%
X140605000Y-74625000D03*
%TD*%
D10*
%TO.P,SW1,1*%
%TO.N,N/C*%
X155845000Y-97485000D03*
D11*
%TO.P,SW1,2*%
X155845000Y-99390000D03*
%TO.P,SW1,3*%
X155845000Y-101295000D03*
%TO.P,SW1,4*%
X157750000Y-101295000D03*
%TO.P,SW1,5*%
X157750000Y-99390000D03*
%TO.P,SW1,6*%
X157750000Y-97485000D03*
%TD*%
D10*
%TO.P,SW1,1*%
%TO.N,N/C*%
X155845000Y-67005000D03*
D11*
%TO.P,SW1,2*%
X155845000Y-68910000D03*
%TO.P,SW1,3*%
X155845000Y-70815000D03*
%TO.P,SW1,4*%
X157750000Y-70815000D03*
%TO.P,SW1,5*%
X157750000Y-68910000D03*
%TO.P,SW1,6*%
X157750000Y-67005000D03*
%TD*%
D10*
%TO.P,SW1,1*%
%TO.N,N/C*%
X138700000Y-112725000D03*
D11*
%TO.P,SW1,2*%
X138700000Y-114630000D03*
%TO.P,SW1,3*%
X138700000Y-116535000D03*
%TO.P,SW1,4*%
X140605000Y-116535000D03*
%TO.P,SW1,5*%
X140605000Y-114630000D03*
%TO.P,SW1,6*%
X140605000Y-112725000D03*
%TD*%
D10*
%TO.P,SW1,1*%
%TO.N,N/C*%
X161560000Y-44145000D03*
D11*
%TO.P,SW1,2*%
X161560000Y-46050000D03*
%TO.P,SW1,3*%
X161560000Y-47955000D03*
%TO.P,SW1,4*%
X163465000Y-47955000D03*
%TO.P,SW1,5*%
X163465000Y-46050000D03*
%TO.P,SW1,6*%
X163465000Y-44145000D03*
%TD*%
D10*
%TO.P,SW1,1*%
%TO.N,N/C*%
X121555000Y-82245000D03*
D11*
%TO.P,SW1,2*%
X121555000Y-84150000D03*
%TO.P,SW1,3*%
X121555000Y-86055000D03*
%TO.P,SW1,4*%
X123460000Y-86055000D03*
%TO.P,SW1,5*%
X123460000Y-84150000D03*
%TO.P,SW1,6*%
X123460000Y-82245000D03*
%TD*%
D10*
%TO.P,SW1,1*%
%TO.N,N/C*%
X127270000Y-82245000D03*
D11*
%TO.P,SW1,2*%
X127270000Y-84150000D03*
%TO.P,SW1,3*%
X127270000Y-86055000D03*
%TO.P,SW1,4*%
X129175000Y-86055000D03*
%TO.P,SW1,5*%
X129175000Y-84150000D03*
%TO.P,SW1,6*%
X129175000Y-82245000D03*
%TD*%
D10*
%TO.P,SW1,1*%
%TO.N,N/C*%
X178705000Y-97485000D03*
D11*
%TO.P,SW1,2*%
X178705000Y-99390000D03*
%TO.P,SW1,3*%
X178705000Y-101295000D03*
%TO.P,SW1,4*%
X180610000Y-101295000D03*
%TO.P,SW1,5*%
X180610000Y-99390000D03*
%TO.P,SW1,6*%
X180610000Y-97485000D03*
%TD*%
D10*
%TO.P,SW1,1*%
%TO.N,N/C*%
X167275000Y-112725000D03*
D11*
%TO.P,SW1,2*%
X167275000Y-114630000D03*
%TO.P,SW1,3*%
X167275000Y-116535000D03*
%TO.P,SW1,4*%
X169180000Y-116535000D03*
%TO.P,SW1,5*%
X169180000Y-114630000D03*
%TO.P,SW1,6*%
X169180000Y-112725000D03*
%TD*%
D10*
%TO.P,SW1,1*%
%TO.N,N/C*%
X121555000Y-67005000D03*
D11*
%TO.P,SW1,2*%
X121555000Y-68910000D03*
%TO.P,SW1,3*%
X121555000Y-70815000D03*
%TO.P,SW1,4*%
X123460000Y-70815000D03*
%TO.P,SW1,5*%
X123460000Y-68910000D03*
%TO.P,SW1,6*%
X123460000Y-67005000D03*
%TD*%
D10*
%TO.P,SW1,1*%
%TO.N,N/C*%
X115840000Y-28905000D03*
D11*
%TO.P,SW1,2*%
X115840000Y-30810000D03*
%TO.P,SW1,3*%
X115840000Y-32715000D03*
%TO.P,SW1,4*%
X117745000Y-32715000D03*
%TO.P,SW1,5*%
X117745000Y-30810000D03*
%TO.P,SW1,6*%
X117745000Y-28905000D03*
%TD*%
D10*
%TO.P,SW1,1*%
%TO.N,N/C*%
X150130000Y-36525000D03*
D11*
%TO.P,SW1,2*%
X150130000Y-38430000D03*
%TO.P,SW1,3*%
X150130000Y-40335000D03*
%TO.P,SW1,4*%
X152035000Y-40335000D03*
%TO.P,SW1,5*%
X152035000Y-38430000D03*
%TO.P,SW1,6*%
X152035000Y-36525000D03*
%TD*%
D10*
%TO.P,SW1,1*%
%TO.N,N/C*%
X172990000Y-44145000D03*
D11*
%TO.P,SW1,2*%
X172990000Y-46050000D03*
%TO.P,SW1,3*%
X172990000Y-47955000D03*
%TO.P,SW1,4*%
X174895000Y-47955000D03*
%TO.P,SW1,5*%
X174895000Y-46050000D03*
%TO.P,SW1,6*%
X174895000Y-44145000D03*
%TD*%
D10*
%TO.P,SW1,1*%
%TO.N,N/C*%
X178705000Y-105105000D03*
D11*
%TO.P,SW1,2*%
X178705000Y-107010000D03*
%TO.P,SW1,3*%
X178705000Y-108915000D03*
%TO.P,SW1,4*%
X180610000Y-108915000D03*
%TO.P,SW1,5*%
X180610000Y-107010000D03*
%TO.P,SW1,6*%
X180610000Y-105105000D03*
%TD*%
D10*
%TO.P,SW1,1*%
%TO.N,N/C*%
X172990000Y-36525000D03*
D11*
%TO.P,SW1,2*%
X172990000Y-38430000D03*
%TO.P,SW1,3*%
X172990000Y-40335000D03*
%TO.P,SW1,4*%
X174895000Y-40335000D03*
%TO.P,SW1,5*%
X174895000Y-38430000D03*
%TO.P,SW1,6*%
X174895000Y-36525000D03*
%TD*%
D10*
%TO.P,SW1,1*%
%TO.N,N/C*%
X167275000Y-44145000D03*
D11*
%TO.P,SW1,2*%
X167275000Y-46050000D03*
%TO.P,SW1,3*%
X167275000Y-47955000D03*
%TO.P,SW1,4*%
X169180000Y-47955000D03*
%TO.P,SW1,5*%
X169180000Y-46050000D03*
%TO.P,SW1,6*%
X169180000Y-44145000D03*
%TD*%
D10*
%TO.P,SW1,1*%
%TO.N,N/C*%
X172990000Y-74625000D03*
D11*
%TO.P,SW1,2*%
X172990000Y-76530000D03*
%TO.P,SW1,3*%
X172990000Y-78435000D03*
%TO.P,SW1,4*%
X174895000Y-78435000D03*
%TO.P,SW1,5*%
X174895000Y-76530000D03*
%TO.P,SW1,6*%
X174895000Y-74625000D03*
%TD*%
D10*
%TO.P,SW1,1*%
%TO.N,N/C*%
X115840000Y-59385000D03*
D11*
%TO.P,SW1,2*%
X115840000Y-61290000D03*
%TO.P,SW1,3*%
X115840000Y-63195000D03*
%TO.P,SW1,4*%
X117745000Y-63195000D03*
%TO.P,SW1,5*%
X117745000Y-61290000D03*
%TO.P,SW1,6*%
X117745000Y-59385000D03*
%TD*%
D10*
%TO.P,SW1,1*%
%TO.N,N/C*%
X161560000Y-28905000D03*
D11*
%TO.P,SW1,2*%
X161560000Y-30810000D03*
%TO.P,SW1,3*%
X161560000Y-32715000D03*
%TO.P,SW1,4*%
X163465000Y-32715000D03*
%TO.P,SW1,5*%
X163465000Y-30810000D03*
%TO.P,SW1,6*%
X163465000Y-28905000D03*
%TD*%
D10*
%TO.P,SW1,1*%
%TO.N,N/C*%
X121555000Y-89865000D03*
D11*
%TO.P,SW1,2*%
X121555000Y-91770000D03*
%TO.P,SW1,3*%
X121555000Y-93675000D03*
%TO.P,SW1,4*%
X123460000Y-93675000D03*
%TO.P,SW1,5*%
X123460000Y-91770000D03*
%TO.P,SW1,6*%
X123460000Y-89865000D03*
%TD*%
D10*
%TO.P,SW1,1*%
%TO.N,N/C*%
X178705000Y-44145000D03*
D11*
%TO.P,SW1,2*%
X178705000Y-46050000D03*
%TO.P,SW1,3*%
X178705000Y-47955000D03*
%TO.P,SW1,4*%
X180610000Y-47955000D03*
%TO.P,SW1,5*%
X180610000Y-46050000D03*
%TO.P,SW1,6*%
X180610000Y-44145000D03*
%TD*%
D10*
%TO.P,SW1,1*%
%TO.N,N/C*%
X167275000Y-36525000D03*
D11*
%TO.P,SW1,2*%
X167275000Y-38430000D03*
%TO.P,SW1,3*%
X167275000Y-40335000D03*
%TO.P,SW1,4*%
X169180000Y-40335000D03*
%TO.P,SW1,5*%
X169180000Y-38430000D03*
%TO.P,SW1,6*%
X169180000Y-36525000D03*
%TD*%
D10*
%TO.P,SW1,1*%
%TO.N,N/C*%
X172990000Y-97485000D03*
D11*
%TO.P,SW1,2*%
X172990000Y-99390000D03*
%TO.P,SW1,3*%
X172990000Y-101295000D03*
%TO.P,SW1,4*%
X174895000Y-101295000D03*
%TO.P,SW1,5*%
X174895000Y-99390000D03*
%TO.P,SW1,6*%
X174895000Y-97485000D03*
%TD*%
D10*
%TO.P,SW1,1*%
%TO.N,N/C*%
X127270000Y-59385000D03*
D11*
%TO.P,SW1,2*%
X127270000Y-61290000D03*
%TO.P,SW1,3*%
X127270000Y-63195000D03*
%TO.P,SW1,4*%
X129175000Y-63195000D03*
%TO.P,SW1,5*%
X129175000Y-61290000D03*
%TO.P,SW1,6*%
X129175000Y-59385000D03*
%TD*%
D10*
%TO.P,SW1,1*%
%TO.N,N/C*%
X127270000Y-51765000D03*
D11*
%TO.P,SW1,2*%
X127270000Y-53670000D03*
%TO.P,SW1,3*%
X127270000Y-55575000D03*
%TO.P,SW1,4*%
X129175000Y-55575000D03*
%TO.P,SW1,5*%
X129175000Y-53670000D03*
%TO.P,SW1,6*%
X129175000Y-51765000D03*
%TD*%
D10*
%TO.P,SW1,1*%
%TO.N,N/C*%
X121555000Y-112725000D03*
D11*
%TO.P,SW1,2*%
X121555000Y-114630000D03*
%TO.P,SW1,3*%
X121555000Y-116535000D03*
%TO.P,SW1,4*%
X123460000Y-116535000D03*
%TO.P,SW1,5*%
X123460000Y-114630000D03*
%TO.P,SW1,6*%
X123460000Y-112725000D03*
%TD*%
D10*
%TO.P,SW1,1*%
%TO.N,N/C*%
X115840000Y-44145000D03*
D11*
%TO.P,SW1,2*%
X115840000Y-46050000D03*
%TO.P,SW1,3*%
X115840000Y-47955000D03*
%TO.P,SW1,4*%
X117745000Y-47955000D03*
%TO.P,SW1,5*%
X117745000Y-46050000D03*
%TO.P,SW1,6*%
X117745000Y-44145000D03*
%TD*%
D10*
%TO.P,SW1,1*%
%TO.N,N/C*%
X144415000Y-89865000D03*
D11*
%TO.P,SW1,2*%
X144415000Y-91770000D03*
%TO.P,SW1,3*%
X144415000Y-93675000D03*
%TO.P,SW1,4*%
X146320000Y-93675000D03*
%TO.P,SW1,5*%
X146320000Y-91770000D03*
%TO.P,SW1,6*%
X146320000Y-89865000D03*
%TD*%
D10*
%TO.P,SW1,1*%
%TO.N,N/C*%
X172990000Y-105105000D03*
D11*
%TO.P,SW1,2*%
X172990000Y-107010000D03*
%TO.P,SW1,3*%
X172990000Y-108915000D03*
%TO.P,SW1,4*%
X174895000Y-108915000D03*
%TO.P,SW1,5*%
X174895000Y-107010000D03*
%TO.P,SW1,6*%
X174895000Y-105105000D03*
%TD*%
D10*
%TO.P,SW1,1*%
%TO.N,N/C*%
X127270000Y-97485000D03*
D11*
%TO.P,SW1,2*%
X127270000Y-99390000D03*
%TO.P,SW1,3*%
X127270000Y-101295000D03*
%TO.P,SW1,4*%
X129175000Y-101295000D03*
%TO.P,SW1,5*%
X129175000Y-99390000D03*
%TO.P,SW1,6*%
X129175000Y-97485000D03*
%TD*%
D10*
%TO.P,SW1,1*%
%TO.N,N/C*%
X138700000Y-105105000D03*
D11*
%TO.P,SW1,2*%
X138700000Y-107010000D03*
%TO.P,SW1,3*%
X138700000Y-108915000D03*
%TO.P,SW1,4*%
X140605000Y-108915000D03*
%TO.P,SW1,5*%
X140605000Y-107010000D03*
%TO.P,SW1,6*%
X140605000Y-105105000D03*
%TD*%
D10*
%TO.P,SW1,1*%
%TO.N,N/C*%
X121555000Y-74625000D03*
D11*
%TO.P,SW1,2*%
X121555000Y-76530000D03*
%TO.P,SW1,3*%
X121555000Y-78435000D03*
%TO.P,SW1,4*%
X123460000Y-78435000D03*
%TO.P,SW1,5*%
X123460000Y-76530000D03*
%TO.P,SW1,6*%
X123460000Y-74625000D03*
%TD*%
D10*
%TO.P,SW1,1*%
%TO.N,N/C*%
X127270000Y-74625000D03*
D11*
%TO.P,SW1,2*%
X127270000Y-76530000D03*
%TO.P,SW1,3*%
X127270000Y-78435000D03*
%TO.P,SW1,4*%
X129175000Y-78435000D03*
%TO.P,SW1,5*%
X129175000Y-76530000D03*
%TO.P,SW1,6*%
X129175000Y-74625000D03*
%TD*%
D10*
%TO.P,SW1,1*%
%TO.N,N/C*%
X150130000Y-74625000D03*
D11*
%TO.P,SW1,2*%
X150130000Y-76530000D03*
%TO.P,SW1,3*%
X150130000Y-78435000D03*
%TO.P,SW1,4*%
X152035000Y-78435000D03*
%TO.P,SW1,5*%
X152035000Y-76530000D03*
%TO.P,SW1,6*%
X152035000Y-74625000D03*
%TD*%
D10*
%TO.P,SW1,1*%
%TO.N,N/C*%
X121555000Y-105105000D03*
D11*
%TO.P,SW1,2*%
X121555000Y-107010000D03*
%TO.P,SW1,3*%
X121555000Y-108915000D03*
%TO.P,SW1,4*%
X123460000Y-108915000D03*
%TO.P,SW1,5*%
X123460000Y-107010000D03*
%TO.P,SW1,6*%
X123460000Y-105105000D03*
%TD*%
D10*
%TO.P,SW1,1*%
%TO.N,N/C*%
X178705000Y-112725000D03*
D11*
%TO.P,SW1,2*%
X178705000Y-114630000D03*
%TO.P,SW1,3*%
X178705000Y-116535000D03*
%TO.P,SW1,4*%
X180610000Y-116535000D03*
%TO.P,SW1,5*%
X180610000Y-114630000D03*
%TO.P,SW1,6*%
X180610000Y-112725000D03*
%TD*%
D10*
%TO.P,SW1,1*%
%TO.N,N/C*%
X132985000Y-59385000D03*
D11*
%TO.P,SW1,2*%
X132985000Y-61290000D03*
%TO.P,SW1,3*%
X132985000Y-63195000D03*
%TO.P,SW1,4*%
X134890000Y-63195000D03*
%TO.P,SW1,5*%
X134890000Y-61290000D03*
%TO.P,SW1,6*%
X134890000Y-59385000D03*
%TD*%
D10*
%TO.P,SW1,1*%
%TO.N,N/C*%
X121555000Y-44145000D03*
D11*
%TO.P,SW1,2*%
X121555000Y-46050000D03*
%TO.P,SW1,3*%
X121555000Y-47955000D03*
%TO.P,SW1,4*%
X123460000Y-47955000D03*
%TO.P,SW1,5*%
X123460000Y-46050000D03*
%TO.P,SW1,6*%
X123460000Y-44145000D03*
%TD*%
D10*
%TO.P,SW1,1*%
%TO.N,N/C*%
X178705000Y-59385000D03*
D11*
%TO.P,SW1,2*%
X178705000Y-61290000D03*
%TO.P,SW1,3*%
X178705000Y-63195000D03*
%TO.P,SW1,4*%
X180610000Y-63195000D03*
%TO.P,SW1,5*%
X180610000Y-61290000D03*
%TO.P,SW1,6*%
X180610000Y-59385000D03*
%TD*%
D10*
%TO.P,SW1,1*%
%TO.N,N/C*%
X167275000Y-89865000D03*
D11*
%TO.P,SW1,2*%
X167275000Y-91770000D03*
%TO.P,SW1,3*%
X167275000Y-93675000D03*
%TO.P,SW1,4*%
X169180000Y-93675000D03*
%TO.P,SW1,5*%
X169180000Y-91770000D03*
%TO.P,SW1,6*%
X169180000Y-89865000D03*
%TD*%
D10*
%TO.P,SW1,1*%
%TO.N,N/C*%
X155845000Y-105105000D03*
D11*
%TO.P,SW1,2*%
X155845000Y-107010000D03*
%TO.P,SW1,3*%
X155845000Y-108915000D03*
%TO.P,SW1,4*%
X157750000Y-108915000D03*
%TO.P,SW1,5*%
X157750000Y-107010000D03*
%TO.P,SW1,6*%
X157750000Y-105105000D03*
%TD*%
D10*
%TO.P,SW1,1*%
%TO.N,N/C*%
X150130000Y-51765000D03*
D11*
%TO.P,SW1,2*%
X150130000Y-53670000D03*
%TO.P,SW1,3*%
X150130000Y-55575000D03*
%TO.P,SW1,4*%
X152035000Y-55575000D03*
%TO.P,SW1,5*%
X152035000Y-53670000D03*
%TO.P,SW1,6*%
X152035000Y-51765000D03*
%TD*%
D10*
%TO.P,SW1,1*%
%TO.N,N/C*%
X144415000Y-105105000D03*
D11*
%TO.P,SW1,2*%
X144415000Y-107010000D03*
%TO.P,SW1,3*%
X144415000Y-108915000D03*
%TO.P,SW1,4*%
X146320000Y-108915000D03*
%TO.P,SW1,5*%
X146320000Y-107010000D03*
%TO.P,SW1,6*%
X146320000Y-105105000D03*
%TD*%
D10*
%TO.P,SW1,1*%
%TO.N,N/C*%
X150130000Y-112725000D03*
D11*
%TO.P,SW1,2*%
X150130000Y-114630000D03*
%TO.P,SW1,3*%
X150130000Y-116535000D03*
%TO.P,SW1,4*%
X152035000Y-116535000D03*
%TO.P,SW1,5*%
X152035000Y-114630000D03*
%TO.P,SW1,6*%
X152035000Y-112725000D03*
%TD*%
D10*
%TO.P,SW1,1*%
%TO.N,N/C*%
X121555000Y-28905000D03*
D11*
%TO.P,SW1,2*%
X121555000Y-30810000D03*
%TO.P,SW1,3*%
X121555000Y-32715000D03*
%TO.P,SW1,4*%
X123460000Y-32715000D03*
%TO.P,SW1,5*%
X123460000Y-30810000D03*
%TO.P,SW1,6*%
X123460000Y-28905000D03*
%TD*%
D10*
%TO.P,SW1,1*%
%TO.N,N/C*%
X121555000Y-59385000D03*
D11*
%TO.P,SW1,2*%
X121555000Y-61290000D03*
%TO.P,SW1,3*%
X121555000Y-63195000D03*
%TO.P,SW1,4*%
X123460000Y-63195000D03*
%TO.P,SW1,5*%
X123460000Y-61290000D03*
%TO.P,SW1,6*%
X123460000Y-59385000D03*
%TD*%
D10*
%TO.P,SW1,1*%
%TO.N,N/C*%
X161560000Y-74625000D03*
D11*
%TO.P,SW1,2*%
X161560000Y-76530000D03*
%TO.P,SW1,3*%
X161560000Y-78435000D03*
%TO.P,SW1,4*%
X163465000Y-78435000D03*
%TO.P,SW1,5*%
X163465000Y-76530000D03*
%TO.P,SW1,6*%
X163465000Y-74625000D03*
%TD*%
D10*
%TO.P,SW1,1*%
%TO.N,N/C*%
X155845000Y-89865000D03*
D11*
%TO.P,SW1,2*%
X155845000Y-91770000D03*
%TO.P,SW1,3*%
X155845000Y-93675000D03*
%TO.P,SW1,4*%
X157750000Y-93675000D03*
%TO.P,SW1,5*%
X157750000Y-91770000D03*
%TO.P,SW1,6*%
X157750000Y-89865000D03*
%TD*%
D10*
%TO.P,SW1,1*%
%TO.N,N/C*%
X155845000Y-44145000D03*
D11*
%TO.P,SW1,2*%
X155845000Y-46050000D03*
%TO.P,SW1,3*%
X155845000Y-47955000D03*
%TO.P,SW1,4*%
X157750000Y-47955000D03*
%TO.P,SW1,5*%
X157750000Y-46050000D03*
%TO.P,SW1,6*%
X157750000Y-44145000D03*
%TD*%
D10*
%TO.P,SW1,1*%
%TO.N,N/C*%
X150130000Y-89865000D03*
D11*
%TO.P,SW1,2*%
X150130000Y-91770000D03*
%TO.P,SW1,3*%
X150130000Y-93675000D03*
%TO.P,SW1,4*%
X152035000Y-93675000D03*
%TO.P,SW1,5*%
X152035000Y-91770000D03*
%TO.P,SW1,6*%
X152035000Y-89865000D03*
%TD*%
D10*
%TO.P,SW1,1*%
%TO.N,N/C*%
X161560000Y-59385000D03*
D11*
%TO.P,SW1,2*%
X161560000Y-61290000D03*
%TO.P,SW1,3*%
X161560000Y-63195000D03*
%TO.P,SW1,4*%
X163465000Y-63195000D03*
%TO.P,SW1,5*%
X163465000Y-61290000D03*
%TO.P,SW1,6*%
X163465000Y-59385000D03*
%TD*%
D10*
%TO.P,SW1,1*%
%TO.N,N/C*%
X172990000Y-59385000D03*
D11*
%TO.P,SW1,2*%
X172990000Y-61290000D03*
%TO.P,SW1,3*%
X172990000Y-63195000D03*
%TO.P,SW1,4*%
X174895000Y-63195000D03*
%TO.P,SW1,5*%
X174895000Y-61290000D03*
%TO.P,SW1,6*%
X174895000Y-59385000D03*
%TD*%
D10*
%TO.P,SW1,1*%
%TO.N,N/C*%
X144415000Y-28905000D03*
D11*
%TO.P,SW1,2*%
X144415000Y-30810000D03*
%TO.P,SW1,3*%
X144415000Y-32715000D03*
%TO.P,SW1,4*%
X146320000Y-32715000D03*
%TO.P,SW1,5*%
X146320000Y-30810000D03*
%TO.P,SW1,6*%
X146320000Y-28905000D03*
%TD*%
D10*
%TO.P,SW1,1*%
%TO.N,N/C*%
X138700000Y-82245000D03*
D11*
%TO.P,SW1,2*%
X138700000Y-84150000D03*
%TO.P,SW1,3*%
X138700000Y-86055000D03*
%TO.P,SW1,4*%
X140605000Y-86055000D03*
%TO.P,SW1,5*%
X140605000Y-84150000D03*
%TO.P,SW1,6*%
X140605000Y-82245000D03*
%TD*%
D10*
%TO.P,SW1,1*%
%TO.N,N/C*%
X132985000Y-28905000D03*
D11*
%TO.P,SW1,2*%
X132985000Y-30810000D03*
%TO.P,SW1,3*%
X132985000Y-32715000D03*
%TO.P,SW1,4*%
X134890000Y-32715000D03*
%TO.P,SW1,5*%
X134890000Y-30810000D03*
%TO.P,SW1,6*%
X134890000Y-28905000D03*
%TD*%
D10*
%TO.P,SW1,1*%
%TO.N,N/C*%
X155845000Y-112725000D03*
D11*
%TO.P,SW1,2*%
X155845000Y-114630000D03*
%TO.P,SW1,3*%
X155845000Y-116535000D03*
%TO.P,SW1,4*%
X157750000Y-116535000D03*
%TO.P,SW1,5*%
X157750000Y-114630000D03*
%TO.P,SW1,6*%
X157750000Y-112725000D03*
%TD*%
D10*
%TO.P,SW1,1*%
%TO.N,N/C*%
X178705000Y-36525000D03*
D11*
%TO.P,SW1,2*%
X178705000Y-38430000D03*
%TO.P,SW1,3*%
X178705000Y-40335000D03*
%TO.P,SW1,4*%
X180610000Y-40335000D03*
%TO.P,SW1,5*%
X180610000Y-38430000D03*
%TO.P,SW1,6*%
X180610000Y-36525000D03*
%TD*%
D10*
%TO.P,SW1,1*%
%TO.N,N/C*%
X167275000Y-51765000D03*
D11*
%TO.P,SW1,2*%
X167275000Y-53670000D03*
%TO.P,SW1,3*%
X167275000Y-55575000D03*
%TO.P,SW1,4*%
X169180000Y-55575000D03*
%TO.P,SW1,5*%
X169180000Y-53670000D03*
%TO.P,SW1,6*%
X169180000Y-51765000D03*
%TD*%
D10*
%TO.P,SW1,1*%
%TO.N,N/C*%
X150130000Y-82245000D03*
D11*
%TO.P,SW1,2*%
X150130000Y-84150000D03*
%TO.P,SW1,3*%
X150130000Y-86055000D03*
%TO.P,SW1,4*%
X152035000Y-86055000D03*
%TO.P,SW1,5*%
X152035000Y-84150000D03*
%TO.P,SW1,6*%
X152035000Y-82245000D03*
%TD*%
D10*
%TO.P,SW1,1*%
%TO.N,N/C*%
X144415000Y-59385000D03*
D11*
%TO.P,SW1,2*%
X144415000Y-61290000D03*
%TO.P,SW1,3*%
X144415000Y-63195000D03*
%TO.P,SW1,4*%
X146320000Y-63195000D03*
%TO.P,SW1,5*%
X146320000Y-61290000D03*
%TO.P,SW1,6*%
X146320000Y-59385000D03*
%TD*%
D10*
%TO.P,SW1,1*%
%TO.N,N/C*%
X138700000Y-89865000D03*
D11*
%TO.P,SW1,2*%
X138700000Y-91770000D03*
%TO.P,SW1,3*%
X138700000Y-93675000D03*
%TO.P,SW1,4*%
X140605000Y-93675000D03*
%TO.P,SW1,5*%
X140605000Y-91770000D03*
%TO.P,SW1,6*%
X140605000Y-89865000D03*
%TD*%
D10*
%TO.P,SW1,1*%
%TO.N,N/C*%
X150130000Y-105105000D03*
D11*
%TO.P,SW1,2*%
X150130000Y-107010000D03*
%TO.P,SW1,3*%
X150130000Y-108915000D03*
%TO.P,SW1,4*%
X152035000Y-108915000D03*
%TO.P,SW1,5*%
X152035000Y-107010000D03*
%TO.P,SW1,6*%
X152035000Y-105105000D03*
%TD*%
D10*
%TO.P,SW1,1*%
%TO.N,N/C*%
X178705000Y-28905000D03*
D11*
%TO.P,SW1,2*%
X178705000Y-30810000D03*
%TO.P,SW1,3*%
X178705000Y-32715000D03*
%TO.P,SW1,4*%
X180610000Y-32715000D03*
%TO.P,SW1,5*%
X180610000Y-30810000D03*
%TO.P,SW1,6*%
X180610000Y-28905000D03*
%TD*%
D10*
%TO.P,SW1,1*%
%TO.N,N/C*%
X132985000Y-36525000D03*
D11*
%TO.P,SW1,2*%
X132985000Y-38430000D03*
%TO.P,SW1,3*%
X132985000Y-40335000D03*
%TO.P,SW1,4*%
X134890000Y-40335000D03*
%TO.P,SW1,5*%
X134890000Y-38430000D03*
%TO.P,SW1,6*%
X134890000Y-36525000D03*
%TD*%
D10*
%TO.P,SW1,1*%
%TO.N,N/C*%
X115840000Y-67005000D03*
D11*
%TO.P,SW1,2*%
X115840000Y-68910000D03*
%TO.P,SW1,3*%
X115840000Y-70815000D03*
%TO.P,SW1,4*%
X117745000Y-70815000D03*
%TO.P,SW1,5*%
X117745000Y-68910000D03*
%TO.P,SW1,6*%
X117745000Y-67005000D03*
%TD*%
D10*
%TO.P,SW1,1*%
%TO.N,N/C*%
X115840000Y-82245000D03*
D11*
%TO.P,SW1,2*%
X115840000Y-84150000D03*
%TO.P,SW1,3*%
X115840000Y-86055000D03*
%TO.P,SW1,4*%
X117745000Y-86055000D03*
%TO.P,SW1,5*%
X117745000Y-84150000D03*
%TO.P,SW1,6*%
X117745000Y-82245000D03*
%TD*%
D10*
%TO.P,SW1,1*%
%TO.N,N/C*%
X178705000Y-67005000D03*
D11*
%TO.P,SW1,2*%
X178705000Y-68910000D03*
%TO.P,SW1,3*%
X178705000Y-70815000D03*
%TO.P,SW1,4*%
X180610000Y-70815000D03*
%TO.P,SW1,5*%
X180610000Y-68910000D03*
%TO.P,SW1,6*%
X180610000Y-67005000D03*
%TD*%
D10*
%TO.P,SW1,1*%
%TO.N,N/C*%
X178705000Y-51765000D03*
D11*
%TO.P,SW1,2*%
X178705000Y-53670000D03*
%TO.P,SW1,3*%
X178705000Y-55575000D03*
%TO.P,SW1,4*%
X180610000Y-55575000D03*
%TO.P,SW1,5*%
X180610000Y-53670000D03*
%TO.P,SW1,6*%
X180610000Y-51765000D03*
%TD*%
D12*
%TO.N,*%
X155845000Y-58750000D02*
X158385000Y-58750000D01*
X167275000Y-58750000D02*
X169815000Y-58750000D01*
X115840000Y-66370000D02*
X118380000Y-66370000D01*
X121555000Y-66370000D02*
X124095000Y-66370000D01*
X115840000Y-73990000D02*
X118380000Y-73990000D01*
X172990000Y-58750000D02*
X175530000Y-58750000D01*
X132985000Y-66370000D02*
X135525000Y-66370000D01*
X138700000Y-66370000D02*
X141240000Y-66370000D01*
X138700000Y-51130000D02*
X141240000Y-51130000D01*
X172990000Y-51130000D02*
X175530000Y-51130000D01*
X138700000Y-58750000D02*
X141240000Y-58750000D01*
X150130000Y-51130000D02*
X152670000Y-51130000D01*
X121555000Y-58750000D02*
X124095000Y-58750000D01*
X155845000Y-66370000D02*
X158385000Y-66370000D01*
X150130000Y-73990000D02*
X152670000Y-73990000D01*
X167275000Y-51130000D02*
X169815000Y-51130000D01*
X115840000Y-58750000D02*
X118380000Y-58750000D01*
X132985000Y-58750000D02*
X135525000Y-58750000D01*
X144415000Y-43510000D02*
X146955000Y-43510000D01*
X155845000Y-43510000D02*
X158385000Y-43510000D01*
X172990000Y-43510000D02*
X175530000Y-43510000D01*
X115840000Y-51130000D02*
X118380000Y-51130000D01*
X121555000Y-81610000D02*
X124095000Y-81610000D01*
X167275000Y-43510000D02*
X169815000Y-43510000D01*
X161560000Y-51130000D02*
X164100000Y-51130000D01*
X127270000Y-51130000D02*
X129810000Y-51130000D01*
X144415000Y-51130000D02*
X146955000Y-51130000D01*
X155845000Y-51130000D02*
X158385000Y-51130000D01*
X121555000Y-35890000D02*
X124095000Y-35890000D01*
X127270000Y-35890000D02*
X129810000Y-35890000D01*
X132985000Y-35890000D02*
X135525000Y-35890000D01*
X138700000Y-35890000D02*
X141240000Y-35890000D01*
X150130000Y-35890000D02*
X152670000Y-35890000D01*
X155845000Y-35890000D02*
X158385000Y-35890000D01*
X167275000Y-35890000D02*
X169815000Y-35890000D01*
X115840000Y-43510000D02*
X118380000Y-43510000D01*
X127270000Y-43510000D02*
X129810000Y-43510000D01*
X138700000Y-43510000D02*
X141240000Y-43510000D01*
X178705000Y-35890000D02*
X181245000Y-35890000D01*
X121555000Y-43510000D02*
X124095000Y-43510000D01*
X132985000Y-43510000D02*
X135525000Y-43510000D01*
X150130000Y-43510000D02*
X152670000Y-43510000D01*
X167275000Y-89230000D02*
X169815000Y-89230000D01*
X172990000Y-89230000D02*
X175530000Y-89230000D01*
X178705000Y-89230000D02*
X181245000Y-89230000D01*
X138700000Y-104470000D02*
X141240000Y-104470000D01*
X144415000Y-112090000D02*
X146955000Y-112090000D01*
X150130000Y-112090000D02*
X152670000Y-112090000D01*
X115840000Y-96850000D02*
X118380000Y-96850000D01*
X121555000Y-104470000D02*
X124095000Y-104470000D01*
X167275000Y-104470000D02*
X169815000Y-104470000D01*
X132985000Y-112090000D02*
X135525000Y-112090000D01*
X127270000Y-96850000D02*
X129810000Y-96850000D01*
X132985000Y-96850000D02*
X135525000Y-96850000D01*
X138700000Y-96850000D02*
X141240000Y-96850000D01*
X144415000Y-81610000D02*
X146955000Y-81610000D01*
X161560000Y-81610000D02*
X164100000Y-81610000D01*
X121555000Y-89230000D02*
X124095000Y-89230000D01*
X115840000Y-89230000D02*
X118380000Y-89230000D01*
X161560000Y-96850000D02*
X164100000Y-96850000D01*
X178705000Y-96850000D02*
X181245000Y-96850000D01*
X172990000Y-81610000D02*
X175530000Y-81610000D01*
X178705000Y-81610000D02*
X181245000Y-81610000D01*
X138700000Y-89230000D02*
X141240000Y-89230000D01*
X127270000Y-89230000D02*
X129810000Y-89230000D01*
X144415000Y-89230000D02*
X146955000Y-89230000D01*
X161560000Y-89230000D02*
X164100000Y-89230000D01*
X121555000Y-96850000D02*
X124095000Y-96850000D01*
X138700000Y-73990000D02*
X141240000Y-73990000D01*
X144415000Y-73990000D02*
X146955000Y-73990000D01*
X155845000Y-73990000D02*
X158385000Y-73990000D01*
X167275000Y-73990000D02*
X169815000Y-73990000D01*
X138700000Y-81610000D02*
X141240000Y-81610000D01*
X150130000Y-81610000D02*
X152670000Y-81610000D01*
X167275000Y-81610000D02*
X169815000Y-81610000D01*
X161560000Y-73990000D02*
X164100000Y-73990000D01*
X132985000Y-89230000D02*
X135525000Y-89230000D01*
X150130000Y-89230000D02*
X152670000Y-89230000D01*
X172990000Y-73990000D02*
X175530000Y-73990000D01*
X115840000Y-81610000D02*
X118380000Y-81610000D01*
X132985000Y-81610000D02*
X135525000Y-81610000D01*
X178705000Y-58750000D02*
X181245000Y-58750000D01*
X127270000Y-66370000D02*
X129810000Y-66370000D01*
X144415000Y-66370000D02*
X146955000Y-66370000D01*
X150130000Y-66370000D02*
X152670000Y-66370000D01*
X167275000Y-66370000D02*
X169815000Y-66370000D01*
X172990000Y-66370000D02*
X175530000Y-66370000D01*
X127270000Y-73990000D02*
X129810000Y-73990000D01*
X161560000Y-66370000D02*
X164100000Y-66370000D01*
X178705000Y-66370000D02*
X181245000Y-66370000D01*
X121555000Y-73990000D02*
X124095000Y-73990000D01*
X132985000Y-73990000D02*
X135525000Y-73990000D01*
X178705000Y-73990000D02*
X181245000Y-73990000D01*
X127270000Y-81610000D02*
X129810000Y-81610000D01*
X155845000Y-81610000D02*
X158385000Y-81610000D01*
X115840000Y-112090000D02*
X118380000Y-112090000D01*
X121555000Y-112090000D02*
X124095000Y-112090000D01*
X178705000Y-112090000D02*
X181245000Y-112090000D01*
X178705000Y-104470000D02*
X181245000Y-104470000D01*
X127270000Y-112090000D02*
X129810000Y-112090000D01*
X138700000Y-112090000D02*
X141240000Y-112090000D01*
X155845000Y-112090000D02*
X158385000Y-112090000D01*
X161560000Y-112090000D02*
X164100000Y-112090000D01*
X167275000Y-112090000D02*
X169815000Y-112090000D01*
X172990000Y-112090000D02*
X175530000Y-112090000D01*
X144415000Y-96850000D02*
X146955000Y-96850000D01*
X150130000Y-96850000D02*
X152670000Y-96850000D01*
X155845000Y-96850000D02*
X158385000Y-96850000D01*
X167275000Y-96850000D02*
X169815000Y-96850000D01*
X172990000Y-96850000D02*
X175530000Y-96850000D01*
X115840000Y-104470000D02*
X118380000Y-104470000D01*
X132985000Y-104470000D02*
X135525000Y-104470000D01*
X127270000Y-104470000D02*
X129810000Y-104470000D01*
X150130000Y-104470000D02*
X152670000Y-104470000D01*
X155845000Y-104470000D02*
X158385000Y-104470000D01*
X144415000Y-104470000D02*
X146955000Y-104470000D01*
X161560000Y-104470000D02*
X164100000Y-104470000D01*
X172990000Y-104470000D02*
X175530000Y-104470000D01*
X155845000Y-89230000D02*
X158385000Y-89230000D01*
X121555000Y-51130000D02*
X124095000Y-51130000D01*
X144415000Y-28270000D02*
X146955000Y-28270000D01*
X138700000Y-28270000D02*
X141240000Y-28270000D01*
X115840000Y-28270000D02*
X118380000Y-28270000D01*
X144415000Y-35890000D02*
X146955000Y-35890000D01*
X172990000Y-35890000D02*
X175530000Y-35890000D01*
X161560000Y-43510000D02*
X164100000Y-43510000D01*
X178705000Y-28270000D02*
X181245000Y-28270000D01*
X178705000Y-43510000D02*
X181245000Y-43510000D01*
X132985000Y-51130000D02*
X135525000Y-51130000D01*
X115840000Y-35890000D02*
X118380000Y-35890000D01*
X172990000Y-28270000D02*
X175530000Y-28270000D01*
X132985000Y-28270000D02*
X135525000Y-28270000D01*
X161560000Y-28270000D02*
X164100000Y-28270000D01*
X150130000Y-28270000D02*
X152670000Y-28270000D01*
X161560000Y-35890000D02*
X164100000Y-35890000D01*
X121555000Y-28270000D02*
X124095000Y-28270000D01*
X127270000Y-28270000D02*
X129810000Y-28270000D01*
X167275000Y-28270000D02*
X169815000Y-28270000D01*
X155845000Y-28270000D02*
X158385000Y-28270000D01*
X178705000Y-51130000D02*
X181245000Y-51130000D01*
X127270000Y-58750000D02*
X129810000Y-58750000D01*
X150130000Y-58750000D02*
X152670000Y-58750000D01*
X161560000Y-58750000D02*
X164100000Y-58750000D01*
X144415000Y-58750000D02*
X146955000Y-58750000D01*
X178705000Y-84150000D02*
X181245000Y-84150000D01*
X138700000Y-91770000D02*
X141240000Y-91770000D01*
X127270000Y-91770000D02*
X129810000Y-91770000D01*
X144415000Y-91770000D02*
X146955000Y-91770000D01*
X161560000Y-91770000D02*
X164100000Y-91770000D01*
X121555000Y-99390000D02*
X124095000Y-99390000D01*
X138700000Y-76530000D02*
X141240000Y-76530000D01*
X144415000Y-76530000D02*
X146955000Y-76530000D01*
X155845000Y-76530000D02*
X158385000Y-76530000D01*
X167275000Y-76530000D02*
X169815000Y-76530000D01*
X138700000Y-84150000D02*
X141240000Y-84150000D01*
X150130000Y-84150000D02*
X152670000Y-84150000D01*
X161560000Y-76530000D02*
X164100000Y-76530000D01*
X132985000Y-91770000D02*
X135525000Y-91770000D01*
X150130000Y-91770000D02*
X152670000Y-91770000D01*
X172990000Y-76530000D02*
X175530000Y-76530000D01*
X115840000Y-84150000D02*
X118380000Y-84150000D01*
X132985000Y-84150000D02*
X135525000Y-84150000D01*
X178705000Y-61290000D02*
X181245000Y-61290000D01*
X127270000Y-68910000D02*
X129810000Y-68910000D01*
X144415000Y-68910000D02*
X146955000Y-68910000D01*
X150130000Y-68910000D02*
X152670000Y-68910000D01*
X167275000Y-68910000D02*
X169815000Y-68910000D01*
X172990000Y-68910000D02*
X175530000Y-68910000D01*
X127270000Y-76530000D02*
X129810000Y-76530000D01*
X161560000Y-68910000D02*
X164100000Y-68910000D01*
X178705000Y-68910000D02*
X181245000Y-68910000D01*
X121555000Y-76530000D02*
X124095000Y-76530000D01*
X132985000Y-76530000D02*
X135525000Y-76530000D01*
X178705000Y-76530000D02*
X181245000Y-76530000D01*
X127270000Y-84150000D02*
X129810000Y-84150000D01*
X155845000Y-84150000D02*
X158385000Y-84150000D01*
X167275000Y-84150000D02*
X169815000Y-84150000D01*
X115840000Y-114630000D02*
X118380000Y-114630000D01*
X121555000Y-114630000D02*
X124095000Y-114630000D01*
X178705000Y-114630000D02*
X181245000Y-114630000D01*
X178705000Y-107010000D02*
X181245000Y-107010000D01*
X127270000Y-114630000D02*
X129810000Y-114630000D01*
X138700000Y-114630000D02*
X141240000Y-114630000D01*
X155845000Y-114630000D02*
X158385000Y-114630000D01*
X161560000Y-114630000D02*
X164100000Y-114630000D01*
X167275000Y-114630000D02*
X169815000Y-114630000D01*
X172990000Y-114630000D02*
X175530000Y-114630000D01*
X144415000Y-99390000D02*
X146955000Y-99390000D01*
X150130000Y-99390000D02*
X152670000Y-99390000D01*
X155845000Y-99390000D02*
X158385000Y-99390000D01*
X167275000Y-99390000D02*
X169815000Y-99390000D01*
X172990000Y-99390000D02*
X175530000Y-99390000D01*
X115840000Y-107010000D02*
X118380000Y-107010000D01*
X132985000Y-107010000D02*
X135525000Y-107010000D01*
X127270000Y-107010000D02*
X129810000Y-107010000D01*
X150130000Y-107010000D02*
X152670000Y-107010000D01*
X155845000Y-107010000D02*
X158385000Y-107010000D01*
X144415000Y-107010000D02*
X146955000Y-107010000D01*
X161560000Y-107010000D02*
X164100000Y-107010000D01*
X172990000Y-107010000D02*
X175530000Y-107010000D01*
X155845000Y-91770000D02*
X158385000Y-91770000D01*
X144415000Y-30810000D02*
X146955000Y-30810000D01*
X121555000Y-53670000D02*
X124095000Y-53670000D01*
X138700000Y-30810000D02*
X141240000Y-30810000D01*
X115840000Y-30810000D02*
X118380000Y-30810000D01*
X144415000Y-38430000D02*
X146955000Y-38430000D01*
X172990000Y-38430000D02*
X175530000Y-38430000D01*
X161560000Y-46050000D02*
X164100000Y-46050000D01*
X178705000Y-30810000D02*
X181245000Y-30810000D01*
X178705000Y-46050000D02*
X181245000Y-46050000D01*
X132985000Y-53670000D02*
X135525000Y-53670000D01*
X115840000Y-38430000D02*
X118380000Y-38430000D01*
X172990000Y-30810000D02*
X175530000Y-30810000D01*
X132985000Y-30810000D02*
X135525000Y-30810000D01*
X161560000Y-30810000D02*
X164100000Y-30810000D01*
X150130000Y-30810000D02*
X152670000Y-30810000D01*
X161560000Y-38430000D02*
X164100000Y-38430000D01*
X121555000Y-30810000D02*
X124095000Y-30810000D01*
X127270000Y-30810000D02*
X129810000Y-30810000D01*
X167275000Y-30810000D02*
X169815000Y-30810000D01*
X155845000Y-30810000D02*
X158385000Y-30810000D01*
X178705000Y-53670000D02*
X181245000Y-53670000D01*
X127270000Y-61290000D02*
X129810000Y-61290000D01*
X150130000Y-61290000D02*
X152670000Y-61290000D01*
X161560000Y-61290000D02*
X164100000Y-61290000D01*
X144415000Y-61290000D02*
X146955000Y-61290000D01*
X155845000Y-61290000D02*
X158385000Y-61290000D01*
X167275000Y-61290000D02*
X169815000Y-61290000D01*
X115840000Y-68910000D02*
X118380000Y-68910000D01*
X121555000Y-68910000D02*
X124095000Y-68910000D01*
X115840000Y-76530000D02*
X118380000Y-76530000D01*
X172990000Y-61290000D02*
X175530000Y-61290000D01*
X132985000Y-68910000D02*
X135525000Y-68910000D01*
X138700000Y-68910000D02*
X141240000Y-68910000D01*
X138700000Y-53670000D02*
X141240000Y-53670000D01*
X172990000Y-53670000D02*
X175530000Y-53670000D01*
X138700000Y-61290000D02*
X141240000Y-61290000D01*
X150130000Y-53670000D02*
X152670000Y-53670000D01*
X121555000Y-61290000D02*
X124095000Y-61290000D01*
X155845000Y-68910000D02*
X158385000Y-68910000D01*
X150130000Y-76530000D02*
X152670000Y-76530000D01*
X167275000Y-53670000D02*
X169815000Y-53670000D01*
X115840000Y-61290000D02*
X118380000Y-61290000D01*
X132985000Y-61290000D02*
X135525000Y-61290000D01*
X144415000Y-46050000D02*
X146955000Y-46050000D01*
X155845000Y-46050000D02*
X158385000Y-46050000D01*
X172990000Y-46050000D02*
X175530000Y-46050000D01*
X115840000Y-53670000D02*
X118380000Y-53670000D01*
X121555000Y-84150000D02*
X124095000Y-84150000D01*
X150130000Y-46050000D02*
X152670000Y-46050000D01*
X167275000Y-46050000D02*
X169815000Y-46050000D01*
X161560000Y-53670000D02*
X164100000Y-53670000D01*
X127270000Y-53670000D02*
X129810000Y-53670000D01*
X144415000Y-53670000D02*
X146955000Y-53670000D01*
X155845000Y-53670000D02*
X158385000Y-53670000D01*
X121555000Y-38430000D02*
X124095000Y-38430000D01*
X127270000Y-38430000D02*
X129810000Y-38430000D01*
X132985000Y-38430000D02*
X135525000Y-38430000D01*
X138700000Y-38430000D02*
X141240000Y-38430000D01*
X150130000Y-38430000D02*
X152670000Y-38430000D01*
X155845000Y-38430000D02*
X158385000Y-38430000D01*
X167275000Y-38430000D02*
X169815000Y-38430000D01*
X115840000Y-46050000D02*
X118380000Y-46050000D01*
X127270000Y-46050000D02*
X129810000Y-46050000D01*
X138700000Y-46050000D02*
X141240000Y-46050000D01*
X178705000Y-38430000D02*
X181245000Y-38430000D01*
X121555000Y-46050000D02*
X124095000Y-46050000D01*
X132985000Y-46050000D02*
X135525000Y-46050000D01*
X167275000Y-91770000D02*
X169815000Y-91770000D01*
X172990000Y-91770000D02*
X175530000Y-91770000D01*
X178705000Y-91770000D02*
X181245000Y-91770000D01*
X138700000Y-107010000D02*
X141240000Y-107010000D01*
X144415000Y-114630000D02*
X146955000Y-114630000D01*
X150130000Y-114630000D02*
X152670000Y-114630000D01*
X115840000Y-99390000D02*
X118380000Y-99390000D01*
X121555000Y-107010000D02*
X124095000Y-107010000D01*
X167275000Y-107010000D02*
X169815000Y-107010000D01*
X132985000Y-114630000D02*
X135525000Y-114630000D01*
X127270000Y-99390000D02*
X129810000Y-99390000D01*
X132985000Y-99390000D02*
X135525000Y-99390000D01*
X138700000Y-99390000D02*
X141240000Y-99390000D01*
X144415000Y-84150000D02*
X146955000Y-84150000D01*
X161560000Y-84150000D02*
X164100000Y-84150000D01*
X121555000Y-91770000D02*
X124095000Y-91770000D01*
X115840000Y-91770000D02*
X118380000Y-91770000D01*
X161560000Y-99390000D02*
X164100000Y-99390000D01*
X178705000Y-99390000D02*
X181245000Y-99390000D01*
X172990000Y-84150000D02*
X175530000Y-84150000D01*
X172990000Y-109550000D02*
X175530000Y-109550000D01*
X161560000Y-109550000D02*
X164100000Y-109550000D01*
X144415000Y-109550000D02*
X146955000Y-109550000D01*
X155845000Y-109550000D02*
X158385000Y-109550000D01*
X150130000Y-109550000D02*
X152670000Y-109550000D01*
X127270000Y-109550000D02*
X129810000Y-109550000D01*
X172990000Y-101930000D02*
X175530000Y-101930000D01*
X132985000Y-109550000D02*
X135525000Y-109550000D01*
X115840000Y-109550000D02*
X118380000Y-109550000D01*
X150130000Y-101930000D02*
X152670000Y-101930000D01*
X167275000Y-101930000D02*
X169815000Y-101930000D01*
X155845000Y-101930000D02*
X158385000Y-101930000D01*
X144415000Y-101930000D02*
X146955000Y-101930000D01*
X167275000Y-117170000D02*
X169815000Y-117170000D01*
X172990000Y-117170000D02*
X175530000Y-117170000D01*
X161560000Y-117170000D02*
X164100000Y-117170000D01*
X155845000Y-117170000D02*
X158385000Y-117170000D01*
X138700000Y-117170000D02*
X141240000Y-117170000D01*
X127270000Y-117170000D02*
X129810000Y-117170000D01*
X178705000Y-109550000D02*
X181245000Y-109550000D01*
X178705000Y-117170000D02*
X181245000Y-117170000D01*
X155845000Y-86690000D02*
X158385000Y-86690000D01*
X121555000Y-117170000D02*
X124095000Y-117170000D01*
X115840000Y-117170000D02*
X118380000Y-117170000D01*
X178705000Y-79070000D02*
X181245000Y-79070000D01*
X127270000Y-86690000D02*
X129810000Y-86690000D01*
X161560000Y-71450000D02*
X164100000Y-71450000D01*
X132985000Y-79070000D02*
X135525000Y-79070000D01*
X121555000Y-79070000D02*
X124095000Y-79070000D01*
X178705000Y-71450000D02*
X181245000Y-71450000D01*
X172990000Y-71450000D02*
X175530000Y-71450000D01*
X127270000Y-79070000D02*
X129810000Y-79070000D01*
X144415000Y-71450000D02*
X146955000Y-71450000D01*
X167275000Y-71450000D02*
X169815000Y-71450000D01*
X150130000Y-71450000D02*
X152670000Y-71450000D01*
X132985000Y-86690000D02*
X135525000Y-86690000D01*
X127270000Y-71450000D02*
X129810000Y-71450000D01*
X178705000Y-63830000D02*
X181245000Y-63830000D01*
X167275000Y-86690000D02*
X169815000Y-86690000D01*
X172990000Y-79070000D02*
X175530000Y-79070000D01*
X115840000Y-86690000D02*
X118380000Y-86690000D01*
X150130000Y-94310000D02*
X152670000Y-94310000D01*
X132985000Y-94310000D02*
X135525000Y-94310000D01*
X150130000Y-86690000D02*
X152670000Y-86690000D01*
X161560000Y-79070000D02*
X164100000Y-79070000D01*
X138700000Y-79070000D02*
X141240000Y-79070000D01*
X138700000Y-86690000D02*
X141240000Y-86690000D01*
X167275000Y-79070000D02*
X169815000Y-79070000D01*
X155845000Y-79070000D02*
X158385000Y-79070000D01*
X144415000Y-79070000D02*
X146955000Y-79070000D01*
X144415000Y-94310000D02*
X146955000Y-94310000D01*
X121555000Y-101930000D02*
X124095000Y-101930000D01*
X161560000Y-94310000D02*
X164100000Y-94310000D01*
X155845000Y-94310000D02*
X158385000Y-94310000D01*
X144415000Y-33350000D02*
X146955000Y-33350000D01*
X121555000Y-56210000D02*
X124095000Y-56210000D01*
X138700000Y-33350000D02*
X141240000Y-33350000D01*
X115840000Y-33350000D02*
X118380000Y-33350000D01*
X144415000Y-40970000D02*
X146955000Y-40970000D01*
X172990000Y-40970000D02*
X175530000Y-40970000D01*
X161560000Y-48590000D02*
X164100000Y-48590000D01*
X178705000Y-33350000D02*
X181245000Y-33350000D01*
X178705000Y-48590000D02*
X181245000Y-48590000D01*
X132985000Y-56210000D02*
X135525000Y-56210000D01*
X115840000Y-40970000D02*
X118380000Y-40970000D01*
X172990000Y-33350000D02*
X175530000Y-33350000D01*
X132985000Y-33350000D02*
X135525000Y-33350000D01*
X161560000Y-33350000D02*
X164100000Y-33350000D01*
X150130000Y-33350000D02*
X152670000Y-33350000D01*
X161560000Y-40970000D02*
X164100000Y-40970000D01*
X121555000Y-33350000D02*
X124095000Y-33350000D01*
X127270000Y-33350000D02*
X129810000Y-33350000D01*
X167275000Y-33350000D02*
X169815000Y-33350000D01*
X155845000Y-33350000D02*
X158385000Y-33350000D01*
X178705000Y-56210000D02*
X181245000Y-56210000D01*
X127270000Y-63830000D02*
X129810000Y-63830000D01*
X150130000Y-63830000D02*
X152670000Y-63830000D01*
X161560000Y-63830000D02*
X164100000Y-63830000D01*
X144415000Y-63830000D02*
X146955000Y-63830000D01*
X155845000Y-63830000D02*
X158385000Y-63830000D01*
X167275000Y-63830000D02*
X169815000Y-63830000D01*
X115840000Y-71450000D02*
X118380000Y-71450000D01*
X121555000Y-71450000D02*
X124095000Y-71450000D01*
X115840000Y-79070000D02*
X118380000Y-79070000D01*
X172990000Y-63830000D02*
X175530000Y-63830000D01*
X132985000Y-71450000D02*
X135525000Y-71450000D01*
X138700000Y-71450000D02*
X141240000Y-71450000D01*
X138700000Y-56210000D02*
X141240000Y-56210000D01*
X172990000Y-56210000D02*
X175530000Y-56210000D01*
X138700000Y-63830000D02*
X141240000Y-63830000D01*
X150130000Y-56210000D02*
X152670000Y-56210000D01*
X121555000Y-63830000D02*
X124095000Y-63830000D01*
X155845000Y-71450000D02*
X158385000Y-71450000D01*
X150130000Y-79070000D02*
X152670000Y-79070000D01*
X167275000Y-56210000D02*
X169815000Y-56210000D01*
X115840000Y-63830000D02*
X118380000Y-63830000D01*
X132985000Y-63830000D02*
X135525000Y-63830000D01*
X144415000Y-48590000D02*
X146955000Y-48590000D01*
X155845000Y-48590000D02*
X158385000Y-48590000D01*
X172990000Y-48590000D02*
X175530000Y-48590000D01*
X115840000Y-56210000D02*
X118380000Y-56210000D01*
X121555000Y-86690000D02*
X124095000Y-86690000D01*
X150130000Y-48590000D02*
X152670000Y-48590000D01*
X167275000Y-48590000D02*
X169815000Y-48590000D01*
X161560000Y-56210000D02*
X164100000Y-56210000D01*
X127270000Y-56210000D02*
X129810000Y-56210000D01*
X144415000Y-56210000D02*
X146955000Y-56210000D01*
X155845000Y-56210000D02*
X158385000Y-56210000D01*
X121555000Y-40970000D02*
X124095000Y-40970000D01*
X127270000Y-40970000D02*
X129810000Y-40970000D01*
X132985000Y-40970000D02*
X135525000Y-40970000D01*
X138700000Y-40970000D02*
X141240000Y-40970000D01*
X150130000Y-40970000D02*
X152670000Y-40970000D01*
X155845000Y-40970000D02*
X158385000Y-40970000D01*
X167275000Y-40970000D02*
X169815000Y-40970000D01*
X115840000Y-48590000D02*
X118380000Y-48590000D01*
X127270000Y-48590000D02*
X129810000Y-48590000D01*
X138700000Y-48590000D02*
X141240000Y-48590000D01*
X178705000Y-40970000D02*
X181245000Y-40970000D01*
X121555000Y-48590000D02*
X124095000Y-48590000D01*
X132985000Y-48590000D02*
X135525000Y-48590000D01*
X167275000Y-94310000D02*
X169815000Y-94310000D01*
X172990000Y-94310000D02*
X175530000Y-94310000D01*
X178705000Y-94310000D02*
X181245000Y-94310000D01*
X138700000Y-109550000D02*
X141240000Y-109550000D01*
X144415000Y-117170000D02*
X146955000Y-117170000D01*
X150130000Y-117170000D02*
X152670000Y-117170000D01*
X115840000Y-101930000D02*
X118380000Y-101930000D01*
X121555000Y-109550000D02*
X124095000Y-109550000D01*
X167275000Y-109550000D02*
X169815000Y-109550000D01*
X132985000Y-117170000D02*
X135525000Y-117170000D01*
X127270000Y-101930000D02*
X129810000Y-101930000D01*
X132985000Y-101930000D02*
X135525000Y-101930000D01*
X138700000Y-101930000D02*
X141240000Y-101930000D01*
X144415000Y-86690000D02*
X146955000Y-86690000D01*
X161560000Y-86690000D02*
X164100000Y-86690000D01*
X121555000Y-94310000D02*
X124095000Y-94310000D01*
X115840000Y-94310000D02*
X118380000Y-94310000D01*
X161560000Y-101930000D02*
X164100000Y-101930000D01*
X178705000Y-101930000D02*
X181245000Y-101930000D01*
X172990000Y-86690000D02*
X175530000Y-86690000D01*
X178705000Y-86690000D02*
X181245000Y-86690000D01*
X138700000Y-94310000D02*
X141240000Y-94310000D01*
X127270000Y-94310000D02*
X129810000Y-94310000D01*
%TD*%
M02*
