%TF.GenerationSoftware,KiCad,Pcbnew,(6.0.10-0)*%
%TF.CreationDate,2023-11-17T22:41:50+01:00*%
%TF.ProjectId,JazzHands-v0.2,4a617a7a-4861-46e6-9473-2d76302e322e,rev?*%
%TF.SameCoordinates,Original*%
%TF.FileFunction,Soldermask,Top*%
%TF.FilePolarity,Negative*%
%FSLAX46Y46*%
G04 Gerber Fmt 4.6, Leading zero omitted, Abs format (unit mm)*
G04 Created by KiCad (PCBNEW (6.0.10-0)) date 2023-11-17 22:41:50*
%MOMM*%
%LPD*%
G01*
G04 APERTURE LIST*
G04 Aperture macros list*
%AMRoundRect*
0 Rectangle with rounded corners*
0 $1 Rounding radius*
0 $2 $3 $4 $5 $6 $7 $8 $9 X,Y pos of 4 corners*
0 Add a 4 corners polygon primitive as box body*
4,1,4,$2,$3,$4,$5,$6,$7,$8,$9,$2,$3,0*
0 Add four circle primitives for the rounded corners*
1,1,$1+$1,$2,$3*
1,1,$1+$1,$4,$5*
1,1,$1+$1,$6,$7*
1,1,$1+$1,$8,$9*
0 Add four rect primitives between the rounded corners*
20,1,$1+$1,$2,$3,$4,$5,0*
20,1,$1+$1,$4,$5,$6,$7,0*
20,1,$1+$1,$6,$7,$8,$9,0*
20,1,$1+$1,$8,$9,$2,$3,0*%
G04 Aperture macros list end*
%ADD10R,1.370000X1.370000*%
%ADD11C,1.370000*%
%ADD12R,2.400000X1.600000*%
%ADD13O,2.400000X1.600000*%
%ADD14C,1.600000*%
%ADD15O,1.600000X1.600000*%
%ADD16C,3.000000*%
%ADD17R,1.600000X2.400000*%
%ADD18O,1.600000X2.400000*%
%ADD19C,2.100000*%
%ADD20C,3.585000*%
%ADD21RoundRect,0.101600X0.939800X-0.939800X0.939800X0.939800X-0.939800X0.939800X-0.939800X-0.939800X0*%
%ADD22C,2.082800*%
%ADD23R,1.700000X1.700000*%
%ADD24O,1.700000X1.700000*%
G04 APERTURE END LIST*
D10*
%TO.C,J1*%
X148580000Y-53370000D03*
D11*
X146040000Y-53370000D03*
X143500000Y-53370000D03*
X148580000Y-55910000D03*
X146040000Y-55910000D03*
X143500000Y-55910000D03*
X148580000Y-58450000D03*
X146040000Y-58450000D03*
X143500000Y-58450000D03*
X148580000Y-60990000D03*
X146040000Y-60990000D03*
X143500000Y-60990000D03*
X148580000Y-63530000D03*
X146040000Y-63530000D03*
X143500000Y-63530000D03*
X148580000Y-66070000D03*
X146040000Y-66070000D03*
X143500000Y-66070000D03*
X148580000Y-68610000D03*
X146040000Y-68610000D03*
X143500000Y-68610000D03*
X148580000Y-71150000D03*
X146040000Y-71150000D03*
X143500000Y-71150000D03*
X148580000Y-73690000D03*
X146040000Y-73690000D03*
X143500000Y-73690000D03*
X148580000Y-76230000D03*
X146040000Y-76230000D03*
X143500000Y-76230000D03*
X148580000Y-78770000D03*
X146040000Y-78770000D03*
X143500000Y-78770000D03*
X148580000Y-81310000D03*
X146040000Y-81310000D03*
X143500000Y-81310000D03*
X148580000Y-83850000D03*
X146040000Y-83850000D03*
X143500000Y-83850000D03*
X148580000Y-86390000D03*
X146040000Y-86390000D03*
X143500000Y-86390000D03*
X148580000Y-88930000D03*
X146040000Y-88930000D03*
X143500000Y-88930000D03*
X148580000Y-91470000D03*
X146040000Y-91470000D03*
X143500000Y-91470000D03*
X148580000Y-94010000D03*
X146040000Y-94010000D03*
X143500000Y-94010000D03*
X148580000Y-96550000D03*
X146040000Y-96550000D03*
X143500000Y-96550000D03*
X148580000Y-99090000D03*
X146040000Y-99090000D03*
X143500000Y-99090000D03*
X148580000Y-101630000D03*
X146040000Y-101630000D03*
X143500000Y-101630000D03*
X148580000Y-104170000D03*
X146040000Y-104170000D03*
X143500000Y-104170000D03*
X148580000Y-106710000D03*
X146040000Y-106710000D03*
X143500000Y-106710000D03*
X148580000Y-109250000D03*
X146040000Y-109250000D03*
X143500000Y-109250000D03*
X148580000Y-111790000D03*
X146040000Y-111790000D03*
X143500000Y-111790000D03*
%TD*%
D12*
%TO.C,R1-8*%
X157480000Y-52060000D03*
D13*
X157480000Y-54600000D03*
X157480000Y-57140000D03*
X157480000Y-59680000D03*
X157480000Y-62220000D03*
X157480000Y-64760000D03*
X157480000Y-67300000D03*
X157480000Y-69840000D03*
X165100000Y-69840000D03*
X165100000Y-67300000D03*
X165100000Y-64760000D03*
X165100000Y-62220000D03*
X165100000Y-59680000D03*
X165100000Y-57140000D03*
X165100000Y-54600000D03*
X165100000Y-52060000D03*
%TD*%
D14*
%TO.C,R2*%
X201220000Y-96760000D03*
D15*
X208840000Y-96760000D03*
%TD*%
D14*
%TO.C,R1*%
X201220000Y-86360000D03*
D15*
X208840000Y-86360000D03*
%TD*%
D16*
%TO.C,PEDAL1*%
X218355000Y-106185000D03*
X218355000Y-122415000D03*
X224705000Y-106185000D03*
X224705000Y-122415000D03*
X212005000Y-106185000D03*
X212005000Y-122415000D03*
%TD*%
D17*
%TO.C,SHIFT2*%
X176480000Y-102860000D03*
D18*
X179020000Y-102860000D03*
X181560000Y-102860000D03*
X184100000Y-102860000D03*
X186640000Y-102860000D03*
X189180000Y-102860000D03*
X191720000Y-102860000D03*
X194260000Y-102860000D03*
X194260000Y-95240000D03*
X191720000Y-95240000D03*
X189180000Y-95240000D03*
X186640000Y-95240000D03*
X184100000Y-95240000D03*
X181560000Y-95240000D03*
X179020000Y-95240000D03*
X176480000Y-95240000D03*
%TD*%
D19*
%TO.C,MIDI1*%
X216500000Y-84237500D03*
X216500000Y-91742500D03*
X216500000Y-99247500D03*
X214010000Y-86737500D03*
X214010000Y-96747500D03*
X226510000Y-89242500D03*
X226510000Y-94242500D03*
D20*
X221510000Y-84237500D03*
X221510000Y-99247500D03*
%TD*%
D17*
%TO.C,SHIFT3*%
X176520000Y-90160000D03*
D18*
X179060000Y-90160000D03*
X181600000Y-90160000D03*
X184140000Y-90160000D03*
X186680000Y-90160000D03*
X189220000Y-90160000D03*
X191760000Y-90160000D03*
X194300000Y-90160000D03*
X194300000Y-82540000D03*
X191760000Y-82540000D03*
X189220000Y-82540000D03*
X186680000Y-82540000D03*
X184140000Y-82540000D03*
X181600000Y-82540000D03*
X179060000Y-82540000D03*
X176520000Y-82540000D03*
%TD*%
D12*
%TO.C,R17-24*%
X157480000Y-95240000D03*
D13*
X157480000Y-97780000D03*
X157480000Y-100320000D03*
X157480000Y-102860000D03*
X157480000Y-105400000D03*
X157480000Y-107940000D03*
X157480000Y-110480000D03*
X157480000Y-113020000D03*
X165100000Y-113020000D03*
X165100000Y-110480000D03*
X165100000Y-107940000D03*
X165100000Y-105400000D03*
X165100000Y-102860000D03*
X165100000Y-100320000D03*
X165100000Y-97780000D03*
X165100000Y-95240000D03*
%TD*%
D17*
%TO.C,SHIFT1*%
X176520000Y-115840000D03*
D18*
X179060000Y-115840000D03*
X181600000Y-115840000D03*
X184140000Y-115840000D03*
X186680000Y-115840000D03*
X189220000Y-115840000D03*
X191760000Y-115840000D03*
X194300000Y-115840000D03*
X194300000Y-108220000D03*
X191760000Y-108220000D03*
X189220000Y-108220000D03*
X186680000Y-108220000D03*
X184140000Y-108220000D03*
X181600000Y-108220000D03*
X179060000Y-108220000D03*
X176520000Y-108220000D03*
%TD*%
D21*
%TO.C,B1*%
X227330000Y-74855800D03*
D22*
X224790000Y-74855800D03*
X222250000Y-74855800D03*
X219710000Y-74855800D03*
X217170000Y-74855800D03*
X214630000Y-74855800D03*
X212090000Y-74855800D03*
X209550000Y-74855800D03*
X207010000Y-74855800D03*
X204470000Y-74855800D03*
X201930000Y-74855800D03*
X199390000Y-74855800D03*
X196850000Y-74855800D03*
X194310000Y-74855800D03*
X191770000Y-74855800D03*
X189230000Y-74855800D03*
X186690000Y-74855800D03*
X184150000Y-74855800D03*
X181610000Y-74855800D03*
X179070000Y-74855800D03*
X179070000Y-51995800D03*
X181610000Y-51995800D03*
X184150000Y-51995800D03*
X186690000Y-51995800D03*
X189230000Y-51995800D03*
X191770000Y-51995800D03*
X194310000Y-51995800D03*
X196850000Y-51995800D03*
X199390000Y-51995800D03*
X201930000Y-51995800D03*
X204470000Y-51995800D03*
X207010000Y-51995800D03*
X209550000Y-51995800D03*
X212090000Y-51995800D03*
X214630000Y-51995800D03*
X217170000Y-51995800D03*
X219710000Y-51995800D03*
X222250000Y-51995800D03*
X224790000Y-51995800D03*
D21*
X227330000Y-51995800D03*
%TD*%
D23*
%TO.C,BREAKOUT1*%
X142240000Y-121920000D03*
D24*
X144780000Y-121920000D03*
X147320000Y-121920000D03*
X149860000Y-121920000D03*
X152400000Y-121920000D03*
X154940000Y-121920000D03*
X157480000Y-121920000D03*
X160020000Y-121920000D03*
X162560000Y-121920000D03*
X165100000Y-121920000D03*
X167640000Y-121920000D03*
X170180000Y-121920000D03*
X172720000Y-121920000D03*
X175260000Y-121920000D03*
X177800000Y-121920000D03*
X180340000Y-121920000D03*
X182880000Y-121920000D03*
X185420000Y-121920000D03*
X187960000Y-121920000D03*
X190500000Y-121920000D03*
X193040000Y-121920000D03*
X195580000Y-121920000D03*
X198120000Y-121920000D03*
X200660000Y-121920000D03*
%TD*%
D12*
%TO.C,R9-16*%
X157480000Y-73660000D03*
D13*
X157480000Y-76200000D03*
X157480000Y-78740000D03*
X157480000Y-81280000D03*
X157480000Y-83820000D03*
X157480000Y-86360000D03*
X157480000Y-88900000D03*
X157480000Y-91440000D03*
X165100000Y-91440000D03*
X165100000Y-88900000D03*
X165100000Y-86360000D03*
X165100000Y-83820000D03*
X165100000Y-81280000D03*
X165100000Y-78740000D03*
X165100000Y-76200000D03*
X165100000Y-73660000D03*
%TD*%
M02*
