%TF.GenerationSoftware,KiCad,Pcbnew,(6.0.10-0)*%
%TF.CreationDate,2023-11-17T22:41:49+01:00*%
%TF.ProjectId,JazzHands-v0.2,4a617a7a-4861-46e6-9473-2d76302e322e,rev?*%
%TF.SameCoordinates,Original*%
%TF.FileFunction,Legend,Top*%
%TF.FilePolarity,Positive*%
%FSLAX46Y46*%
G04 Gerber Fmt 4.6, Leading zero omitted, Abs format (unit mm)*
G04 Created by KiCad (PCBNEW (6.0.10-0)) date 2023-11-17 22:41:49*
%MOMM*%
%LPD*%
G01*
G04 APERTURE LIST*
%ADD10C,0.150000*%
%ADD11C,0.254000*%
%ADD12C,0.127000*%
%ADD13C,0.200000*%
%ADD14C,0.120000*%
%ADD15C,0.100000*%
G04 APERTURE END LIST*
D10*
%TO.C,J1*%
X139862380Y-111473333D02*
X140576666Y-111473333D01*
X140719523Y-111520952D01*
X140814761Y-111616190D01*
X140862380Y-111759047D01*
X140862380Y-111854285D01*
X140862380Y-110473333D02*
X140862380Y-111044761D01*
X140862380Y-110759047D02*
X139862380Y-110759047D01*
X140005238Y-110854285D01*
X140100476Y-110949523D01*
X140148095Y-111044761D01*
%TO.C,R1-8*%
X160028095Y-50182380D02*
X159694761Y-49706190D01*
X159456666Y-50182380D02*
X159456666Y-49182380D01*
X159837619Y-49182380D01*
X159932857Y-49230000D01*
X159980476Y-49277619D01*
X160028095Y-49372857D01*
X160028095Y-49515714D01*
X159980476Y-49610952D01*
X159932857Y-49658571D01*
X159837619Y-49706190D01*
X159456666Y-49706190D01*
X160980476Y-50182380D02*
X160409047Y-50182380D01*
X160694761Y-50182380D02*
X160694761Y-49182380D01*
X160599523Y-49325238D01*
X160504285Y-49420476D01*
X160409047Y-49468095D01*
X161409047Y-49801428D02*
X162170952Y-49801428D01*
X162790000Y-49610952D02*
X162694761Y-49563333D01*
X162647142Y-49515714D01*
X162599523Y-49420476D01*
X162599523Y-49372857D01*
X162647142Y-49277619D01*
X162694761Y-49230000D01*
X162790000Y-49182380D01*
X162980476Y-49182380D01*
X163075714Y-49230000D01*
X163123333Y-49277619D01*
X163170952Y-49372857D01*
X163170952Y-49420476D01*
X163123333Y-49515714D01*
X163075714Y-49563333D01*
X162980476Y-49610952D01*
X162790000Y-49610952D01*
X162694761Y-49658571D01*
X162647142Y-49706190D01*
X162599523Y-49801428D01*
X162599523Y-49991904D01*
X162647142Y-50087142D01*
X162694761Y-50134761D01*
X162790000Y-50182380D01*
X162980476Y-50182380D01*
X163075714Y-50134761D01*
X163123333Y-50087142D01*
X163170952Y-49991904D01*
X163170952Y-49801428D01*
X163123333Y-49706190D01*
X163075714Y-49658571D01*
X162980476Y-49610952D01*
%TO.C,R2*%
X204863333Y-94842380D02*
X204530000Y-94366190D01*
X204291904Y-94842380D02*
X204291904Y-93842380D01*
X204672857Y-93842380D01*
X204768095Y-93890000D01*
X204815714Y-93937619D01*
X204863333Y-94032857D01*
X204863333Y-94175714D01*
X204815714Y-94270952D01*
X204768095Y-94318571D01*
X204672857Y-94366190D01*
X204291904Y-94366190D01*
X205244285Y-93937619D02*
X205291904Y-93890000D01*
X205387142Y-93842380D01*
X205625238Y-93842380D01*
X205720476Y-93890000D01*
X205768095Y-93937619D01*
X205815714Y-94032857D01*
X205815714Y-94128095D01*
X205768095Y-94270952D01*
X205196666Y-94842380D01*
X205815714Y-94842380D01*
%TO.C,R1*%
X204863333Y-84442380D02*
X204530000Y-83966190D01*
X204291904Y-84442380D02*
X204291904Y-83442380D01*
X204672857Y-83442380D01*
X204768095Y-83490000D01*
X204815714Y-83537619D01*
X204863333Y-83632857D01*
X204863333Y-83775714D01*
X204815714Y-83870952D01*
X204768095Y-83918571D01*
X204672857Y-83966190D01*
X204291904Y-83966190D01*
X205815714Y-84442380D02*
X205244285Y-84442380D01*
X205530000Y-84442380D02*
X205530000Y-83442380D01*
X205434761Y-83585238D01*
X205339523Y-83680476D01*
X205244285Y-83728095D01*
%TO.C,PEDAL1*%
X215831190Y-103637380D02*
X215831190Y-102637380D01*
X216212142Y-102637380D01*
X216307380Y-102685000D01*
X216355000Y-102732619D01*
X216402619Y-102827857D01*
X216402619Y-102970714D01*
X216355000Y-103065952D01*
X216307380Y-103113571D01*
X216212142Y-103161190D01*
X215831190Y-103161190D01*
X216831190Y-103113571D02*
X217164523Y-103113571D01*
X217307380Y-103637380D02*
X216831190Y-103637380D01*
X216831190Y-102637380D01*
X217307380Y-102637380D01*
X217735952Y-103637380D02*
X217735952Y-102637380D01*
X217974047Y-102637380D01*
X218116904Y-102685000D01*
X218212142Y-102780238D01*
X218259761Y-102875476D01*
X218307380Y-103065952D01*
X218307380Y-103208809D01*
X218259761Y-103399285D01*
X218212142Y-103494523D01*
X218116904Y-103589761D01*
X217974047Y-103637380D01*
X217735952Y-103637380D01*
X218688333Y-103351666D02*
X219164523Y-103351666D01*
X218593095Y-103637380D02*
X218926428Y-102637380D01*
X219259761Y-103637380D01*
X220069285Y-103637380D02*
X219593095Y-103637380D01*
X219593095Y-102637380D01*
X220926428Y-103637380D02*
X220355000Y-103637380D01*
X220640714Y-103637380D02*
X220640714Y-102637380D01*
X220545476Y-102780238D01*
X220450238Y-102875476D01*
X220355000Y-102923095D01*
%TO.C,SHIFT2*%
X174554761Y-101383333D02*
X174602380Y-101240476D01*
X174602380Y-101002380D01*
X174554761Y-100907142D01*
X174507142Y-100859523D01*
X174411904Y-100811904D01*
X174316666Y-100811904D01*
X174221428Y-100859523D01*
X174173809Y-100907142D01*
X174126190Y-101002380D01*
X174078571Y-101192857D01*
X174030952Y-101288095D01*
X173983333Y-101335714D01*
X173888095Y-101383333D01*
X173792857Y-101383333D01*
X173697619Y-101335714D01*
X173650000Y-101288095D01*
X173602380Y-101192857D01*
X173602380Y-100954761D01*
X173650000Y-100811904D01*
X174602380Y-100383333D02*
X173602380Y-100383333D01*
X174078571Y-100383333D02*
X174078571Y-99811904D01*
X174602380Y-99811904D02*
X173602380Y-99811904D01*
X174602380Y-99335714D02*
X173602380Y-99335714D01*
X174078571Y-98526190D02*
X174078571Y-98859523D01*
X174602380Y-98859523D02*
X173602380Y-98859523D01*
X173602380Y-98383333D01*
X173602380Y-98145238D02*
X173602380Y-97573809D01*
X174602380Y-97859523D02*
X173602380Y-97859523D01*
X173697619Y-97288095D02*
X173650000Y-97240476D01*
X173602380Y-97145238D01*
X173602380Y-96907142D01*
X173650000Y-96811904D01*
X173697619Y-96764285D01*
X173792857Y-96716666D01*
X173888095Y-96716666D01*
X174030952Y-96764285D01*
X174602380Y-97335714D01*
X174602380Y-96716666D01*
D11*
%TO.C,MIDI1*%
X218712142Y-92014023D02*
X218712142Y-90744023D01*
X219135476Y-91651166D01*
X219558809Y-90744023D01*
X219558809Y-92014023D01*
X220163571Y-92014023D02*
X220163571Y-90744023D01*
X220768333Y-92014023D02*
X220768333Y-90744023D01*
X221070714Y-90744023D01*
X221252142Y-90804500D01*
X221373095Y-90925452D01*
X221433571Y-91046404D01*
X221494047Y-91288309D01*
X221494047Y-91469738D01*
X221433571Y-91711642D01*
X221373095Y-91832595D01*
X221252142Y-91953547D01*
X221070714Y-92014023D01*
X220768333Y-92014023D01*
X222038333Y-92014023D02*
X222038333Y-90744023D01*
X223308333Y-92014023D02*
X222582619Y-92014023D01*
X222945476Y-92014023D02*
X222945476Y-90744023D01*
X222824523Y-90925452D01*
X222703571Y-91046404D01*
X222582619Y-91106880D01*
D10*
%TO.C,SHIFT3*%
X174594761Y-88683333D02*
X174642380Y-88540476D01*
X174642380Y-88302380D01*
X174594761Y-88207142D01*
X174547142Y-88159523D01*
X174451904Y-88111904D01*
X174356666Y-88111904D01*
X174261428Y-88159523D01*
X174213809Y-88207142D01*
X174166190Y-88302380D01*
X174118571Y-88492857D01*
X174070952Y-88588095D01*
X174023333Y-88635714D01*
X173928095Y-88683333D01*
X173832857Y-88683333D01*
X173737619Y-88635714D01*
X173690000Y-88588095D01*
X173642380Y-88492857D01*
X173642380Y-88254761D01*
X173690000Y-88111904D01*
X174642380Y-87683333D02*
X173642380Y-87683333D01*
X174118571Y-87683333D02*
X174118571Y-87111904D01*
X174642380Y-87111904D02*
X173642380Y-87111904D01*
X174642380Y-86635714D02*
X173642380Y-86635714D01*
X174118571Y-85826190D02*
X174118571Y-86159523D01*
X174642380Y-86159523D02*
X173642380Y-86159523D01*
X173642380Y-85683333D01*
X173642380Y-85445238D02*
X173642380Y-84873809D01*
X174642380Y-85159523D02*
X173642380Y-85159523D01*
X173642380Y-84635714D02*
X173642380Y-84016666D01*
X174023333Y-84350000D01*
X174023333Y-84207142D01*
X174070952Y-84111904D01*
X174118571Y-84064285D01*
X174213809Y-84016666D01*
X174451904Y-84016666D01*
X174547142Y-84064285D01*
X174594761Y-84111904D01*
X174642380Y-84207142D01*
X174642380Y-84492857D01*
X174594761Y-84588095D01*
X174547142Y-84635714D01*
%TO.C,R17-24*%
X159075714Y-93362380D02*
X158742380Y-92886190D01*
X158504285Y-93362380D02*
X158504285Y-92362380D01*
X158885238Y-92362380D01*
X158980476Y-92410000D01*
X159028095Y-92457619D01*
X159075714Y-92552857D01*
X159075714Y-92695714D01*
X159028095Y-92790952D01*
X158980476Y-92838571D01*
X158885238Y-92886190D01*
X158504285Y-92886190D01*
X160028095Y-93362380D02*
X159456666Y-93362380D01*
X159742380Y-93362380D02*
X159742380Y-92362380D01*
X159647142Y-92505238D01*
X159551904Y-92600476D01*
X159456666Y-92648095D01*
X160361428Y-92362380D02*
X161028095Y-92362380D01*
X160599523Y-93362380D01*
X161409047Y-92981428D02*
X162170952Y-92981428D01*
X162599523Y-92457619D02*
X162647142Y-92410000D01*
X162742380Y-92362380D01*
X162980476Y-92362380D01*
X163075714Y-92410000D01*
X163123333Y-92457619D01*
X163170952Y-92552857D01*
X163170952Y-92648095D01*
X163123333Y-92790952D01*
X162551904Y-93362380D01*
X163170952Y-93362380D01*
X164028095Y-92695714D02*
X164028095Y-93362380D01*
X163790000Y-92314761D02*
X163551904Y-93029047D01*
X164170952Y-93029047D01*
%TO.C,SHIFT1*%
X174594761Y-114363333D02*
X174642380Y-114220476D01*
X174642380Y-113982380D01*
X174594761Y-113887142D01*
X174547142Y-113839523D01*
X174451904Y-113791904D01*
X174356666Y-113791904D01*
X174261428Y-113839523D01*
X174213809Y-113887142D01*
X174166190Y-113982380D01*
X174118571Y-114172857D01*
X174070952Y-114268095D01*
X174023333Y-114315714D01*
X173928095Y-114363333D01*
X173832857Y-114363333D01*
X173737619Y-114315714D01*
X173690000Y-114268095D01*
X173642380Y-114172857D01*
X173642380Y-113934761D01*
X173690000Y-113791904D01*
X174642380Y-113363333D02*
X173642380Y-113363333D01*
X174118571Y-113363333D02*
X174118571Y-112791904D01*
X174642380Y-112791904D02*
X173642380Y-112791904D01*
X174642380Y-112315714D02*
X173642380Y-112315714D01*
X174118571Y-111506190D02*
X174118571Y-111839523D01*
X174642380Y-111839523D02*
X173642380Y-111839523D01*
X173642380Y-111363333D01*
X173642380Y-111125238D02*
X173642380Y-110553809D01*
X174642380Y-110839523D02*
X173642380Y-110839523D01*
X174642380Y-109696666D02*
X174642380Y-110268095D01*
X174642380Y-109982380D02*
X173642380Y-109982380D01*
X173785238Y-110077619D01*
X173880476Y-110172857D01*
X173928095Y-110268095D01*
D12*
%TO.C,B1*%
X226016457Y-63672542D02*
X226045485Y-63585457D01*
X226074514Y-63556428D01*
X226132571Y-63527400D01*
X226219657Y-63527400D01*
X226277714Y-63556428D01*
X226306742Y-63585457D01*
X226335771Y-63643514D01*
X226335771Y-63875742D01*
X225726171Y-63875742D01*
X225726171Y-63672542D01*
X225755200Y-63614485D01*
X225784228Y-63585457D01*
X225842285Y-63556428D01*
X225900342Y-63556428D01*
X225958400Y-63585457D01*
X225987428Y-63614485D01*
X226016457Y-63672542D01*
X226016457Y-63875742D01*
X226335771Y-62946828D02*
X226335771Y-63295171D01*
X226335771Y-63121000D02*
X225726171Y-63121000D01*
X225813257Y-63179057D01*
X225871314Y-63237114D01*
X225900342Y-63295171D01*
X227286457Y-70174942D02*
X227286457Y-69971742D01*
X227605771Y-69884657D02*
X227605771Y-70174942D01*
X226996171Y-70174942D01*
X226996171Y-69884657D01*
X227576742Y-69652428D02*
X227605771Y-69565342D01*
X227605771Y-69420200D01*
X227576742Y-69362142D01*
X227547714Y-69333114D01*
X227489657Y-69304085D01*
X227431600Y-69304085D01*
X227373542Y-69333114D01*
X227344514Y-69362142D01*
X227315485Y-69420200D01*
X227286457Y-69536314D01*
X227257428Y-69594371D01*
X227228400Y-69623400D01*
X227170342Y-69652428D01*
X227112285Y-69652428D01*
X227054228Y-69623400D01*
X227025200Y-69594371D01*
X226996171Y-69536314D01*
X226996171Y-69391171D01*
X227025200Y-69304085D01*
X227605771Y-69042828D02*
X226996171Y-69042828D01*
X226996171Y-68810600D01*
X227025200Y-68752542D01*
X227054228Y-68723514D01*
X227112285Y-68694485D01*
X227199371Y-68694485D01*
X227257428Y-68723514D01*
X227286457Y-68752542D01*
X227315485Y-68810600D01*
X227315485Y-69042828D01*
X226996171Y-68491285D02*
X226996171Y-68113914D01*
X227228400Y-68317114D01*
X227228400Y-68230028D01*
X227257428Y-68171971D01*
X227286457Y-68142942D01*
X227344514Y-68113914D01*
X227489657Y-68113914D01*
X227547714Y-68142942D01*
X227576742Y-68171971D01*
X227605771Y-68230028D01*
X227605771Y-68404200D01*
X227576742Y-68462257D01*
X227547714Y-68491285D01*
X227054228Y-67881685D02*
X227025200Y-67852657D01*
X226996171Y-67794600D01*
X226996171Y-67649457D01*
X227025200Y-67591400D01*
X227054228Y-67562371D01*
X227112285Y-67533342D01*
X227170342Y-67533342D01*
X227257428Y-67562371D01*
X227605771Y-67910714D01*
X227605771Y-67533342D01*
X227663828Y-67417228D02*
X227663828Y-66952771D01*
X226996171Y-66894714D02*
X226996171Y-66546371D01*
X227605771Y-66720542D02*
X226996171Y-66720542D01*
X227605771Y-66343171D02*
X226996171Y-66343171D01*
X227286457Y-66343171D02*
X227286457Y-65994828D01*
X227605771Y-65994828D02*
X226996171Y-65994828D01*
X227605771Y-65704542D02*
X226996171Y-65704542D01*
X227605771Y-65414257D02*
X226996171Y-65414257D01*
X227605771Y-65065914D01*
X226996171Y-65065914D01*
X227025200Y-64456314D02*
X226996171Y-64514371D01*
X226996171Y-64601457D01*
X227025200Y-64688542D01*
X227083257Y-64746600D01*
X227141314Y-64775628D01*
X227257428Y-64804657D01*
X227344514Y-64804657D01*
X227460628Y-64775628D01*
X227518685Y-64746600D01*
X227576742Y-64688542D01*
X227605771Y-64601457D01*
X227605771Y-64543400D01*
X227576742Y-64456314D01*
X227547714Y-64427285D01*
X227344514Y-64427285D01*
X227344514Y-64543400D01*
X227663828Y-64311171D02*
X227663828Y-63846714D01*
X226996171Y-63759628D02*
X227605771Y-63614485D01*
X227170342Y-63498371D01*
X227605771Y-63382257D01*
X226996171Y-63237114D01*
X227663828Y-63150028D02*
X227663828Y-62685571D01*
X227431600Y-62569457D02*
X227431600Y-62279171D01*
X227605771Y-62627514D02*
X226996171Y-62424314D01*
X227605771Y-62221114D01*
X227605771Y-62017914D02*
X226996171Y-62017914D01*
X227605771Y-61669571D01*
X226996171Y-61669571D01*
X226996171Y-61466371D02*
X226996171Y-61118028D01*
X227605771Y-61292200D02*
X226996171Y-61292200D01*
X227663828Y-61059971D02*
X227663828Y-60595514D01*
X227605771Y-60450371D02*
X226996171Y-60450371D01*
X227605771Y-60102028D02*
X227257428Y-60363285D01*
X226996171Y-60102028D02*
X227344514Y-60450371D01*
X227286457Y-59840771D02*
X227286457Y-59637571D01*
X227605771Y-59550485D02*
X227605771Y-59840771D01*
X226996171Y-59840771D01*
X226996171Y-59550485D01*
X227286457Y-59289228D02*
X227286457Y-59086028D01*
X227605771Y-58998942D02*
X227605771Y-59289228D01*
X226996171Y-59289228D01*
X226996171Y-58998942D01*
X227605771Y-58737685D02*
X226996171Y-58737685D01*
X226996171Y-58505457D01*
X227025200Y-58447400D01*
X227054228Y-58418371D01*
X227112285Y-58389342D01*
X227199371Y-58389342D01*
X227257428Y-58418371D01*
X227286457Y-58447400D01*
X227315485Y-58505457D01*
X227315485Y-58737685D01*
X226996171Y-58011971D02*
X226996171Y-57895857D01*
X227025200Y-57837800D01*
X227083257Y-57779742D01*
X227199371Y-57750714D01*
X227402571Y-57750714D01*
X227518685Y-57779742D01*
X227576742Y-57837800D01*
X227605771Y-57895857D01*
X227605771Y-58011971D01*
X227576742Y-58070028D01*
X227518685Y-58128085D01*
X227402571Y-58157114D01*
X227199371Y-58157114D01*
X227083257Y-58128085D01*
X227025200Y-58070028D01*
X226996171Y-58011971D01*
X226996171Y-57489457D02*
X227489657Y-57489457D01*
X227547714Y-57460428D01*
X227576742Y-57431400D01*
X227605771Y-57373342D01*
X227605771Y-57257228D01*
X227576742Y-57199171D01*
X227547714Y-57170142D01*
X227489657Y-57141114D01*
X226996171Y-57141114D01*
X226996171Y-56937914D02*
X226996171Y-56589571D01*
X227605771Y-56763742D02*
X226996171Y-56763742D01*
D10*
%TO.C,BREAKOUT1*%
X141065714Y-119308571D02*
X141208571Y-119356190D01*
X141256190Y-119403809D01*
X141303809Y-119499047D01*
X141303809Y-119641904D01*
X141256190Y-119737142D01*
X141208571Y-119784761D01*
X141113333Y-119832380D01*
X140732380Y-119832380D01*
X140732380Y-118832380D01*
X141065714Y-118832380D01*
X141160952Y-118880000D01*
X141208571Y-118927619D01*
X141256190Y-119022857D01*
X141256190Y-119118095D01*
X141208571Y-119213333D01*
X141160952Y-119260952D01*
X141065714Y-119308571D01*
X140732380Y-119308571D01*
X142303809Y-119832380D02*
X141970476Y-119356190D01*
X141732380Y-119832380D02*
X141732380Y-118832380D01*
X142113333Y-118832380D01*
X142208571Y-118880000D01*
X142256190Y-118927619D01*
X142303809Y-119022857D01*
X142303809Y-119165714D01*
X142256190Y-119260952D01*
X142208571Y-119308571D01*
X142113333Y-119356190D01*
X141732380Y-119356190D01*
X142732380Y-119308571D02*
X143065714Y-119308571D01*
X143208571Y-119832380D02*
X142732380Y-119832380D01*
X142732380Y-118832380D01*
X143208571Y-118832380D01*
X143589523Y-119546666D02*
X144065714Y-119546666D01*
X143494285Y-119832380D02*
X143827619Y-118832380D01*
X144160952Y-119832380D01*
X144494285Y-119832380D02*
X144494285Y-118832380D01*
X145065714Y-119832380D02*
X144637142Y-119260952D01*
X145065714Y-118832380D02*
X144494285Y-119403809D01*
X145684761Y-118832380D02*
X145875238Y-118832380D01*
X145970476Y-118880000D01*
X146065714Y-118975238D01*
X146113333Y-119165714D01*
X146113333Y-119499047D01*
X146065714Y-119689523D01*
X145970476Y-119784761D01*
X145875238Y-119832380D01*
X145684761Y-119832380D01*
X145589523Y-119784761D01*
X145494285Y-119689523D01*
X145446666Y-119499047D01*
X145446666Y-119165714D01*
X145494285Y-118975238D01*
X145589523Y-118880000D01*
X145684761Y-118832380D01*
X146541904Y-118832380D02*
X146541904Y-119641904D01*
X146589523Y-119737142D01*
X146637142Y-119784761D01*
X146732380Y-119832380D01*
X146922857Y-119832380D01*
X147018095Y-119784761D01*
X147065714Y-119737142D01*
X147113333Y-119641904D01*
X147113333Y-118832380D01*
X147446666Y-118832380D02*
X148018095Y-118832380D01*
X147732380Y-119832380D02*
X147732380Y-118832380D01*
X148875238Y-119832380D02*
X148303809Y-119832380D01*
X148589523Y-119832380D02*
X148589523Y-118832380D01*
X148494285Y-118975238D01*
X148399047Y-119070476D01*
X148303809Y-119118095D01*
%TO.C,R9-16*%
X159551904Y-71782380D02*
X159218571Y-71306190D01*
X158980476Y-71782380D02*
X158980476Y-70782380D01*
X159361428Y-70782380D01*
X159456666Y-70830000D01*
X159504285Y-70877619D01*
X159551904Y-70972857D01*
X159551904Y-71115714D01*
X159504285Y-71210952D01*
X159456666Y-71258571D01*
X159361428Y-71306190D01*
X158980476Y-71306190D01*
X160028095Y-71782380D02*
X160218571Y-71782380D01*
X160313809Y-71734761D01*
X160361428Y-71687142D01*
X160456666Y-71544285D01*
X160504285Y-71353809D01*
X160504285Y-70972857D01*
X160456666Y-70877619D01*
X160409047Y-70830000D01*
X160313809Y-70782380D01*
X160123333Y-70782380D01*
X160028095Y-70830000D01*
X159980476Y-70877619D01*
X159932857Y-70972857D01*
X159932857Y-71210952D01*
X159980476Y-71306190D01*
X160028095Y-71353809D01*
X160123333Y-71401428D01*
X160313809Y-71401428D01*
X160409047Y-71353809D01*
X160456666Y-71306190D01*
X160504285Y-71210952D01*
X160932857Y-71401428D02*
X161694761Y-71401428D01*
X162694761Y-71782380D02*
X162123333Y-71782380D01*
X162409047Y-71782380D02*
X162409047Y-70782380D01*
X162313809Y-70925238D01*
X162218571Y-71020476D01*
X162123333Y-71068095D01*
X163551904Y-70782380D02*
X163361428Y-70782380D01*
X163266190Y-70830000D01*
X163218571Y-70877619D01*
X163123333Y-71020476D01*
X163075714Y-71210952D01*
X163075714Y-71591904D01*
X163123333Y-71687142D01*
X163170952Y-71734761D01*
X163266190Y-71782380D01*
X163456666Y-71782380D01*
X163551904Y-71734761D01*
X163599523Y-71687142D01*
X163647142Y-71591904D01*
X163647142Y-71353809D01*
X163599523Y-71258571D01*
X163551904Y-71210952D01*
X163456666Y-71163333D01*
X163266190Y-71163333D01*
X163170952Y-71210952D01*
X163123333Y-71258571D01*
X163075714Y-71353809D01*
D13*
%TO.C,J1*%
X142295000Y-51845000D02*
X142295000Y-113315000D01*
X149785000Y-113315000D02*
X142295000Y-113315000D01*
X142295000Y-51845000D02*
X149785000Y-51845000D01*
X149785000Y-51845000D02*
X149785000Y-113315000D01*
X148680000Y-51195000D02*
G75*
G03*
X148680000Y-51195000I-100000J0D01*
G01*
D14*
%TO.C,R1-8*%
X156040000Y-50670000D02*
X156040000Y-71230000D01*
X166540000Y-50670000D02*
X156040000Y-50670000D01*
X163540000Y-50730000D02*
X162290000Y-50730000D01*
X159040000Y-71170000D02*
X163540000Y-71170000D01*
X163540000Y-71170000D02*
X163540000Y-50730000D01*
X160290000Y-50730000D02*
X159040000Y-50730000D01*
X159040000Y-50730000D02*
X159040000Y-71170000D01*
X156040000Y-71230000D02*
X166540000Y-71230000D01*
X166540000Y-71230000D02*
X166540000Y-50670000D01*
X160290000Y-50730000D02*
G75*
G03*
X162290000Y-50730000I1000000J0D01*
G01*
%TO.C,R2*%
X208300000Y-98130000D02*
X208300000Y-97800000D01*
X201760000Y-95720000D02*
X201760000Y-95390000D01*
X201760000Y-98130000D02*
X208300000Y-98130000D01*
X201760000Y-95390000D02*
X208300000Y-95390000D01*
X201760000Y-97800000D02*
X201760000Y-98130000D01*
X208300000Y-95390000D02*
X208300000Y-95720000D01*
%TO.C,R1*%
X201760000Y-87730000D02*
X208300000Y-87730000D01*
X201760000Y-87400000D02*
X201760000Y-87730000D01*
X208300000Y-84990000D02*
X208300000Y-85320000D01*
X201760000Y-85320000D02*
X201760000Y-84990000D01*
X208300000Y-87730000D02*
X208300000Y-87400000D01*
X201760000Y-84990000D02*
X208300000Y-84990000D01*
%TO.C,PEDAL1*%
X228825000Y-108480000D02*
X228825000Y-105080000D01*
X223305000Y-123520000D02*
X219705000Y-123520000D01*
X207975000Y-105080000D02*
X210605000Y-105080000D01*
X228825000Y-120120000D02*
X231825000Y-120120000D01*
X205055000Y-118730000D02*
X205055000Y-109830000D01*
X228825000Y-105080000D02*
X226105000Y-105080000D01*
X231825000Y-120120000D02*
X231825000Y-108480000D01*
X219705000Y-105080000D02*
X223305000Y-105080000D01*
X228825000Y-123520000D02*
X226105000Y-123520000D01*
X213405000Y-105080000D02*
X217005000Y-105080000D01*
X205055000Y-118770000D02*
X207975000Y-118770000D01*
X217005000Y-123520000D02*
X213405000Y-123520000D01*
X228825000Y-123520000D02*
X228825000Y-120120000D01*
X210605000Y-123520000D02*
X207975000Y-123520000D01*
X207975000Y-123520000D02*
X207975000Y-118770000D01*
X205055000Y-109830000D02*
X207975000Y-109830000D01*
X228825000Y-108480000D02*
X231825000Y-108480000D01*
X207975000Y-109830000D02*
X207975000Y-105080000D01*
%TO.C,SHIFT2*%
X195590000Y-101300000D02*
X195590000Y-96800000D01*
X175090000Y-93800000D02*
X175090000Y-104300000D01*
X175150000Y-100050000D02*
X175150000Y-101300000D01*
X195590000Y-96800000D02*
X175150000Y-96800000D01*
X175150000Y-96800000D02*
X175150000Y-98050000D01*
X175150000Y-101300000D02*
X195590000Y-101300000D01*
X195650000Y-104300000D02*
X195650000Y-93800000D01*
X195650000Y-93800000D02*
X175090000Y-93800000D01*
X175090000Y-104300000D02*
X195650000Y-104300000D01*
X175150000Y-100050000D02*
G75*
G03*
X175150000Y-98050000I0J1000000D01*
G01*
D15*
%TO.C,MIDI1*%
X229000000Y-101742500D02*
X229000000Y-81742500D01*
D13*
X216400000Y-81237500D02*
X216400000Y-81237500D01*
D15*
X213500000Y-101742500D02*
X229000000Y-101742500D01*
X213500000Y-81742500D02*
X213500000Y-84242500D01*
D13*
X216600000Y-81237500D02*
X216600000Y-81237500D01*
D15*
X229000000Y-81742500D02*
X213500000Y-81742500D01*
X213500000Y-99247500D02*
X213500000Y-101742500D01*
D13*
X216600000Y-81237500D02*
G75*
G03*
X216400000Y-81237500I-100000J0D01*
G01*
X216400000Y-81237500D02*
G75*
G03*
X216600000Y-81237500I100000J0D01*
G01*
D14*
%TO.C,SHIFT3*%
X175190000Y-88600000D02*
X195630000Y-88600000D01*
X195690000Y-91600000D02*
X195690000Y-81100000D01*
X175190000Y-87350000D02*
X175190000Y-88600000D01*
X195630000Y-88600000D02*
X195630000Y-84100000D01*
X175130000Y-81100000D02*
X175130000Y-91600000D01*
X175130000Y-91600000D02*
X195690000Y-91600000D01*
X195690000Y-81100000D02*
X175130000Y-81100000D01*
X175190000Y-84100000D02*
X175190000Y-85350000D01*
X195630000Y-84100000D02*
X175190000Y-84100000D01*
X175190000Y-87350000D02*
G75*
G03*
X175190000Y-85350000I0J1000000D01*
G01*
%TO.C,R17-24*%
X163540000Y-93910000D02*
X162290000Y-93910000D01*
X166540000Y-93850000D02*
X156040000Y-93850000D01*
X166540000Y-114410000D02*
X166540000Y-93850000D01*
X159040000Y-93910000D02*
X159040000Y-114350000D01*
X160290000Y-93910000D02*
X159040000Y-93910000D01*
X159040000Y-114350000D02*
X163540000Y-114350000D01*
X156040000Y-114410000D02*
X166540000Y-114410000D01*
X163540000Y-114350000D02*
X163540000Y-93910000D01*
X156040000Y-93850000D02*
X156040000Y-114410000D01*
X160290000Y-93910000D02*
G75*
G03*
X162290000Y-93910000I1000000J0D01*
G01*
%TO.C,SHIFT1*%
X195690000Y-117280000D02*
X195690000Y-106780000D01*
X195690000Y-106780000D02*
X175130000Y-106780000D01*
X175130000Y-106780000D02*
X175130000Y-117280000D01*
X175190000Y-109780000D02*
X175190000Y-111030000D01*
X175130000Y-117280000D02*
X195690000Y-117280000D01*
X175190000Y-114280000D02*
X195630000Y-114280000D01*
X195630000Y-109780000D02*
X175190000Y-109780000D01*
X175190000Y-113030000D02*
X175190000Y-114280000D01*
X195630000Y-114280000D02*
X195630000Y-109780000D01*
X175190000Y-113030000D02*
G75*
G03*
X175190000Y-111030000I0J1000000D01*
G01*
D12*
%TO.C,B1*%
X169672000Y-76125800D02*
X177165000Y-76125800D01*
X177165000Y-76125800D02*
X177165000Y-50725800D01*
X177165000Y-50725800D02*
X169672000Y-50725800D01*
X169672000Y-76125800D02*
X177165000Y-76125800D01*
X177165000Y-76125800D02*
X177165000Y-50725800D01*
X177165000Y-50725800D02*
X169672000Y-50725800D01*
X169672000Y-50725800D02*
X169672000Y-76125800D01*
X169672000Y-50725800D02*
X169672000Y-76125800D01*
D14*
%TO.C,BREAKOUT1*%
X201990000Y-123250000D02*
X201990000Y-120590000D01*
X143510000Y-123250000D02*
X201990000Y-123250000D01*
X140910000Y-123250000D02*
X140910000Y-121920000D01*
X143510000Y-120590000D02*
X201990000Y-120590000D01*
X142240000Y-123250000D02*
X140910000Y-123250000D01*
X143510000Y-123250000D02*
X143510000Y-120590000D01*
%TO.C,R9-16*%
X160290000Y-72330000D02*
X159040000Y-72330000D01*
X159040000Y-92770000D02*
X163540000Y-92770000D01*
X163540000Y-72330000D02*
X162290000Y-72330000D01*
X166540000Y-92830000D02*
X166540000Y-72270000D01*
X166540000Y-72270000D02*
X156040000Y-72270000D01*
X156040000Y-92830000D02*
X166540000Y-92830000D01*
X163540000Y-92770000D02*
X163540000Y-72330000D01*
X156040000Y-72270000D02*
X156040000Y-92830000D01*
X159040000Y-72330000D02*
X159040000Y-92770000D01*
X160290000Y-72330000D02*
G75*
G03*
X162290000Y-72330000I1000000J0D01*
G01*
%TD*%
M02*
