%TF.GenerationSoftware,KiCad,Pcbnew,(6.0.10-0)*%
%TF.CreationDate,2023-11-17T22:41:49+01:00*%
%TF.ProjectId,JazzHands-v0.2,4a617a7a-4861-46e6-9473-2d76302e322e,rev?*%
%TF.SameCoordinates,Original*%
%TF.FileFunction,Copper,L1,Top*%
%TF.FilePolarity,Positive*%
%FSLAX46Y46*%
G04 Gerber Fmt 4.6, Leading zero omitted, Abs format (unit mm)*
G04 Created by KiCad (PCBNEW (6.0.10-0)) date 2023-11-17 22:41:49*
%MOMM*%
%LPD*%
G01*
G04 APERTURE LIST*
%TA.AperFunction,ComponentPad*%
%ADD10R,1.370000X1.370000*%
%TD*%
%TA.AperFunction,ComponentPad*%
%ADD11C,1.370000*%
%TD*%
%TA.AperFunction,ComponentPad*%
%ADD12R,2.400000X1.600000*%
%TD*%
%TA.AperFunction,ComponentPad*%
%ADD13O,2.400000X1.600000*%
%TD*%
%TA.AperFunction,ComponentPad*%
%ADD14C,1.600000*%
%TD*%
%TA.AperFunction,ComponentPad*%
%ADD15O,1.600000X1.600000*%
%TD*%
%TA.AperFunction,ComponentPad*%
%ADD16C,3.000000*%
%TD*%
%TA.AperFunction,ComponentPad*%
%ADD17R,1.600000X2.400000*%
%TD*%
%TA.AperFunction,ComponentPad*%
%ADD18O,1.600000X2.400000*%
%TD*%
%TA.AperFunction,ComponentPad*%
%ADD19C,2.100000*%
%TD*%
%TA.AperFunction,ComponentPad*%
%ADD20C,3.585000*%
%TD*%
%TA.AperFunction,ComponentPad*%
%ADD21R,1.879600X1.879600*%
%TD*%
%TA.AperFunction,ComponentPad*%
%ADD22C,1.879600*%
%TD*%
%TA.AperFunction,ComponentPad*%
%ADD23R,1.700000X1.700000*%
%TD*%
%TA.AperFunction,ComponentPad*%
%ADD24O,1.700000X1.700000*%
%TD*%
%TA.AperFunction,ViaPad*%
%ADD25C,0.800000*%
%TD*%
%TA.AperFunction,Conductor*%
%ADD26C,0.250000*%
%TD*%
G04 APERTURE END LIST*
D10*
%TO.P,J1,01,01*%
%TO.N,Net-(B1-Pad5)*%
X148580000Y-53370000D03*
D11*
%TO.P,J1,02,02*%
%TO.N,Earth*%
X146040000Y-53370000D03*
%TO.P,J1,03,03*%
%TO.N,Net-(J1-Pad03)*%
X143500000Y-53370000D03*
%TO.P,J1,04,04*%
%TO.N,Net-(B1-Pad5)*%
X148580000Y-55910000D03*
%TO.P,J1,05,05*%
%TO.N,Earth*%
X146040000Y-55910000D03*
%TO.P,J1,06,06*%
%TO.N,Net-(J1-Pad06)*%
X143500000Y-55910000D03*
%TO.P,J1,07,07*%
%TO.N,Net-(B1-Pad5)*%
X148580000Y-58450000D03*
%TO.P,J1,08,08*%
%TO.N,Earth*%
X146040000Y-58450000D03*
%TO.P,J1,09,09*%
%TO.N,Net-(J1-Pad09)*%
X143500000Y-58450000D03*
%TO.P,J1,10,10*%
%TO.N,Net-(B1-Pad5)*%
X148580000Y-60990000D03*
%TO.P,J1,11,11*%
%TO.N,Earth*%
X146040000Y-60990000D03*
%TO.P,J1,12,12*%
%TO.N,Net-(J1-Pad12)*%
X143500000Y-60990000D03*
%TO.P,J1,13,13*%
%TO.N,Net-(B1-Pad5)*%
X148580000Y-63530000D03*
%TO.P,J1,14,14*%
%TO.N,Earth*%
X146040000Y-63530000D03*
%TO.P,J1,15,15*%
%TO.N,Net-(J1-Pad15)*%
X143500000Y-63530000D03*
%TO.P,J1,16,16*%
%TO.N,Net-(B1-Pad5)*%
X148580000Y-66070000D03*
%TO.P,J1,17,17*%
%TO.N,Earth*%
X146040000Y-66070000D03*
%TO.P,J1,18,18*%
%TO.N,Net-(J1-Pad18)*%
X143500000Y-66070000D03*
%TO.P,J1,19,19*%
%TO.N,Net-(B1-Pad5)*%
X148580000Y-68610000D03*
%TO.P,J1,20,20*%
%TO.N,Earth*%
X146040000Y-68610000D03*
%TO.P,J1,21,21*%
%TO.N,Net-(J1-Pad21)*%
X143500000Y-68610000D03*
%TO.P,J1,22,22*%
%TO.N,Net-(B1-Pad5)*%
X148580000Y-71150000D03*
%TO.P,J1,23,23*%
%TO.N,Earth*%
X146040000Y-71150000D03*
%TO.P,J1,24,24*%
%TO.N,Net-(J1-Pad24)*%
X143500000Y-71150000D03*
%TO.P,J1,25,25*%
%TO.N,Net-(B1-Pad5)*%
X148580000Y-73690000D03*
%TO.P,J1,26,26*%
%TO.N,Earth*%
X146040000Y-73690000D03*
%TO.P,J1,27,27*%
%TO.N,Net-(J1-Pad27)*%
X143500000Y-73690000D03*
%TO.P,J1,28,28*%
%TO.N,Net-(B1-Pad5)*%
X148580000Y-76230000D03*
%TO.P,J1,29,29*%
%TO.N,Earth*%
X146040000Y-76230000D03*
%TO.P,J1,30,30*%
%TO.N,Net-(J1-Pad30)*%
X143500000Y-76230000D03*
%TO.P,J1,31,31*%
%TO.N,Net-(B1-Pad5)*%
X148580000Y-78770000D03*
%TO.P,J1,32,32*%
%TO.N,Earth*%
X146040000Y-78770000D03*
%TO.P,J1,33,33*%
%TO.N,Net-(J1-Pad33)*%
X143500000Y-78770000D03*
%TO.P,J1,34,34*%
%TO.N,Net-(B1-Pad5)*%
X148580000Y-81310000D03*
%TO.P,J1,35,35*%
%TO.N,Earth*%
X146040000Y-81310000D03*
%TO.P,J1,36,36*%
%TO.N,Net-(J1-Pad36)*%
X143500000Y-81310000D03*
%TO.P,J1,37,37*%
%TO.N,Net-(B1-Pad5)*%
X148580000Y-83850000D03*
%TO.P,J1,38,38*%
%TO.N,Earth*%
X146040000Y-83850000D03*
%TO.P,J1,39,39*%
%TO.N,Net-(J1-Pad39)*%
X143500000Y-83850000D03*
%TO.P,J1,40,40*%
%TO.N,Net-(B1-Pad5)*%
X148580000Y-86390000D03*
%TO.P,J1,41,41*%
%TO.N,Earth*%
X146040000Y-86390000D03*
%TO.P,J1,42,42*%
%TO.N,Net-(J1-Pad42)*%
X143500000Y-86390000D03*
%TO.P,J1,43,43*%
%TO.N,Net-(B1-Pad5)*%
X148580000Y-88930000D03*
%TO.P,J1,44,44*%
%TO.N,Earth*%
X146040000Y-88930000D03*
%TO.P,J1,45,45*%
%TO.N,Net-(J1-Pad45)*%
X143500000Y-88930000D03*
%TO.P,J1,46,46*%
%TO.N,Net-(B1-Pad5)*%
X148580000Y-91470000D03*
%TO.P,J1,47,47*%
%TO.N,Earth*%
X146040000Y-91470000D03*
%TO.P,J1,48,48*%
%TO.N,Net-(J1-Pad48)*%
X143500000Y-91470000D03*
%TO.P,J1,49,49*%
%TO.N,Net-(B1-Pad5)*%
X148580000Y-94010000D03*
%TO.P,J1,50,50*%
%TO.N,Earth*%
X146040000Y-94010000D03*
%TO.P,J1,51,51*%
%TO.N,Net-(J1-Pad51)*%
X143500000Y-94010000D03*
%TO.P,J1,52,52*%
%TO.N,Net-(B1-Pad5)*%
X148580000Y-96550000D03*
%TO.P,J1,53,53*%
%TO.N,Earth*%
X146040000Y-96550000D03*
%TO.P,J1,54,54*%
%TO.N,Net-(J1-Pad54)*%
X143500000Y-96550000D03*
%TO.P,J1,55,55*%
%TO.N,Net-(B1-Pad5)*%
X148580000Y-99090000D03*
%TO.P,J1,56,56*%
%TO.N,Earth*%
X146040000Y-99090000D03*
%TO.P,J1,57,57*%
%TO.N,Net-(J1-Pad57)*%
X143500000Y-99090000D03*
%TO.P,J1,58,58*%
%TO.N,Net-(B1-Pad5)*%
X148580000Y-101630000D03*
%TO.P,J1,59,59*%
%TO.N,Earth*%
X146040000Y-101630000D03*
%TO.P,J1,60,60*%
%TO.N,Net-(J1-Pad60)*%
X143500000Y-101630000D03*
%TO.P,J1,61,61*%
%TO.N,Net-(B1-Pad5)*%
X148580000Y-104170000D03*
%TO.P,J1,62,62*%
%TO.N,Earth*%
X146040000Y-104170000D03*
%TO.P,J1,63,63*%
%TO.N,Net-(J1-Pad63)*%
X143500000Y-104170000D03*
%TO.P,J1,64,64*%
%TO.N,Net-(B1-Pad5)*%
X148580000Y-106710000D03*
%TO.P,J1,65,65*%
%TO.N,Earth*%
X146040000Y-106710000D03*
%TO.P,J1,66,66*%
%TO.N,Net-(J1-Pad66)*%
X143500000Y-106710000D03*
%TO.P,J1,67,67*%
%TO.N,Net-(B1-Pad5)*%
X148580000Y-109250000D03*
%TO.P,J1,68,68*%
%TO.N,Earth*%
X146040000Y-109250000D03*
%TO.P,J1,69,69*%
%TO.N,Net-(J1-Pad69)*%
X143500000Y-109250000D03*
%TO.P,J1,70,70*%
%TO.N,Net-(B1-Pad5)*%
X148580000Y-111790000D03*
%TO.P,J1,71,71*%
%TO.N,Earth*%
X146040000Y-111790000D03*
%TO.P,J1,72,72*%
%TO.N,Net-(J1-Pad72)*%
X143500000Y-111790000D03*
%TD*%
D12*
%TO.P,R1-8,1,Pin_1*%
%TO.N,Net-(B1-Pad5)*%
X157480000Y-52060000D03*
D13*
%TO.P,R1-8,2,Pin_2*%
X157480000Y-54600000D03*
%TO.P,R1-8,3,Pin_3*%
X157480000Y-57140000D03*
%TO.P,R1-8,4,Pin_4*%
X157480000Y-59680000D03*
%TO.P,R1-8,5,Pin_5*%
X157480000Y-62220000D03*
%TO.P,R1-8,6,Pin_6*%
X157480000Y-64760000D03*
%TO.P,R1-8,7,Pin_7*%
X157480000Y-67300000D03*
%TO.P,R1-8,8,Pin_8*%
X157480000Y-69840000D03*
%TO.P,R1-8,9,Pin_9*%
%TO.N,Net-(J1-Pad24)*%
X165100000Y-69840000D03*
%TO.P,R1-8,10,Pin_10*%
%TO.N,Net-(J1-Pad21)*%
X165100000Y-67300000D03*
%TO.P,R1-8,11,Pin_11*%
%TO.N,Net-(J1-Pad18)*%
X165100000Y-64760000D03*
%TO.P,R1-8,12,Pin_12*%
%TO.N,Net-(J1-Pad15)*%
X165100000Y-62220000D03*
%TO.P,R1-8,13,Pin_13*%
%TO.N,Net-(J1-Pad12)*%
X165100000Y-59680000D03*
%TO.P,R1-8,14,Pin_14*%
%TO.N,Net-(J1-Pad09)*%
X165100000Y-57140000D03*
%TO.P,R1-8,15,Pin_15*%
%TO.N,Net-(J1-Pad06)*%
X165100000Y-54600000D03*
%TO.P,R1-8,16,Pin_16*%
%TO.N,Net-(J1-Pad03)*%
X165100000Y-52060000D03*
%TD*%
D14*
%TO.P,R2,1*%
%TO.N,Net-(MIDI1-Pad5)*%
X201220000Y-96760000D03*
D15*
%TO.P,R2,2*%
%TO.N,Net-(B1-Pad34)*%
X208840000Y-96760000D03*
%TD*%
D14*
%TO.P,R1,1*%
%TO.N,Net-(MIDI1-Pad4)*%
X201220000Y-86360000D03*
D15*
%TO.P,R1,2*%
%TO.N,Net-(B1-Pad5)*%
X208840000Y-86360000D03*
%TD*%
D16*
%TO.P,PEDAL1,R*%
%TO.N,Net-(B1-Pad5)*%
X218355000Y-106185000D03*
%TO.P,PEDAL1,RN*%
%TO.N,N/C*%
X218355000Y-122415000D03*
%TO.P,PEDAL1,S*%
%TO.N,Earth*%
X224705000Y-106185000D03*
%TO.P,PEDAL1,SN*%
%TO.N,N/C*%
X224705000Y-122415000D03*
%TO.P,PEDAL1,T*%
%TO.N,Net-(PEDAL1-PadT)*%
X212005000Y-106185000D03*
%TO.P,PEDAL1,TN*%
%TO.N,N/C*%
X212005000Y-122415000D03*
%TD*%
D17*
%TO.P,SHIFT2,1,Pin_1*%
%TO.N,Net-(B1-Pad22)*%
X176480000Y-102860000D03*
D18*
%TO.P,SHIFT2,2,Pin_2*%
%TO.N,Net-(B1-Pad26)*%
X179020000Y-102860000D03*
%TO.P,SHIFT2,3,Pin_3*%
%TO.N,Net-(J1-Pad39)*%
X181560000Y-102860000D03*
%TO.P,SHIFT2,4,Pin_4*%
%TO.N,Net-(J1-Pad42)*%
X184100000Y-102860000D03*
%TO.P,SHIFT2,5,Pin_5*%
%TO.N,Net-(J1-Pad45)*%
X186640000Y-102860000D03*
%TO.P,SHIFT2,6,Pin_6*%
%TO.N,Net-(J1-Pad48)*%
X189180000Y-102860000D03*
%TO.P,SHIFT2,7,Pin_7*%
%TO.N,unconnected-(SHIFT2-Pad7)*%
X191720000Y-102860000D03*
%TO.P,SHIFT2,8,Pin_8*%
%TO.N,Earth*%
X194260000Y-102860000D03*
%TO.P,SHIFT2,9,Pin_9*%
%TO.N,Net-(SHIFT1-Pad10)*%
X194260000Y-95240000D03*
%TO.P,SHIFT2,10,Pin_10*%
%TO.N,Net-(SHIFT2-Pad10)*%
X191720000Y-95240000D03*
%TO.P,SHIFT2,11,Pin_11*%
%TO.N,Net-(J1-Pad27)*%
X189180000Y-95240000D03*
%TO.P,SHIFT2,12,Pin_12*%
%TO.N,Net-(J1-Pad30)*%
X186640000Y-95240000D03*
%TO.P,SHIFT2,13,Pin_13*%
%TO.N,Net-(J1-Pad33)*%
X184100000Y-95240000D03*
%TO.P,SHIFT2,14,Pin_14*%
%TO.N,Net-(J1-Pad36)*%
X181560000Y-95240000D03*
%TO.P,SHIFT2,15,Pin_15*%
%TO.N,Earth*%
X179020000Y-95240000D03*
%TO.P,SHIFT2,16,Pin_16*%
%TO.N,Net-(B1-Pad5)*%
X176480000Y-95240000D03*
%TD*%
D19*
%TO.P,MIDI1,1,1*%
%TO.N,unconnected-(MIDI1-Pad1)*%
X216500000Y-84237500D03*
%TO.P,MIDI1,2,2*%
%TO.N,unconnected-(MIDI1-Pad2)*%
X216500000Y-91742500D03*
%TO.P,MIDI1,3,3*%
%TO.N,unconnected-(MIDI1-Pad3)*%
X216500000Y-99247500D03*
%TO.P,MIDI1,4,4*%
%TO.N,Net-(MIDI1-Pad4)*%
X214010000Y-86737500D03*
%TO.P,MIDI1,5,5*%
%TO.N,Net-(MIDI1-Pad5)*%
X214010000Y-96747500D03*
%TO.P,MIDI1,6,GND_1*%
%TO.N,Earth*%
X226510000Y-89242500D03*
%TO.P,MIDI1,7,GND_2*%
X226510000Y-94242500D03*
D20*
%TO.P,MIDI1,MH1,MH1*%
%TO.N,unconnected-(MIDI1-PadMH1)*%
X221510000Y-84237500D03*
%TO.P,MIDI1,MH2,MH2*%
%TO.N,unconnected-(MIDI1-PadMH2)*%
X221510000Y-99247500D03*
%TD*%
D17*
%TO.P,SHIFT3,1,Pin_1*%
%TO.N,Net-(B1-Pad22)*%
X176520000Y-90160000D03*
D18*
%TO.P,SHIFT3,2,Pin_2*%
%TO.N,Net-(B1-Pad26)*%
X179060000Y-90160000D03*
%TO.P,SHIFT3,3,Pin_3*%
%TO.N,Net-(J1-Pad15)*%
X181600000Y-90160000D03*
%TO.P,SHIFT3,4,Pin_4*%
%TO.N,Net-(J1-Pad18)*%
X184140000Y-90160000D03*
%TO.P,SHIFT3,5,Pin_5*%
%TO.N,Net-(J1-Pad21)*%
X186680000Y-90160000D03*
%TO.P,SHIFT3,6,Pin_6*%
%TO.N,Net-(J1-Pad24)*%
X189220000Y-90160000D03*
%TO.P,SHIFT3,7,Pin_7*%
%TO.N,unconnected-(SHIFT3-Pad7)*%
X191760000Y-90160000D03*
%TO.P,SHIFT3,8,Pin_8*%
%TO.N,Earth*%
X194300000Y-90160000D03*
%TO.P,SHIFT3,9,Pin_9*%
%TO.N,Net-(SHIFT2-Pad10)*%
X194300000Y-82540000D03*
%TO.P,SHIFT3,10,Pin_10*%
%TO.N,unconnected-(SHIFT3-Pad10)*%
X191760000Y-82540000D03*
%TO.P,SHIFT3,11,Pin_11*%
%TO.N,Net-(J1-Pad03)*%
X189220000Y-82540000D03*
%TO.P,SHIFT3,12,Pin_12*%
%TO.N,Net-(J1-Pad06)*%
X186680000Y-82540000D03*
%TO.P,SHIFT3,13,Pin_13*%
%TO.N,Net-(J1-Pad09)*%
X184140000Y-82540000D03*
%TO.P,SHIFT3,14,Pin_14*%
%TO.N,Net-(J1-Pad12)*%
X181600000Y-82540000D03*
%TO.P,SHIFT3,15,Pin_15*%
%TO.N,Earth*%
X179060000Y-82540000D03*
%TO.P,SHIFT3,16,Pin_16*%
%TO.N,Net-(B1-Pad5)*%
X176520000Y-82540000D03*
%TD*%
D12*
%TO.P,R17-24,1,Pin_1*%
%TO.N,Net-(B1-Pad5)*%
X157480000Y-95240000D03*
D13*
%TO.P,R17-24,2,Pin_2*%
X157480000Y-97780000D03*
%TO.P,R17-24,3,Pin_3*%
X157480000Y-100320000D03*
%TO.P,R17-24,4,Pin_4*%
X157480000Y-102860000D03*
%TO.P,R17-24,5,Pin_5*%
X157480000Y-105400000D03*
%TO.P,R17-24,6,Pin_6*%
X157480000Y-107940000D03*
%TO.P,R17-24,7,Pin_7*%
X157480000Y-110480000D03*
%TO.P,R17-24,8,Pin_8*%
X157480000Y-113020000D03*
%TO.P,R17-24,9,Pin_9*%
%TO.N,Net-(J1-Pad72)*%
X165100000Y-113020000D03*
%TO.P,R17-24,10,Pin_10*%
%TO.N,Net-(J1-Pad69)*%
X165100000Y-110480000D03*
%TO.P,R17-24,11,Pin_11*%
%TO.N,Net-(J1-Pad66)*%
X165100000Y-107940000D03*
%TO.P,R17-24,12,Pin_12*%
%TO.N,Net-(J1-Pad63)*%
X165100000Y-105400000D03*
%TO.P,R17-24,13,Pin_13*%
%TO.N,Net-(J1-Pad60)*%
X165100000Y-102860000D03*
%TO.P,R17-24,14,Pin_14*%
%TO.N,Net-(J1-Pad57)*%
X165100000Y-100320000D03*
%TO.P,R17-24,15,Pin_15*%
%TO.N,Net-(J1-Pad54)*%
X165100000Y-97780000D03*
%TO.P,R17-24,16,Pin_16*%
%TO.N,Net-(J1-Pad51)*%
X165100000Y-95240000D03*
%TD*%
D17*
%TO.P,SHIFT1,1,Pin_1*%
%TO.N,Net-(B1-Pad22)*%
X176520000Y-115840000D03*
D18*
%TO.P,SHIFT1,2,Pin_2*%
%TO.N,Net-(B1-Pad26)*%
X179060000Y-115840000D03*
%TO.P,SHIFT1,3,Pin_3*%
%TO.N,Net-(J1-Pad63)*%
X181600000Y-115840000D03*
%TO.P,SHIFT1,4,Pin_4*%
%TO.N,Net-(J1-Pad66)*%
X184140000Y-115840000D03*
%TO.P,SHIFT1,5,Pin_5*%
%TO.N,Net-(J1-Pad69)*%
X186680000Y-115840000D03*
%TO.P,SHIFT1,6,Pin_6*%
%TO.N,Net-(J1-Pad72)*%
X189220000Y-115840000D03*
%TO.P,SHIFT1,7,Pin_7*%
%TO.N,unconnected-(SHIFT1-Pad7)*%
X191760000Y-115840000D03*
%TO.P,SHIFT1,8,Pin_8*%
%TO.N,Earth*%
X194300000Y-115840000D03*
%TO.P,SHIFT1,9,Pin_9*%
%TO.N,Net-(B1-Pad25)*%
X194300000Y-108220000D03*
%TO.P,SHIFT1,10,Pin_10*%
%TO.N,Net-(SHIFT1-Pad10)*%
X191760000Y-108220000D03*
%TO.P,SHIFT1,11,Pin_11*%
%TO.N,Net-(J1-Pad51)*%
X189220000Y-108220000D03*
%TO.P,SHIFT1,12,Pin_12*%
%TO.N,Net-(J1-Pad54)*%
X186680000Y-108220000D03*
%TO.P,SHIFT1,13,Pin_13*%
%TO.N,Net-(J1-Pad57)*%
X184140000Y-108220000D03*
%TO.P,SHIFT1,14,Pin_14*%
%TO.N,Net-(J1-Pad60)*%
X181600000Y-108220000D03*
%TO.P,SHIFT1,15,Pin_15*%
%TO.N,Earth*%
X179060000Y-108220000D03*
%TO.P,SHIFT1,16,Pin_16*%
%TO.N,Net-(B1-Pad5)*%
X176520000Y-108220000D03*
%TD*%
D21*
%TO.P,B1,1,GND*%
%TO.N,Earth*%
X227330000Y-74855800D03*
D22*
%TO.P,B1,2,VUSB*%
%TO.N,unconnected-(B1-Pad2)*%
X224790000Y-74855800D03*
%TO.P,B1,3,VBAT*%
%TO.N,unconnected-(B1-Pad3)*%
X222250000Y-74855800D03*
%TO.P,B1,4,GND*%
%TO.N,Earth*%
X219710000Y-74855800D03*
%TO.P,B1,5,3V3*%
%TO.N,Net-(B1-Pad5)*%
X217170000Y-74855800D03*
%TO.P,B1,6,~{RST}*%
%TO.N,unconnected-(B1-Pad6)*%
X214630000Y-74855800D03*
%TO.P,B1,7,13*%
%TO.N,Net-(PEDAL1-PadT)*%
X212090000Y-74855800D03*
%TO.P,B1,8,12*%
%TO.N,Net-(B1-Pad8)*%
X209550000Y-74855800D03*
%TO.P,B1,9,14*%
%TO.N,Net-(B1-Pad9)*%
X207010000Y-74855800D03*
%TO.P,B1,10,27*%
%TO.N,Net-(B1-Pad10)*%
X204470000Y-74855800D03*
%TO.P,B1,11,26*%
%TO.N,Net-(B1-Pad11)*%
X201930000Y-74855800D03*
%TO.P,B1,12,25*%
%TO.N,Net-(B1-Pad12)*%
X199390000Y-74855800D03*
%TO.P,B1,13,35*%
%TO.N,Net-(B1-Pad13)*%
X196850000Y-74855800D03*
%TO.P,B1,14,34*%
%TO.N,Net-(B1-Pad14)*%
X194310000Y-74855800D03*
%TO.P,B1,15,33*%
%TO.N,Net-(B1-Pad15)*%
X191770000Y-74855800D03*
%TO.P,B1,16,32*%
%TO.N,Net-(B1-Pad16)*%
X189230000Y-74855800D03*
%TO.P,B1,17,39*%
%TO.N,Net-(B1-Pad17)*%
X186690000Y-74855800D03*
%TO.P,B1,18,38*%
%TO.N,unconnected-(B1-Pad18)*%
X184150000Y-74855800D03*
%TO.P,B1,19,37*%
%TO.N,Net-(B1-Pad19)*%
X181610000Y-74855800D03*
%TO.P,B1,20,36*%
%TO.N,Net-(B1-Pad20)*%
X179070000Y-74855800D03*
%TO.P,B1,21,GND*%
%TO.N,Earth*%
X179070000Y-51995800D03*
%TO.P,B1,22,21*%
%TO.N,Net-(B1-Pad22)*%
X181610000Y-51995800D03*
%TO.P,B1,23,TX*%
%TO.N,unconnected-(B1-Pad23)*%
X184150000Y-51995800D03*
%TO.P,B1,24,RX*%
%TO.N,unconnected-(B1-Pad24)*%
X186690000Y-51995800D03*
%TO.P,B1,25,22*%
%TO.N,Net-(B1-Pad25)*%
X189230000Y-51995800D03*
%TO.P,B1,26,19*%
%TO.N,Net-(B1-Pad26)*%
X191770000Y-51995800D03*
%TO.P,B1,27,23*%
%TO.N,Net-(B1-Pad27)*%
X194310000Y-51995800D03*
%TO.P,B1,28,18*%
%TO.N,Net-(B1-Pad28)*%
X196850000Y-51995800D03*
%TO.P,B1,29,5*%
%TO.N,Net-(B1-Pad29)*%
X199390000Y-51995800D03*
%TO.P,B1,30,15*%
%TO.N,Net-(B1-Pad30)*%
X201930000Y-51995800D03*
%TO.P,B1,31,2*%
%TO.N,Net-(B1-Pad31)*%
X204470000Y-51995800D03*
%TO.P,B1,32,0*%
%TO.N,Net-(B1-Pad32)*%
X207010000Y-51995800D03*
%TO.P,B1,33,4*%
%TO.N,Net-(B1-Pad33)*%
X209550000Y-51995800D03*
%TO.P,B1,34,17*%
%TO.N,Net-(B1-Pad34)*%
X212090000Y-51995800D03*
%TO.P,B1,35,16*%
%TO.N,Net-(B1-Pad35)*%
X214630000Y-51995800D03*
%TO.P,B1,36,3V3*%
%TO.N,Net-(B1-Pad36)*%
X217170000Y-51995800D03*
%TO.P,B1,37,GND*%
%TO.N,Earth*%
X219710000Y-51995800D03*
%TO.P,B1,38,VBAT*%
%TO.N,unconnected-(B1-Pad38)*%
X222250000Y-51995800D03*
%TO.P,B1,39,VUSB*%
%TO.N,unconnected-(B1-Pad39)*%
X224790000Y-51995800D03*
D21*
%TO.P,B1,40,GND*%
%TO.N,Earth*%
X227330000Y-51995800D03*
%TD*%
D23*
%TO.P,BREAKOUT1,1,Pin_1*%
%TO.N,Net-(B1-Pad5)*%
X142240000Y-121920000D03*
D24*
%TO.P,BREAKOUT1,2,Pin_2*%
%TO.N,Net-(B1-Pad17)*%
X144780000Y-121920000D03*
%TO.P,BREAKOUT1,3,Pin_3*%
%TO.N,Net-(B1-Pad8)*%
X147320000Y-121920000D03*
%TO.P,BREAKOUT1,4,Pin_4*%
%TO.N,Net-(B1-Pad9)*%
X149860000Y-121920000D03*
%TO.P,BREAKOUT1,5,Pin_5*%
%TO.N,Net-(B1-Pad10)*%
X152400000Y-121920000D03*
%TO.P,BREAKOUT1,6,Pin_6*%
%TO.N,Net-(B1-Pad11)*%
X154940000Y-121920000D03*
%TO.P,BREAKOUT1,7,Pin_7*%
%TO.N,Net-(B1-Pad12)*%
X157480000Y-121920000D03*
%TO.P,BREAKOUT1,8,Pin_8*%
%TO.N,Net-(B1-Pad13)*%
X160020000Y-121920000D03*
%TO.P,BREAKOUT1,9,Pin_9*%
%TO.N,Net-(B1-Pad14)*%
X162560000Y-121920000D03*
%TO.P,BREAKOUT1,10,Pin_10*%
%TO.N,Net-(B1-Pad15)*%
X165100000Y-121920000D03*
%TO.P,BREAKOUT1,11,Pin_11*%
%TO.N,Net-(B1-Pad16)*%
X167640000Y-121920000D03*
%TO.P,BREAKOUT1,12,Pin_12*%
%TO.N,Net-(B1-Pad19)*%
X170180000Y-121920000D03*
%TO.P,BREAKOUT1,13,Pin_13*%
%TO.N,Net-(B1-Pad20)*%
X172720000Y-121920000D03*
%TO.P,BREAKOUT1,14,Pin_14*%
%TO.N,Net-(B1-Pad35)*%
X175260000Y-121920000D03*
%TO.P,BREAKOUT1,15,Pin_15*%
%TO.N,Net-(B1-Pad33)*%
X177800000Y-121920000D03*
%TO.P,BREAKOUT1,16,Pin_16*%
%TO.N,Net-(B1-Pad32)*%
X180340000Y-121920000D03*
%TO.P,BREAKOUT1,17,Pin_17*%
%TO.N,Net-(B1-Pad31)*%
X182880000Y-121920000D03*
%TO.P,BREAKOUT1,18,Pin_18*%
%TO.N,Net-(B1-Pad30)*%
X185420000Y-121920000D03*
%TO.P,BREAKOUT1,19,Pin_19*%
%TO.N,Net-(B1-Pad29)*%
X187960000Y-121920000D03*
%TO.P,BREAKOUT1,20,Pin_20*%
%TO.N,Net-(B1-Pad28)*%
X190500000Y-121920000D03*
%TO.P,BREAKOUT1,21,Pin_21*%
%TO.N,Net-(B1-Pad27)*%
X193040000Y-121920000D03*
%TO.P,BREAKOUT1,22,Pin_22*%
%TO.N,Net-(B1-Pad36)*%
X195580000Y-121920000D03*
%TO.P,BREAKOUT1,23,Pin_23*%
%TO.N,Earth*%
X198120000Y-121920000D03*
%TO.P,BREAKOUT1,24,Pin_24*%
X200660000Y-121920000D03*
%TD*%
D12*
%TO.P,R9-16,1,Pin_1*%
%TO.N,Net-(B1-Pad5)*%
X157480000Y-73660000D03*
D13*
%TO.P,R9-16,2,Pin_2*%
X157480000Y-76200000D03*
%TO.P,R9-16,3,Pin_3*%
X157480000Y-78740000D03*
%TO.P,R9-16,4,Pin_4*%
X157480000Y-81280000D03*
%TO.P,R9-16,5,Pin_5*%
X157480000Y-83820000D03*
%TO.P,R9-16,6,Pin_6*%
X157480000Y-86360000D03*
%TO.P,R9-16,7,Pin_7*%
X157480000Y-88900000D03*
%TO.P,R9-16,8,Pin_8*%
X157480000Y-91440000D03*
%TO.P,R9-16,9,Pin_9*%
%TO.N,Net-(J1-Pad48)*%
X165100000Y-91440000D03*
%TO.P,R9-16,10,Pin_10*%
%TO.N,Net-(J1-Pad45)*%
X165100000Y-88900000D03*
%TO.P,R9-16,11,Pin_11*%
%TO.N,Net-(J1-Pad42)*%
X165100000Y-86360000D03*
%TO.P,R9-16,12,Pin_12*%
%TO.N,Net-(J1-Pad39)*%
X165100000Y-83820000D03*
%TO.P,R9-16,13,Pin_13*%
%TO.N,Net-(J1-Pad36)*%
X165100000Y-81280000D03*
%TO.P,R9-16,14,Pin_14*%
%TO.N,Net-(J1-Pad33)*%
X165100000Y-78740000D03*
%TO.P,R9-16,15,Pin_15*%
%TO.N,Net-(J1-Pad30)*%
X165100000Y-76200000D03*
%TO.P,R9-16,16,Pin_16*%
%TO.N,Net-(J1-Pad27)*%
X165100000Y-73660000D03*
%TD*%
D25*
%TO.N,Net-(B1-Pad8)*%
X199755800Y-120443900D03*
%TO.N,Net-(B1-Pad10)*%
X198242100Y-118356800D03*
%TO.N,Net-(B1-Pad11)*%
X154940000Y-70669500D03*
%TO.N,Net-(B1-Pad12)*%
X162349900Y-71471800D03*
%TO.N,Net-(B1-Pad13)*%
X160693100Y-74930000D03*
%TO.N,Net-(B1-Pad14)*%
X163362500Y-77564900D03*
%TO.N,Net-(B1-Pad15)*%
X168632000Y-82222800D03*
%TO.N,Net-(B1-Pad19)*%
X162264500Y-80528700D03*
%TO.N,Net-(B1-Pad20)*%
X166759300Y-82043600D03*
%TO.N,Net-(B1-Pad27)*%
X196105700Y-115062800D03*
%TO.N,Net-(B1-Pad33)*%
X197359700Y-76558000D03*
%TO.N,Net-(B1-Pad22)*%
X187959900Y-79226300D03*
%TO.N,Net-(B1-Pad35)*%
X223520100Y-75892300D03*
%TO.N,Net-(B1-Pad26)*%
X191353000Y-80538000D03*
%TD*%
D26*
%TO.N,Earth*%
X153976600Y-53185200D02*
X152681100Y-54480700D01*
X177903100Y-85222000D02*
X179060000Y-84065100D01*
X227330000Y-51995800D02*
X226065100Y-51995800D01*
X225353700Y-50730900D02*
X226065100Y-51442300D01*
X221471600Y-76617400D02*
X224857000Y-76617400D01*
X200701000Y-118563500D02*
X212326500Y-118563500D01*
X179060000Y-82540000D02*
X179060000Y-84065100D01*
X219710000Y-51995800D02*
X220974900Y-50730900D01*
X179020000Y-92680000D02*
X179020000Y-93714900D01*
X177880600Y-53185200D02*
X153976600Y-53185200D01*
X194300000Y-91685100D02*
X180014900Y-91685100D01*
X200701000Y-120703900D02*
X200701000Y-118563500D01*
X179020000Y-95240000D02*
X179020000Y-93714900D01*
X179268700Y-92431300D02*
X177903100Y-91065700D01*
X177903100Y-91065700D02*
X177903100Y-85222000D01*
X180014900Y-91685100D02*
X179268700Y-92431300D01*
X224857000Y-76617400D02*
X226065100Y-75409300D01*
X194300000Y-90160000D02*
X194300000Y-91685100D01*
X226065100Y-51442300D02*
X226065100Y-51995800D01*
X196452400Y-114314900D02*
X194300000Y-114314900D01*
X180802100Y-50263700D02*
X179070000Y-51995800D01*
X226065100Y-75409300D02*
X226065100Y-74855800D01*
X179268700Y-92431300D02*
X179020000Y-92680000D01*
X152681100Y-54480700D02*
X147469300Y-54480700D01*
X200660000Y-120744900D02*
X200701000Y-120703900D01*
X219710000Y-51995800D02*
X217977900Y-50263700D01*
X200701000Y-118563500D02*
X196452400Y-114314900D01*
X147469300Y-54480700D02*
X146040000Y-55910000D01*
X200660000Y-121920000D02*
X200660000Y-120744900D01*
X227330000Y-74855800D02*
X226065100Y-74855800D01*
X194300000Y-115840000D02*
X194300000Y-114314900D01*
X217977900Y-50263700D02*
X180802100Y-50263700D01*
X212326500Y-118563500D02*
X224705000Y-106185000D01*
X179070000Y-51995800D02*
X177880600Y-53185200D01*
X200660000Y-121920000D02*
X198120000Y-121920000D01*
X219710000Y-74855800D02*
X221471600Y-76617400D01*
X220974900Y-50730900D02*
X225353700Y-50730900D01*
%TO.N,Net-(B1-Pad5)*%
X203455500Y-77701500D02*
X179833400Y-77701500D01*
X208280000Y-75433900D02*
X208280000Y-74297300D01*
X205740000Y-75417000D02*
X203455500Y-77701500D01*
X176520000Y-82635700D02*
X176520000Y-82540000D01*
X164075000Y-82683200D02*
X166373500Y-82683200D01*
X208280000Y-74297300D02*
X207564100Y-73581400D01*
X167755400Y-84065100D02*
X175370500Y-84065100D01*
X166373500Y-82683200D02*
X167755400Y-84065100D01*
X208840000Y-86360000D02*
X208840000Y-85234900D01*
X175370500Y-92605400D02*
X176480000Y-93714900D01*
X162938200Y-83820000D02*
X164075000Y-82683200D01*
X175370500Y-84065100D02*
X175370500Y-92605400D01*
X207564100Y-73581400D02*
X206493900Y-73581400D01*
X205740000Y-74335300D02*
X205740000Y-75417000D01*
X212436000Y-79589800D02*
X217170000Y-74855800D01*
X208840000Y-83185800D02*
X212436000Y-79589800D01*
X176480000Y-95240000D02*
X176480000Y-93714900D01*
X176520000Y-82635700D02*
X176520000Y-84065100D01*
X176520000Y-84065100D02*
X175370500Y-84065100D01*
X157480000Y-83820000D02*
X162938200Y-83820000D01*
X157480000Y-91440000D02*
X148610000Y-91440000D01*
X212436000Y-79589800D02*
X208280000Y-75433900D01*
X208840000Y-85234900D02*
X208840000Y-83185800D01*
X179833400Y-77701500D02*
X176520000Y-81014900D01*
X206493900Y-73581400D02*
X205740000Y-74335300D01*
X176520000Y-82540000D02*
X176520000Y-81014900D01*
X148610000Y-91440000D02*
X148580000Y-91470000D01*
%TO.N,Net-(J1-Pad03)*%
X163574900Y-52060000D02*
X162449700Y-50934800D01*
X145935200Y-50934800D02*
X143500000Y-53370000D01*
X162449700Y-50934800D02*
X145935200Y-50934800D01*
X165100000Y-52060000D02*
X163574900Y-52060000D01*
%TO.N,Net-(B1-Pad8)*%
X148495100Y-122287200D02*
X149777800Y-123569900D01*
X196850000Y-122314100D02*
X196850000Y-121442800D01*
X195594200Y-123569900D02*
X196850000Y-122314100D01*
X197848900Y-120443900D02*
X199755800Y-120443900D01*
X196850000Y-121442800D02*
X197848900Y-120443900D01*
X147320000Y-121920000D02*
X148495100Y-121920000D01*
X149777800Y-123569900D02*
X195594200Y-123569900D01*
X148495100Y-121920000D02*
X148495100Y-122287200D01*
%TO.N,Net-(B1-Pad9)*%
X190634800Y-114230100D02*
X190634800Y-116587000D01*
X195792700Y-86073100D02*
X195792700Y-109072200D01*
X207010000Y-74855800D02*
X195792700Y-86073100D01*
X151035100Y-121554400D02*
X151035100Y-121920000D01*
X195792700Y-109072200D02*
X190634800Y-114230100D01*
X190634800Y-116587000D02*
X188156100Y-119065700D01*
X188156100Y-119065700D02*
X153523800Y-119065700D01*
X153523800Y-119065700D02*
X151035100Y-121554400D01*
X149860000Y-121920000D02*
X151035100Y-121920000D01*
%TO.N,Net-(B1-Pad10)*%
X191770000Y-121526700D02*
X191770000Y-122319300D01*
X156115100Y-122322100D02*
X156115100Y-121433300D01*
X152400000Y-121920000D02*
X153575100Y-121920000D01*
X156115100Y-121433300D02*
X155426700Y-120744900D01*
X153575200Y-121623000D02*
X153575200Y-121920000D01*
X190973100Y-123116200D02*
X156909200Y-123116200D01*
X194939900Y-118356800D02*
X191770000Y-121526700D01*
X154453300Y-120744900D02*
X153575200Y-121623000D01*
X153575200Y-121920000D02*
X153575100Y-121920000D01*
X191770000Y-122319300D02*
X190973100Y-123116200D01*
X156909200Y-123116200D02*
X156115100Y-122322100D01*
X198242100Y-118356800D02*
X194939900Y-118356800D01*
X155426700Y-120744900D02*
X154453300Y-120744900D01*
%TO.N,Net-(B1-Pad11)*%
X155247100Y-70976600D02*
X154940000Y-70669500D01*
X158555000Y-70976600D02*
X155247100Y-70976600D01*
X201930000Y-74855800D02*
X195746700Y-68672500D01*
X163350200Y-69389800D02*
X160141800Y-69389800D01*
X195746700Y-68672500D02*
X164067500Y-68672500D01*
X164067500Y-68672500D02*
X163350200Y-69389800D01*
X160141800Y-69389800D02*
X158555000Y-70976600D01*
%TO.N,Net-(B1-Pad12)*%
X196006000Y-71471800D02*
X199390000Y-74855800D01*
X162349900Y-71471800D02*
X196006000Y-71471800D01*
%TO.N,Net-(B1-Pad13)*%
X167921500Y-74930000D02*
X160693100Y-74930000D01*
X196850000Y-74855800D02*
X194645600Y-72651400D01*
X194645600Y-72651400D02*
X170200100Y-72651400D01*
X170200100Y-72651400D02*
X167921500Y-74930000D01*
%TO.N,Net-(B1-Pad14)*%
X192558100Y-73103900D02*
X175875100Y-73103900D01*
X175875100Y-73103900D02*
X171414100Y-77564900D01*
X194310000Y-74855800D02*
X192558100Y-73103900D01*
X171414100Y-77564900D02*
X163362500Y-77564900D01*
%TO.N,Net-(B1-Pad15)*%
X191770000Y-74855800D02*
X189855500Y-76770300D01*
X172339700Y-82222800D02*
X168632000Y-82222800D01*
X189855500Y-76770300D02*
X177792200Y-76770300D01*
X177792200Y-76770300D02*
X172339700Y-82222800D01*
%TO.N,Net-(J1-Pad06)*%
X163574900Y-54600000D02*
X162449700Y-55725200D01*
X162449700Y-55725200D02*
X153746700Y-55725200D01*
X165100000Y-54600000D02*
X163574900Y-54600000D01*
X144531900Y-56941900D02*
X143500000Y-55910000D01*
X153746700Y-55725200D02*
X152530000Y-56941900D01*
X152530000Y-56941900D02*
X144531900Y-56941900D01*
%TO.N,Net-(B1-Pad19)*%
X180345000Y-73590800D02*
X181610000Y-74855800D01*
X170336500Y-80010000D02*
X176755700Y-73590800D01*
X162264500Y-80528700D02*
X162783200Y-80010000D01*
X162783200Y-80010000D02*
X170336500Y-80010000D01*
X176755700Y-73590800D02*
X180345000Y-73590800D01*
%TO.N,Net-(B1-Pad20)*%
X167317300Y-81485600D02*
X172440200Y-81485600D01*
X172440200Y-81485600D02*
X179070000Y-74855800D01*
X166759300Y-82043600D02*
X167317300Y-81485600D01*
%TO.N,Net-(J1-Pad09)*%
X153440000Y-58318100D02*
X152514000Y-57392100D01*
X163574900Y-57140000D02*
X162396800Y-58318100D01*
X152514000Y-57392100D02*
X144557900Y-57392100D01*
X165100000Y-57140000D02*
X163574900Y-57140000D01*
X144557900Y-57392100D02*
X143500000Y-58450000D01*
X162396800Y-58318100D02*
X153440000Y-58318100D01*
%TO.N,Net-(J1-Pad12)*%
X165100000Y-59680000D02*
X163574900Y-59680000D01*
X152560500Y-59978600D02*
X144511400Y-59978600D01*
X144511400Y-59978600D02*
X143500000Y-60990000D01*
X162449700Y-60805200D02*
X153387100Y-60805200D01*
X153387100Y-60805200D02*
X152560500Y-59978600D01*
X163574900Y-59680000D02*
X162449700Y-60805200D01*
%TO.N,Net-(B1-Pad27)*%
X193040000Y-121920000D02*
X194215100Y-121920000D01*
X194215100Y-121552800D02*
X196559400Y-119208500D01*
X194215100Y-121920000D02*
X194215100Y-121552800D01*
X198992500Y-117949600D02*
X196105700Y-115062800D01*
X198447600Y-119208500D02*
X198992500Y-118663600D01*
X198992500Y-118663600D02*
X198992500Y-117949600D01*
X196559400Y-119208500D02*
X198447600Y-119208500D01*
%TO.N,Net-(B1-Pad32)*%
X199318900Y-96972000D02*
X207608100Y-88682800D01*
X199318900Y-107307700D02*
X199318900Y-96972000D01*
X210074000Y-50713900D02*
X208291900Y-50713900D01*
X207608100Y-88682800D02*
X214069900Y-88682800D01*
X218440000Y-60425400D02*
X210820000Y-52805400D01*
X210820000Y-52805400D02*
X210820000Y-51459900D01*
X188913800Y-120744900D02*
X192944700Y-116714000D01*
X208291900Y-50713900D02*
X207010000Y-51995800D01*
X214069900Y-88682800D02*
X218440000Y-84312700D01*
X192944700Y-113681900D02*
X199318900Y-107307700D01*
X180340000Y-121920000D02*
X181515100Y-121920000D01*
X210820000Y-51459900D02*
X210074000Y-50713900D01*
X182322900Y-120744900D02*
X188913800Y-120744900D01*
X181515100Y-121920000D02*
X181515100Y-121552700D01*
X192944700Y-116714000D02*
X192944700Y-113681900D01*
X181515100Y-121552700D02*
X182322900Y-120744900D01*
X218440000Y-84312700D02*
X218440000Y-60425400D01*
%TO.N,Net-(B1-Pad33)*%
X203200000Y-75445400D02*
X202087400Y-76558000D01*
X209550000Y-51995800D02*
X203200000Y-58345800D01*
X202087400Y-76558000D02*
X197359700Y-76558000D01*
X203200000Y-58345800D02*
X203200000Y-75445400D01*
%TO.N,Net-(B1-Pad22)*%
X176520000Y-85448200D02*
X177934800Y-84033400D01*
X176480000Y-104385100D02*
X175394900Y-105470200D01*
X176520000Y-115840000D02*
X176520000Y-114314900D01*
X175394900Y-105470200D02*
X175394900Y-113189800D01*
X176480000Y-102860000D02*
X176480000Y-104385100D01*
X176520000Y-90160000D02*
X176520000Y-85448200D01*
X175394900Y-113189800D02*
X176520000Y-114314900D01*
X177934800Y-84033400D02*
X177934800Y-81634800D01*
X177934800Y-81634800D02*
X180343300Y-79226300D01*
X180343300Y-79226300D02*
X187959900Y-79226300D01*
%TO.N,Net-(B1-Pad35)*%
X223520100Y-60885900D02*
X214630000Y-51995800D01*
X223520100Y-75892300D02*
X223520100Y-60885900D01*
%TO.N,Net-(B1-Pad26)*%
X187805200Y-81894700D02*
X189161900Y-80538000D01*
X189161900Y-80538000D02*
X191353000Y-80538000D01*
X179060000Y-114314900D02*
X177922800Y-113177700D01*
X187805200Y-83413800D02*
X187805200Y-81894700D01*
X179020000Y-102860000D02*
X179020000Y-104385100D01*
X179060000Y-88634900D02*
X182584100Y-88634900D01*
X182584100Y-88634900D02*
X187805200Y-83413800D01*
X179060000Y-90160000D02*
X179060000Y-88634900D01*
X177922800Y-105482300D02*
X179020000Y-104385100D01*
X177922800Y-113177700D02*
X177922800Y-105482300D01*
X179060000Y-115840000D02*
X179060000Y-114314900D01*
%TO.N,Net-(J1-Pad15)*%
X144556600Y-62473400D02*
X143500000Y-63530000D01*
X152515300Y-62473400D02*
X144556600Y-62473400D01*
X162396800Y-63398100D02*
X153440000Y-63398100D01*
X165100000Y-62220000D02*
X163574900Y-62220000D01*
X163574900Y-62220000D02*
X162396800Y-63398100D01*
X153440000Y-63398100D02*
X152515300Y-62473400D01*
%TO.N,Net-(J1-Pad18)*%
X152515300Y-65013400D02*
X144556600Y-65013400D01*
X144556600Y-65013400D02*
X143500000Y-66070000D01*
X162396800Y-65938100D02*
X153440000Y-65938100D01*
X163574900Y-64760000D02*
X162396800Y-65938100D01*
X165100000Y-64760000D02*
X163574900Y-64760000D01*
X153440000Y-65938100D02*
X152515300Y-65013400D01*
%TO.N,Net-(J1-Pad21)*%
X152560500Y-67598600D02*
X144511400Y-67598600D01*
X165100000Y-67300000D02*
X163574900Y-67300000D01*
X153387100Y-68425200D02*
X152560500Y-67598600D01*
X144511400Y-67598600D02*
X143500000Y-68610000D01*
X163574900Y-67300000D02*
X162449700Y-68425200D01*
X162449700Y-68425200D02*
X153387100Y-68425200D01*
%TO.N,Net-(J1-Pad24)*%
X161369600Y-71426700D02*
X162956300Y-69840000D01*
X143500000Y-71150000D02*
X144513300Y-70136700D01*
X151922000Y-70136700D02*
X153212000Y-71426700D01*
X144513300Y-70136700D02*
X151922000Y-70136700D01*
X165100000Y-69840000D02*
X163574900Y-69840000D01*
X153212000Y-71426700D02*
X161369600Y-71426700D01*
X162956300Y-69840000D02*
X163574900Y-69840000D01*
%TO.N,Net-(J1-Pad27)*%
X162412400Y-72497500D02*
X163574900Y-73660000D01*
X143500000Y-73690000D02*
X144692500Y-72497500D01*
X165100000Y-73660000D02*
X163574900Y-73660000D01*
X144692500Y-72497500D02*
X162412400Y-72497500D01*
%TO.N,Net-(J1-Pad30)*%
X144611200Y-77341200D02*
X143500000Y-76230000D01*
X165100000Y-76200000D02*
X163574900Y-76200000D01*
X163574900Y-76200000D02*
X162433700Y-77341200D01*
X162433700Y-77341200D02*
X144611200Y-77341200D01*
%TO.N,Net-(J1-Pad33)*%
X163027800Y-78740000D02*
X161886600Y-79881200D01*
X144611200Y-79881200D02*
X143500000Y-78770000D01*
X161886600Y-79881200D02*
X144611200Y-79881200D01*
X165100000Y-78740000D02*
X163574900Y-78740000D01*
X163574900Y-78740000D02*
X163027800Y-78740000D01*
%TO.N,Net-(J1-Pad36)*%
X165100000Y-81280000D02*
X162219000Y-81280000D01*
X144611200Y-82421200D02*
X143500000Y-81310000D01*
X162219000Y-81280000D02*
X161077800Y-82421200D01*
X161077800Y-82421200D02*
X144611200Y-82421200D01*
%TO.N,Net-(J1-Pad39)*%
X144611200Y-84961200D02*
X143500000Y-83850000D01*
X165100000Y-83820000D02*
X163574900Y-83820000D01*
X163574900Y-83820000D02*
X162433700Y-84961200D01*
X162433700Y-84961200D02*
X144611200Y-84961200D01*
%TO.N,Net-(J1-Pad42)*%
X185576400Y-97215200D02*
X176398000Y-97215200D01*
X190315500Y-103803100D02*
X190315500Y-101954300D01*
X144611200Y-87501200D02*
X143500000Y-86390000D01*
X165000900Y-86360000D02*
X164901700Y-86360000D01*
X162433700Y-87501200D02*
X144611200Y-87501200D01*
X176398000Y-97215200D02*
X166625100Y-87442300D01*
X184100000Y-102860000D02*
X184100000Y-103019200D01*
X190315500Y-101954300D02*
X185576400Y-97215200D01*
X184100000Y-103019200D02*
X185939400Y-104858600D01*
X165000900Y-86360000D02*
X165100000Y-86360000D01*
X166625100Y-87442300D02*
X166625100Y-86360000D01*
X164751700Y-86360000D02*
X163574900Y-86360000D01*
X165100000Y-86360000D02*
X166625100Y-86360000D01*
X163574900Y-86360000D02*
X162433700Y-87501200D01*
X189260000Y-104858600D02*
X190315500Y-103803100D01*
X185939400Y-104858600D02*
X189260000Y-104858600D01*
X164751700Y-86360000D02*
X164901700Y-86360000D01*
%TO.N,Net-(J1-Pad45)*%
X163574900Y-88900000D02*
X162433700Y-90041200D01*
X182970500Y-97665400D02*
X175390500Y-97665400D01*
X186640000Y-101334900D02*
X182970500Y-97665400D01*
X162433700Y-90041200D02*
X144611200Y-90041200D01*
X175390500Y-97665400D02*
X166625100Y-88900000D01*
X164751700Y-88900000D02*
X165100000Y-88900000D01*
X144611200Y-90041200D02*
X143500000Y-88930000D01*
X164751700Y-88900000D02*
X163574900Y-88900000D01*
X186640000Y-102860000D02*
X186640000Y-101334900D01*
X165100000Y-88900000D02*
X166625100Y-88900000D01*
%TO.N,Net-(J1-Pad48)*%
X163574900Y-91440000D02*
X162433700Y-92581200D01*
X173937100Y-98752000D02*
X166625100Y-91440000D01*
X144611200Y-92581200D02*
X143500000Y-91470000D01*
X185370000Y-102131500D02*
X181990500Y-98752000D01*
X162433700Y-92581200D02*
X144611200Y-92581200D01*
X186125900Y-104408400D02*
X185370000Y-103652500D01*
X165100000Y-91440000D02*
X166625100Y-91440000D01*
X189180000Y-102860000D02*
X187631600Y-104408400D01*
X181990500Y-98752000D02*
X173937100Y-98752000D01*
X165100000Y-91440000D02*
X163574900Y-91440000D01*
X187631600Y-104408400D02*
X186125900Y-104408400D01*
X185370000Y-103652500D02*
X185370000Y-102131500D01*
%TO.N,Net-(J1-Pad51)*%
X164337500Y-95240000D02*
X163574900Y-95240000D01*
X163574900Y-95240000D02*
X162449700Y-94114800D01*
X170587300Y-99202200D02*
X166625100Y-95240000D01*
X187905900Y-105380800D02*
X184595100Y-105380800D01*
X179901000Y-99202200D02*
X170587300Y-99202200D01*
X182830000Y-103615700D02*
X182830000Y-102131200D01*
X162449700Y-94114800D02*
X151741900Y-94114800D01*
X165100000Y-95240000D02*
X166625100Y-95240000D01*
X189220000Y-108220000D02*
X189220000Y-106694900D01*
X189220000Y-106694900D02*
X187905900Y-105380800D01*
X150795200Y-95061500D02*
X144551500Y-95061500D01*
X184595100Y-105380800D02*
X182830000Y-103615700D01*
X151741900Y-94114800D02*
X150795200Y-95061500D01*
X182830000Y-102131200D02*
X179901000Y-99202200D01*
X144551500Y-95061500D02*
X143500000Y-94010000D01*
X164337500Y-95240000D02*
X165100000Y-95240000D01*
%TO.N,Net-(J1-Pad54)*%
X180290000Y-103595300D02*
X180290000Y-102138300D01*
X179486500Y-101334800D02*
X170179900Y-101334800D01*
X165100000Y-97780000D02*
X166625100Y-97780000D01*
X162270100Y-96475200D02*
X151771900Y-96475200D01*
X170179900Y-101334800D02*
X166625100Y-97780000D01*
X186680000Y-108220000D02*
X186680000Y-106694900D01*
X163574900Y-97780000D02*
X162270100Y-96475200D01*
X164666400Y-97780000D02*
X165100000Y-97780000D01*
X183389600Y-106694900D02*
X180290000Y-103595300D01*
X151771900Y-96475200D02*
X150808400Y-95511700D01*
X164666400Y-97780000D02*
X163574900Y-97780000D01*
X186680000Y-106694900D02*
X183389600Y-106694900D01*
X180290000Y-102138300D02*
X179486500Y-101334800D01*
X144538300Y-95511700D02*
X143500000Y-96550000D01*
X150808400Y-95511700D02*
X144538300Y-95511700D01*
%TO.N,Net-(J1-Pad57)*%
X152301900Y-100360000D02*
X144770000Y-100360000D01*
X163574900Y-100320000D02*
X162396800Y-101498100D01*
X153440000Y-101498100D02*
X152301900Y-100360000D01*
X144770000Y-100360000D02*
X143500000Y-99090000D01*
X165100000Y-100320000D02*
X163574900Y-100320000D01*
X162396800Y-101498100D02*
X153440000Y-101498100D01*
%TO.N,Net-(J1-Pad60)*%
X165100000Y-102860000D02*
X163574900Y-102860000D01*
X163574900Y-102860000D02*
X162396800Y-104038100D01*
X162396800Y-104038100D02*
X153440000Y-104038100D01*
X153440000Y-104038100D02*
X152301900Y-102900000D01*
X144770000Y-102900000D02*
X143500000Y-101630000D01*
X152301900Y-102900000D02*
X144770000Y-102900000D01*
%TO.N,Net-(J1-Pad63)*%
X163574900Y-105400000D02*
X162396800Y-106578100D01*
X152301900Y-105440000D02*
X144770000Y-105440000D01*
X162396800Y-106578100D02*
X153440000Y-106578100D01*
X153440000Y-106578100D02*
X152301900Y-105440000D01*
X165100000Y-105400000D02*
X163574900Y-105400000D01*
X144770000Y-105440000D02*
X143500000Y-104170000D01*
%TO.N,Net-(J1-Pad66)*%
X175583900Y-117365100D02*
X166625100Y-108406300D01*
X166625100Y-108406300D02*
X166625100Y-107940000D01*
X184140000Y-115840000D02*
X184140000Y-117365100D01*
X163574900Y-107940000D02*
X162396800Y-109118100D01*
X144770000Y-107980000D02*
X143500000Y-106710000D01*
X164666400Y-107940000D02*
X163574900Y-107940000D01*
X165100000Y-107940000D02*
X166625100Y-107940000D01*
X153440000Y-109118100D02*
X152301900Y-107980000D01*
X162396800Y-109118100D02*
X153440000Y-109118100D01*
X164666400Y-107940000D02*
X165100000Y-107940000D01*
X184140000Y-117365100D02*
X175583900Y-117365100D01*
X152301900Y-107980000D02*
X144770000Y-107980000D01*
%TO.N,Net-(J1-Pad69)*%
X173990900Y-117845800D02*
X166625100Y-110480000D01*
X186199300Y-117845800D02*
X173990900Y-117845800D01*
X165100000Y-110480000D02*
X166625100Y-110480000D01*
X162396800Y-111658100D02*
X153440000Y-111658100D01*
X186680000Y-115840000D02*
X186680000Y-117365100D01*
X165100000Y-110480000D02*
X163574900Y-110480000D01*
X152301900Y-110520000D02*
X144770000Y-110520000D01*
X144770000Y-110520000D02*
X143500000Y-109250000D01*
X163574900Y-110480000D02*
X162396800Y-111658100D01*
X153440000Y-111658100D02*
X152301900Y-110520000D01*
X186680000Y-117365100D02*
X186199300Y-117845800D01*
%TO.N,Net-(J1-Pad72)*%
X165100000Y-113020000D02*
X163574900Y-113020000D01*
X145856600Y-114146600D02*
X143500000Y-111790000D01*
X188230300Y-118354800D02*
X171959900Y-118354800D01*
X189220000Y-117365100D02*
X188230300Y-118354800D01*
X165862600Y-113020000D02*
X165100000Y-113020000D01*
X189220000Y-115840000D02*
X189220000Y-117365100D01*
X171959900Y-118354800D02*
X166625100Y-113020000D01*
X162448300Y-114146600D02*
X145856600Y-114146600D01*
X163574900Y-113020000D02*
X162448300Y-114146600D01*
X165862600Y-113020000D02*
X166625100Y-113020000D01*
%TO.N,Net-(MIDI1-Pad4)*%
X202366300Y-87506300D02*
X213241200Y-87506300D01*
X213241200Y-87506300D02*
X214010000Y-86737500D01*
X201220000Y-86360000D02*
X202366300Y-87506300D01*
%TO.N,Net-(MIDI1-Pad5)*%
X212827800Y-97929700D02*
X202389700Y-97929700D01*
X214010000Y-96747500D02*
X212827800Y-97929700D01*
X202389700Y-97929700D02*
X201220000Y-96760000D01*
%TD*%
M02*
